<?xml version="1.0" encoding="UTF-8"?>
<svg version="1.1" viewBox="0 0 1784 1776" width="1280" height="1280" xmlns="http://www.w3.org/2000/svg">
<path transform="translate(888,54)" d="m0 0 10 1 8 4 7 7 4 7 1 6v204h162l8 2 8 7 4 8 1 4v8l-3 9-4 6-8 5-7 2h-161l1 247 14 8 12 6 13 8 25 14 14 8 15 9 19 11 11 6 5-1 16-11 17-13 8-6 14-10 18-13 12-9 6-4 10-8 14-10 17-12 8-7 11-7 10-8 9-6 16-12 9-7 28-20 18-13 1-1 1-229 4-9 7-8 10-4h11l9 3 6 5 5 9v219h370l9 3 8 7 6 10v13l-4 8-8 7-8 4-49 1h-337l-9 3-8 6-17 13-12 9-11 7-8 7-13 9-15 11-13 10-12 8-13 10-18 13-11 8-10 8-17 12-14 10-16 12-11 8-6 3 1 3 13 8 16 9 20 11 16 10 7 5 8 11 6 12 1 117 166 1v-140l1-51 4-11 6-9 8-7 8-3 7-1h168l10 3 8 7 5 10v10l-5 10-5 6-10 4-10 1h-143l1 170 333 1 9 6 5 8 1 3v17l-3 7-6 5-7 4-4 1-328 1v166h140l14 1 9 7 1 3h2l5 8 1 3v10l-4 9-9 8-6 3-7 1h-159l-12-3-11-6-8-8-6-13-2-7-1-49v-134l-166 1-1 135-4 9-6 9-7 8-35 21-11 6-13 8-12 6-1 3 14 10 16 12 13 10 16 11 16 12 36 26 13 10 10 7 13 10 17 12 20 15 11 8 10 7 13 10 9 6 384 1 12 2 10 9 4 6 2 6v8l-5 10-9 9-8 3h-370l-1 218-7 11-5 5-3 2-6 1h-12l-8-4-7-8-4-7-1-5-1-227-10-8-11-7-11-9-14-10-11-8-16-12-17-12-13-9-8-7-14-10-20-14-13-10-19-14-16-12-14-10-19-14-16-11-5 1-5 3-14 7-13 8-32 18-15 9-23 13-14 8-3 2-1 231 25-1h135l14 1 8 4 7 6 4 8 1 10-2 9-7 9-8 5-4 1h-173v198l-1 11-6 10-8 6-6 2h-11l-8-3-8-7-4-8-1-4v-205l-5 1-159-1-10-5-7-10-2-5v-11l4-10 5-5 7-5 3-1 13-1h151l-1-230-20-11-15-9-9-5-14-8-16-9-10-6-17-10-10-5-9-5-5-1-14 10-10 8-14 10-17 12-13 10-19 14-11 8-8 6-17 12-11 8-11 9-11 7-9 7-14 10-15 11-24 18-17 12-6 5-1 9-1 222-5 9-7 8-8 3h-13l-7-3-5-5-6-9-2-6-1-213-369-1-8-3-10-10-4-10v-7l3-9 9-9 7-4 6-1 387-1 9-6 11-9 17-12 13-9 8-7 13-9 14-10 9-7 14-10 13-10 19-13 14-11 14-10 8-6 17-12 13-10 10-8 10-6h2l-5-5-21-12-12-7-8-4-17-11-10-6-11-12-5-11-1-5-1-133-167-1v156l-1 28-4 13-6 10-10 7-10 4-11 2h-159l-9-3-11-10-3-8v-10l5-10 8-8 5-3 8-1h141l5-1v-165l-330-1-11-6-5-5-3-11v-8l4-11 6-7 6-3 333-1 1-170h-148l-12-3-8-7-5-11v-9l4-10 7-7 10-4h167l12 2 9 4 7 7 6 12 1 4 1 22v170h167l1-115 3-11 10-12 4-5 11-6 10-7 19-10 10-6 11-6 6-4h2l1-4-11-6-11-9-6-4-13-10-13-9-10-7-8-6-10-8-17-12-18-13-28-21-11-8-10-7-9-7-5-4-9-6-12-9-6-4-13-11-10-5-8-1h-351l-32-1-7-4-9-8-3-8v-10l4-10 5-5 11-7h373v-219l4-8 7-6 8-3h12l9 3 8 9 3 7 1 22v206l3 5 18 13 14 10 30 22 13 10 13 9 11 8 13 10 14 10 18 13 10 8 11 7 10 8 18 13 14 10 9 7 16 12 10 6 6-2 17-9 30-18 23-13 12-7 9-5 14-8 11-6 4-4 1-245h-174l-12-6-5-6-2-6v-15l5-10 8-6 4-2h176v-208l4-8 8-8 7-4z" fill="#5A7CB7"/>
<path transform="translate(1383,644)" d="m0 0h168l10 3 8 7 5 10v10l-5 10-5 6-10 4-10 1h-143l1 170 333 1 9 6 5 8 1 3v17l-3 7-6 5-7 4-4 1-328 1v166h140l14 1 9 7 1 3h2l5 8 1 3v10l-4 9-9 8-6 3-7 1h-159l-12-3-11-6-8-8-6-13-2-7-1-49v-134h-165l-1-4v-23l1-24h165v-140l1-51 4-11 6-9 8-7 8-3z" fill="#527183"/>
<path transform="translate(230,644)" d="m0 0h167l12 2 9 4 7 7 6 12 1 4 1 22v170l164 1 2 3 1 16v30l-1 2h-166v156l-1 28-4 13-6 10-10 7-10 4-11 2h-159l-9-3-11-10-3-8v-10l5-10 8-8 5-3 8-1h141l5-1v-165l-330-1-11-6-5-5-3-11v-8l4-11 6-7 6-3 333-1 1-170h-148l-12-3-8-7-5-11v-9l4-10 7-7z" fill="#527183"/>
<path transform="translate(1089,1123)" d="m0 0 6 1 28 21 13 10 16 11 16 12 36 26 13 10 10 7 13 10 17 12 20 15 11 8 10 7 13 10 9 6 384 1 12 2 10 9 4 6 2 6v8l-5 10-9 9-8 3h-370l-1 218-7 11-5 5-3 2-6 1h-12l-8-4-7-8-4-7-1-5-1-227-10-8-11-7-11-9-14-10-11-8-16-12-17-12-13-9-8-7-14-10-20-14-13-10-19-14-16-12-14-10-19-14-14-10v-4l24-15 14-8z" fill="#527183"/>
<path transform="translate(689,1124)" d="m0 0 7 1 21 11 13 8 5 3 4 3-1 3-16 11-11 9-19 13-18 14-14 10-18 13-9 7-17 12-11 8-11 9-11 7-9 7-14 10-15 11-24 18-17 12-6 5-1 9-1 222-5 9-7 8-8 3h-13l-7-3-5-5-6-9-2-6-1-213-369-1-8-3-10-10-4-10v-7l3-9 9-9 7-4 6-1 387-1 9-6 11-9 17-12 13-9 8-7 13-9 14-10 9-7 14-10 13-10 19-13 14-11 14-10 8-6 17-12 13-10 10-8z" fill="#527183"/>
<path transform="translate(1311,223)" d="m0 0h11l9 3 6 5 5 9v219h370l9 3 8 7 6 10v13l-4 8-8 7-8 4-49 1h-337l-9 3-8 6-17 13-12 9-11 7-8 7-13 9-15 11-13 10-12 8-13 10-18 13-11 8-10 8-17 12-14 10-16 12-11 8-6 3-7-1-8-4-12-7-7-4-10-7-4-3 1-4 11-7 13-10 9-7 10-7 18-13 12-9 13-9 14-11 14-10 17-12 8-7 11-7 10-8 9-6 16-12 9-7 28-20 18-13 1-1 1-229 4-9 7-8z" fill="#527182"/>
<path transform="translate(460,223)" d="m0 0h12l9 3 8 9 3 7 1 22v206l3 5 18 13 14 10 30 22 13 10 13 9 11 8 13 10 14 10 18 13 10 8 11 7 10 8 18 13 14 10 9 7 16 12 8 5-1 5-14 8-9 6-11 6-10 5-5-2-9-5-11-9-6-4-13-10-13-9-10-7-8-6-10-8-17-12-18-13-28-21-11-8-10-7-9-7-5-4-9-6-12-9-6-4-13-11-10-5-8-1h-351l-32-1-7-4-9-8-3-8v-10l4-10 5-5 11-7h373v-219l4-8 7-6z" fill="#527182"/>
<path transform="translate(826,770)" d="m0 0h7l11 4 7 6 7 14 10 27 10 25 10 26 7 19 11 27 6 17 8 19 7 19 8 20 4 13 1 8-2 9-6 9-5 4-9 4h-8l-9-4-6-5-6-10-11-27-7-21-3-6h-78l-5 8-7 16-7 18-8 16-4 5-8 5-6 2h-8l-9-5-9-8-2-5v-16l4-13 11-26 11-27 6-15 11-24 20-50 8-18 7-19 7-16 5-12 4-5 9-6z" fill="#FEFEFE"/>
<path transform="translate(985,772)" d="m0 0h11l11 4 7 7 3 6 1 5v221l-2 10-8 10-5 4-7 2h-8l-9-3-8-6-6-9-1-32v-197l3-9 8-8z" fill="#FEFEFE"/>
<path transform="translate(829,867)" d="m0 0 3 3 6 18 7 15 2 6v4h-36l1-4 8-21 5-13z" fill="#5A7CB7"/>
</svg>
