<svg width="286" height="170" viewBox="0 0 286 170" fill="none" xmlns="http://www.w3.org/2000/svg">
<g clip-path="url(#clip0_144_705)">
<path d="M80.6798 62.0233C80.6799 65.4793 81.0525 68.2817 81.705 70.3364C82.4505 72.3912 83.3826 74.6329 84.6877 77.0613C85.1535 77.8085 85.3398 78.5558 85.3398 79.2097C85.3399 80.1436 84.7807 81.0778 83.5691 82.0118L77.6978 85.9348C76.859 86.4954 76.0203 86.7757 75.2745 86.7758C74.3428 86.7758 73.4107 86.3085 72.4786 85.468C71.1739 84.0671 70.0552 82.5727 69.1234 81.0782C68.1913 79.4904 67.2592 77.7156 66.2341 75.5675C58.9647 84.1607 49.8314 88.4574 38.8338 88.4577C31.0052 88.4578 24.7608 86.2162 20.1939 81.7328C15.6271 77.2497 13.297 71.2717 13.2968 63.7995C13.2967 55.8604 16.0925 49.4154 21.7775 44.5581C27.4626 39.7012 35.0116 37.2723 44.6111 37.2721C47.7799 37.272 51.042 37.5523 54.4903 38.0191C57.9387 38.4864 61.4801 39.2332 65.208 40.0741L65.2079 33.2555C65.2077 26.1568 63.7167 21.2064 60.8275 18.3109C57.8449 15.4155 52.8123 14.0145 45.636 14.0147C42.3739 14.0148 39.0189 14.3884 35.5704 15.2291C32.122 16.0698 28.7669 17.0974 25.505 18.4051C24.0138 19.0589 22.8954 19.4326 22.243 19.6194C21.5906 19.8062 21.1247 19.8996 20.7519 19.8996C19.4471 19.8997 18.7947 18.9656 18.7946 17.0041L18.7945 12.4274C18.7945 10.9329 18.9808 9.81206 19.4468 9.15822C19.9128 8.50438 20.7516 7.85054 22.0564 7.19668C25.3183 5.51536 29.2326 4.11424 33.7993 2.99328C38.3661 1.77894 43.2124 1.21841 48.3383 1.21831C59.4288 1.21808 67.5373 3.73982 72.7566 8.78349C77.8826 13.8272 80.4923 21.4862 80.4926 31.7607L80.4932 62.0233L80.6798 62.0233ZM42.8411 76.2216C45.9169 76.2215 49.0856 75.6612 52.4407 74.5402C55.7957 73.4193 58.7782 71.3645 61.2944 68.562C62.7856 66.7875 63.9039 64.8261 64.463 62.5843C65.0222 60.3425 65.395 57.6338 65.3949 54.4581L65.3949 50.5352C62.6919 49.8814 59.8027 49.3212 56.8206 48.9476C53.8381 48.574 50.9489 48.3871 48.0597 48.3872C41.8155 48.3873 37.2488 49.6016 34.1731 52.1237C31.0976 54.6455 29.6065 58.1952 29.6066 62.8653C29.6067 67.2552 30.7252 70.5241 33.0552 72.7658C35.292 75.1008 38.5539 76.2217 42.8411 76.2216ZM117.68 86.3076C116.002 86.3076 114.884 86.0277 114.139 85.3738C113.393 84.8132 112.741 83.5057 112.181 81.7309L90.278 9.53038C89.7188 7.6623 89.4392 6.44807 89.4392 5.79424C89.4391 4.29977 90.1846 3.45913 91.6758 3.4591L100.809 3.45891C102.58 3.45888 103.792 3.73907 104.444 4.39288C105.19 4.95327 105.749 6.26092 106.308 8.03558L121.967 69.8686L136.505 8.03496C136.97 6.16689 137.53 4.9526 138.275 4.39218C139.021 3.83173 140.326 3.4581 142.003 3.45806L149.459 3.45791C151.23 3.45787 152.442 3.73806 153.187 4.39188C153.933 4.95227 154.585 6.25991 154.958 8.03458L169.685 70.6149L185.807 8.03394C186.366 6.16586 187.018 4.95158 187.671 4.39116C188.416 3.83071 189.628 3.45708 191.305 3.45704L199.973 3.45686C201.464 3.45683 202.303 4.20405 202.303 5.79191C202.303 6.25892 202.21 6.72594 202.117 7.28638C202.024 7.84679 201.837 8.59405 201.464 9.62147L179.005 81.8232C178.446 83.6913 177.793 84.9055 177.048 85.4658C176.302 86.0264 175.091 86.4001 173.506 86.4001L165.491 86.4003C163.72 86.4003 162.509 86.12 161.763 85.4661C161.018 84.8122 160.365 83.598 159.992 81.7299L145.545 21.4849L131.194 81.6371C130.728 83.5053 130.169 84.7195 129.423 85.3735C128.677 86.0274 127.373 86.3074 125.695 86.3074L117.68 86.3076ZM237.441 88.8272C232.595 88.8273 227.748 88.2668 223.088 87.1463C218.428 86.0256 214.793 84.8111 212.37 83.4103C210.879 82.5698 209.854 81.6355 209.481 80.795C209.108 79.9544 208.922 79.0202 208.922 78.1796L208.922 73.4161C208.922 71.4547 209.667 70.5204 211.065 70.5204C211.624 70.5204 212.184 70.614 212.743 70.8006C213.302 70.9876 214.141 71.3612 215.073 71.7348C218.241 73.1356 221.69 74.2564 225.325 75.0036C229.053 75.7508 232.687 76.1243 236.415 76.1242C242.287 76.1241 246.854 75.0965 250.022 73.0416C253.191 70.9868 254.869 67.9978 254.868 64.1682C254.868 61.5528 254.03 59.4047 252.352 57.6299C250.675 55.8555 247.506 54.2674 242.939 52.7733L229.425 48.5704C222.621 46.4221 217.589 43.2466 214.513 39.0434C211.437 34.9337 209.853 30.3569 209.853 25.4999C209.853 21.577 210.691 18.121 212.369 15.1321C214.046 12.1431 216.283 9.52778 219.079 7.47285C221.875 5.32449 225.044 3.73656 228.772 2.61564C232.5 1.49471 236.414 1.02762 240.515 1.02753C242.565 1.02749 244.708 1.12085 246.759 1.40101C248.903 1.68118 250.86 2.05476 252.817 2.42833C254.681 2.89531 256.451 3.36229 258.129 3.92269C259.807 4.48306 261.112 5.04348 262.044 5.60386C263.348 6.35109 264.28 7.09829 264.839 7.93892C265.399 8.68612 265.678 9.71357 265.678 11.0212L265.678 15.4112C265.678 17.3727 264.933 18.4001 263.535 18.4001C262.789 18.4002 261.578 18.0266 259.993 17.2794C254.681 14.851 248.716 13.6369 242.099 13.637C236.787 13.6371 232.593 14.4778 229.704 16.2526C226.815 18.0273 225.324 20.736 225.324 24.5656C225.324 27.1809 226.256 29.4226 228.12 31.1972C229.984 32.9718 233.432 34.7464 238.372 36.3342L251.606 40.5371C258.316 42.6851 263.163 45.674 266.052 49.5035C268.941 53.3331 270.339 57.7229 270.339 62.58C270.34 66.5962 269.501 70.2392 267.916 73.4149C266.239 76.5906 264.002 79.3926 261.113 81.6345C258.224 83.9696 254.776 85.6512 250.768 86.8655C246.574 88.1731 242.194 88.8271 237.441 88.8272Z" fill="white"/>
<path fill-rule="evenodd" clip-rule="evenodd" d="M255.051 133.908C224.389 156.605 179.841 168.655 141.536 168.656C87.8531 168.657 39.4826 148.763 2.94795 115.699C0.0587231 113.084 2.66822 109.534 6.11661 111.589C45.6336 134.565 94.3768 148.482 144.797 148.481C178.815 148.48 216.188 141.381 250.578 126.809C255.704 124.474 260.084 130.171 255.051 133.908Z" fill="white"/>
<path fill-rule="evenodd" clip-rule="evenodd" d="M267.821 119.336C263.907 114.292 241.912 116.908 231.94 118.122C228.957 118.496 228.491 115.881 231.194 113.919C248.715 101.589 277.514 105.138 280.869 109.248C284.224 113.451 279.938 142.313 263.535 156.137C261.019 158.285 258.596 157.165 259.714 154.362C263.442 145.115 271.736 124.286 267.821 119.336Z" fill="white"/>
</g>
<defs>
<clipPath id="clip0_144_705">
<rect width="285.044" height="170" fill="white" transform="matrix(1 0 4.13271e-05 1 0 0)"/>
</clipPath>
</defs>
</svg>
