<svg width="70" height="43" viewBox="0 0 70 43" fill="none" xmlns="http://www.w3.org/2000/svg">
<g clip-path="url(#clip0_194_383)">
<path d="M19.7269 15.6877C19.7269 16.5619 19.8182 17.2708 19.9781 17.7905C20.1607 18.3103 20.389 18.8773 20.7087 19.4916C20.8228 19.6806 20.8685 19.8696 20.8685 20.035C20.8685 20.2713 20.7315 20.5076 20.4347 20.7438L18.9963 21.7361C18.7908 21.8779 18.5853 21.9488 18.4026 21.9488C18.1744 21.9488 17.946 21.8306 17.7177 21.618C17.3981 21.2637 17.124 20.8856 16.8958 20.5076C16.6674 20.106 16.4391 19.657 16.188 19.1137C14.407 21.2873 12.1695 22.3741 9.47531 22.3741C7.55745 22.3741 6.0277 21.807 4.90893 20.6729C3.79016 19.5389 3.21936 18.0268 3.21936 16.1367C3.21936 14.1285 3.90432 12.4982 5.29708 11.2696C6.68983 10.0411 8.53922 9.42676 10.8909 9.42676C11.6672 9.42676 12.4664 9.49767 13.3111 9.61578C14.1559 9.73399 15.0235 9.92291 15.9368 10.1356V8.41087C15.9368 6.61526 15.5715 5.36306 14.8637 4.63064C14.1331 3.89823 12.9002 3.54383 11.1421 3.54383C10.343 3.54383 9.52103 3.63833 8.67621 3.85097C7.83143 4.06361 7.00948 4.32351 6.21035 4.65427C5.84504 4.81965 5.57106 4.91416 5.41124 4.96141C5.25141 5.00867 5.13725 5.03229 5.04593 5.03229C4.72627 5.03229 4.56645 4.79603 4.56645 4.29987V3.14219C4.56645 2.76416 4.61211 2.48064 4.72627 2.31526C4.84044 2.14987 5.04593 1.98449 5.36557 1.8191C6.16469 1.39383 7.12363 1.03944 8.2424 0.755919C9.36119 0.448776 10.5484 0.307018 11.8042 0.307018C14.5212 0.307018 16.5076 0.944931 17.7862 2.22075C19.0419 3.49658 19.6812 5.43394 19.6812 8.03284V15.6877H19.7269ZM10.4571 19.279C11.2106 19.279 11.9869 19.1373 12.8088 18.8537C13.6307 18.5702 14.3614 18.0505 14.9778 17.3416C15.3432 16.8928 15.6171 16.3966 15.7541 15.8296C15.8911 15.2625 15.9825 14.5773 15.9825 13.7741V12.7818C15.3203 12.6164 14.6125 12.4746 13.8819 12.3801C13.1513 12.2856 12.4435 12.2383 11.7357 12.2383C10.206 12.2383 9.08721 12.5455 8.33373 13.1834C7.58027 13.8213 7.21496 14.7191 7.21496 15.9005C7.21496 17.0109 7.48894 17.8377 8.05974 18.4048C8.60771 18.9955 9.40682 19.279 10.4571 19.279ZM28.7912 21.8306C28.3802 21.8306 28.1062 21.7598 27.9236 21.5944C27.741 21.4526 27.5811 21.1218 27.4441 20.6729L22.0786 2.40977C21.9416 1.93723 21.8731 1.6301 21.8731 1.46471C21.8731 1.08668 22.0557 0.874051 22.4211 0.874051H24.6586C25.0924 0.874051 25.3892 0.944931 25.5491 1.11032C25.7317 1.25207 25.8687 1.58284 26.0057 2.03174L29.8415 17.6724L33.4033 2.03174C33.5174 1.55922 33.6544 1.25207 33.8371 1.11032C34.0197 0.968554 34.3394 0.874051 34.7504 0.874051H36.5769C37.0107 0.874051 37.3076 0.944931 37.4902 1.11032C37.6728 1.25207 37.8327 1.58284 37.924 2.03174L41.5315 17.8614L45.4814 2.03174C45.6184 1.55922 45.7782 1.25207 45.938 1.11032C46.1207 0.968554 46.4175 0.874051 46.8285 0.874051H48.9519C49.3172 0.874051 49.5227 1.06306 49.5227 1.46471C49.5227 1.58284 49.4998 1.70097 49.477 1.84273C49.4542 1.98449 49.4085 2.17351 49.3172 2.43339L43.8147 20.6966C43.6777 21.1691 43.5178 21.4763 43.3352 21.618C43.1526 21.7598 42.8557 21.8543 42.4676 21.8543H40.504C40.0702 21.8543 39.7734 21.7834 39.5907 21.618C39.4081 21.4526 39.2483 21.1455 39.1569 20.6729L35.618 5.43394L32.1019 20.6493C31.9877 21.1218 31.8507 21.429 31.6681 21.5944C31.4854 21.7598 31.1657 21.8306 30.7548 21.8306H28.7912ZM58.1304 22.4686C56.9431 22.4686 55.7558 22.3268 54.6142 22.0433C53.4726 21.7598 52.5821 21.4526 51.9885 21.0982C51.6232 20.8856 51.3721 20.6493 51.2807 20.4367C51.1894 20.2241 51.1437 19.9877 51.1437 19.7751V18.5702C51.1437 18.0741 51.3264 17.8377 51.6688 17.8377C51.8059 17.8377 51.9429 17.8614 52.0799 17.9087C52.2169 17.956 52.4224 18.0505 52.6507 18.145C53.4269 18.4993 54.2717 18.7828 55.1622 18.9718C56.0755 19.1609 56.9659 19.2554 57.8792 19.2554C59.3176 19.2554 60.4364 18.9955 61.2127 18.4757C61.989 17.956 62.3999 17.1999 62.3999 16.2312C62.3999 15.5696 62.1944 15.0263 61.7835 14.5773C61.3725 14.1285 60.5962 13.7268 59.4774 13.3488L56.1668 12.2856C54.5 11.7422 53.2671 10.9389 52.5136 9.8757C51.7602 8.83614 51.3721 7.67845 51.3721 6.44987C51.3721 5.45757 51.5776 4.58339 51.9885 3.82735C52.3995 3.0713 52.9474 2.40977 53.6325 1.88999C54.3174 1.34658 55.0937 0.944931 56.007 0.661414C56.9203 0.377897 57.8792 0.259766 58.8838 0.259766C59.3861 0.259766 59.9112 0.283392 60.4135 0.35427C60.9387 0.42515 61.4181 0.519656 61.8976 0.614161C62.3543 0.732293 62.788 0.850425 63.1991 0.992186C63.61 1.13394 63.9296 1.2757 64.158 1.41746C64.4776 1.60647 64.7059 1.79548 64.8429 2.00812C64.9799 2.19713 65.0484 2.45702 65.0484 2.78778V3.89823C65.0484 4.39438 64.8658 4.65427 64.5233 4.65427C64.3406 4.65427 64.0438 4.55977 63.6557 4.37075C62.3543 3.75647 60.893 3.44932 59.2719 3.44932C57.9705 3.44932 56.9431 3.66196 56.2353 4.11087C55.5275 4.55977 55.1622 5.24493 55.1622 6.21361C55.1622 6.87515 55.3905 7.44219 55.8471 7.89109C56.3038 8.33999 57.1486 8.78889 58.3586 9.19054L61.6008 10.2537C63.2447 10.7971 64.432 11.5532 65.1398 12.5218C65.8476 13.4905 66.19 14.6009 66.19 15.8296C66.19 16.8455 65.9845 17.7669 65.5964 18.5702C65.1854 19.3735 64.6374 20.0823 63.9296 20.6493C63.2218 21.24 62.3771 21.6653 61.3953 21.9724C60.3679 22.3032 59.2948 22.4686 58.1304 22.4686Z" fill="white"/>
<path fill-rule="evenodd" clip-rule="evenodd" d="M62.4443 33.8718C54.9326 39.6129 44.0189 42.6608 34.635 42.6608C21.4837 42.6608 9.63392 37.6283 0.683765 29.2646C-0.0240273 28.6031 0.615269 27.7053 1.46005 28.225C11.1409 34.0371 23.082 37.5574 35.4341 37.5574C43.7678 37.5574 52.9234 35.7619 61.3484 32.0761C62.6042 31.4855 63.6773 32.9267 62.4443 33.8718Z" fill="white"/>
<path fill-rule="evenodd" clip-rule="evenodd" d="M65.5728 30.186C64.6139 28.9102 59.2255 29.5716 56.7825 29.8789C56.0519 29.9734 55.9377 29.3118 56.5998 28.8157C60.8923 25.697 67.9474 26.5948 68.7693 27.6344C69.5912 28.6975 68.5409 35.998 64.5225 39.4948C63.9061 40.0381 63.3125 39.7547 63.5865 39.0458C64.4997 36.7068 66.5318 31.4382 65.5728 30.186Z" fill="white"/>
</g>
<defs>
<clipPath id="clip0_194_383">
<rect width="70" height="43" fill="white"/>
</clipPath>
</defs>
</svg>
