<svg width="548" height="157" viewBox="0 0 548 157" fill="none" xmlns="http://www.w3.org/2000/svg">
<g clip-path="url(#clip0_144_718)">
<g clip-path="url(#clip1_144_718)">
<mask id="mask0_144_718" style="mask-type:luminance" maskUnits="userSpaceOnUse" x="21" y="-1" width="506" height="144">
<path d="M526.126 -0.010418L21.9989 0L22.0018 142.008L526.129 141.997L526.126 -0.010418Z" fill="white"/>
</mask>
<g mask="url(#mask0_144_718)">
<path d="M108.747 134.422C132.838 130.261 152.735 126.817 152.964 126.77L153.379 126.683L130.635 100.232C118.125 85.6841 107.891 73.7247 107.891 73.6555C107.891 73.5252 131.374 10.2899 131.506 10.0649C131.55 9.98968 147.533 36.9688 170.249 75.4641C191.517 111.504 209.05 141.219 209.213 141.498L209.51 142.004L137.228 141.996L64.9468 141.989L108.747 134.422ZM385.939 128.019C374.935 127.33 368.536 121.204 366.84 109.738C366.389 106.688 366.387 106.608 366.341 86.8061L366.296 67.6411L371.165 67.641L376.035 67.6409L376.074 86.1786C376.108 102.886 376.13 104.845 376.293 106.02C376.957 110.79 378.277 113.998 380.525 116.3C382.321 118.143 384.426 119.221 387.341 119.794C388.719 120.064 392.627 120.064 393.881 119.795C396.838 119.159 399.206 117.902 401.293 115.86C403.675 113.533 405.436 110.231 406.288 106.497L406.576 105.239L406.607 86.5443L406.639 67.8497L411.609 67.8496L416.583 67.8495L416.584 97.2377L416.584 126.626L411.664 126.626L406.743 126.626L406.743 121.964C406.743 118.795 406.707 117.312 406.633 117.337C406.569 117.357 406.317 117.735 406.068 118.177C404.375 121.2 401.549 123.965 398.453 125.631C394.743 127.628 391.023 128.338 385.939 128.019ZM497.617 127.969C493.733 127.684 489.644 126.379 486.299 124.357C479.256 120.096 475.088 113.072 473.866 103.407C473.444 100.062 473.394 95.5693 473.745 92.727C474.533 86.3768 477.082 80.1426 480.717 75.6916C481.651 74.5509 483.763 72.4843 484.931 71.5733C488.08 69.1133 491.765 67.3932 495.681 66.556C497.96 66.0685 501.976 65.8394 504.397 66.0588C510.482 66.61 516.059 69.4113 519.851 73.8206C523.7 78.3001 525.819 84.5594 526.089 92.2676C526.132 93.4754 526.143 95.5931 526.111 96.9738L526.057 99.4837L504.746 99.5108L483.434 99.5375L483.434 100.467C483.434 103.298 484.137 106.523 485.355 109.266C486.402 111.632 488.209 114.215 489.69 115.465C492.721 118.028 496.431 119.562 500.493 119.931C501.998 120.068 505.836 119.924 507.554 119.666C512.45 118.93 517.104 117.052 520.864 114.297C521.304 113.973 521.726 113.67 521.805 113.624C521.915 113.556 521.939 114.404 521.936 117.964L521.933 122.388L520.924 122.997C516.675 125.568 511.8 127.22 506.646 127.838C505.105 128.022 499.456 128.105 497.617 127.969ZM516.163 90.6578C516.163 85.9158 514.118 80.6481 511.228 77.9358C509.162 76.0003 506.669 74.817 503.701 74.368C502.299 74.1554 499.342 74.2375 497.861 74.5297C494.734 75.1478 492.145 76.4923 489.891 78.6722C487.516 80.9667 485.734 83.7533 484.616 86.9283C484.215 88.07 483.742 89.9445 483.597 90.9872L483.526 91.4839L499.846 91.4836L516.163 91.4832L516.163 90.6578ZM227.069 126.499C227.094 126.427 234.331 107.837 243.151 85.188L259.187 44.0079L264.34 44.0078L269.493 44.0073L269.92 45.0791C271.227 48.3552 302.027 126.539 302.027 126.58C302.027 126.606 299.56 126.628 296.545 126.627L291.063 126.626L286.624 115.071L282.185 103.515L264.312 103.516L246.439 103.516L246.283 103.908C246.198 104.124 244.302 109.323 242.069 115.463L238.011 126.626L232.517 126.627C228.169 126.629 227.033 126.602 227.069 126.499ZM278.923 94.6972C278.923 94.6787 275.935 86.7604 272.284 77.1008C265.453 59.0294 265.071 57.9423 264.531 55.0407C264.278 53.6803 264.15 53.6427 264 54.8842C263.892 55.7714 263.427 57.757 263.068 58.8583C262.89 59.4047 259.814 67.6593 256.233 77.2019C252.652 86.7446 249.722 94.5923 249.722 94.6413C249.722 94.6907 256.292 94.7306 264.322 94.7305C272.352 94.7303 278.923 94.7153 278.923 94.6972ZM305.343 125.123L305.343 123.618L323.149 99.6825L340.956 75.7471L324.833 75.6949L308.711 75.643L308.683 71.6427L308.655 67.6423L331.974 67.6418L355.292 67.6413L355.292 68.9925L355.292 70.3437L337.484 94.4098C327.689 107.646 319.675 118.498 319.675 118.525C319.675 118.553 327.593 118.574 337.271 118.574L354.866 118.574L354.866 122.6L354.866 126.627L330.104 126.628L305.343 126.628L305.343 125.123ZM436.014 126.555C435.975 126.517 435.943 113.245 435.943 97.063L435.942 67.6397L440.81 67.6396L445.673 67.6395L445.673 73.7053C445.673 77.0418 445.716 79.7712 445.766 79.7712C445.819 79.7712 446.053 79.2252 446.295 78.5577C447.388 75.4992 449.284 72.6413 451.73 70.3698C453.931 68.3234 456.448 67.1 459.42 66.6316C460.254 66.4999 460.96 66.4747 462.629 66.5173C464.724 66.5705 465.821 66.7203 467.095 67.1278L467.496 67.2559L467.496 72.1953L467.497 77.1347L466.346 76.5717C464.316 75.5777 462.31 75.1843 459.903 75.3069C458.333 75.3868 457.304 75.5835 456.051 76.0436C453.47 76.9902 451.379 78.6606 449.916 80.9409C447.8 84.2423 446.291 88.4855 445.848 92.3854C445.766 93.0855 445.72 98.7853 445.703 110.022L445.674 126.625L440.878 126.625C438.244 126.625 436.053 126.594 436.014 126.555ZM22.0015 126.357C22.0015 126.32 32.7179 108.13 45.8157 85.9348L69.6299 45.5799L97.3828 22.8062C112.647 10.2806 125.177 0.0171 125.227 -0.00161876C125.278 -0.0203338 125.077 0.47383 124.781 1.09653C124.486 1.71922 110.925 30.1609 94.6461 64.3L65.0483 126.371L43.5249 126.398C31.687 126.413 22.0015 126.395 22.0015 126.357Z" fill="white"/>
</g>
</g>
</g>
<defs>
<clipPath id="clip0_144_718">
<rect width="547.714" height="157" fill="white" transform="matrix(1 0 4.13271e-05 1 0 0)"/>
</clipPath>
<clipPath id="clip1_144_718">
<rect width="504.127" height="142.008" fill="white" transform="translate(21.9989)"/>
</clipPath>
</defs>
</svg>
