<svg width="161" height="43" viewBox="0 0 161 43" fill="none" xmlns="http://www.w3.org/2000/svg">
<g clip-path="url(#clip0_194_392)">
<mask id="mask0_194_392" style="mask-type:luminance" maskUnits="userSpaceOnUse" x="0" y="0" width="161" height="43">
<path d="M161 0H0V43H161V0Z" fill="white"/>
</mask>
<g mask="url(#mask0_194_392)">
<path d="M27.7035 40.7036C35.3971 39.4437 41.7515 38.401 41.8245 38.3867L41.9573 38.3606L34.6937 30.351C30.6987 25.9458 27.4302 22.3244 27.4302 22.3035C27.4302 22.264 34.9304 3.11646 34.9726 3.04833C34.9867 3.02557 40.0908 11.1949 47.3452 22.8515C54.137 33.7646 59.7366 42.7624 59.7886 42.8467L59.8833 43L36.7992 42.9972L13.715 42.9945L27.7035 40.7036ZM116.228 38.7665C112.714 38.5577 110.671 36.7028 110.129 33.2307C109.985 32.3072 109.984 32.2832 109.97 26.2871L109.956 20.4839H111.511H113.066L113.078 26.0971C113.089 31.1561 113.096 31.7493 113.148 32.1052C113.36 33.5495 113.782 34.5208 114.499 35.218C115.073 35.7759 115.745 36.1026 116.676 36.276C117.116 36.3578 118.364 36.3579 118.765 36.2763C119.709 36.0838 120.465 35.7031 121.132 35.0849C121.893 34.3801 122.455 33.3804 122.727 32.2498L122.819 31.8687L122.829 26.2081L122.84 20.5473H124.427H126.015V29.4461V38.3448H124.444H122.872V36.933C122.872 35.9737 122.861 35.5247 122.837 35.5321C122.817 35.5381 122.736 35.6525 122.657 35.7864C122.116 36.7019 121.214 37.5391 120.225 38.0435C119.04 38.6482 117.852 38.8631 116.228 38.7665ZM151.894 38.7521C150.654 38.6657 149.348 38.2704 148.28 37.6582C146.03 36.368 144.699 34.2412 144.309 31.3144C144.174 30.3017 144.158 28.9413 144.271 28.0806C144.522 26.1578 145.337 24.2701 146.498 22.9223C146.796 22.5769 147.47 21.9512 147.843 21.6753C148.849 20.9305 150.026 20.4096 151.277 20.1561C152.004 20.0085 153.287 19.9392 154.06 20.0056C156.003 20.1726 157.785 21.0209 158.995 22.356C160.224 23.7125 160.901 25.6078 160.988 27.9418C161.001 28.3075 161.005 28.9488 160.994 29.3669L160.977 30.1269L154.171 30.1349L147.365 30.1429V30.4244C147.365 31.2816 147.589 32.258 147.978 33.0886C148.313 33.805 148.89 34.5872 149.363 34.9657C150.331 35.7418 151.516 36.2063 152.813 36.3181C153.294 36.3596 154.519 36.316 155.068 36.2379C156.631 36.0152 158.118 35.4466 159.319 34.6122C159.459 34.5141 159.594 34.4224 159.619 34.4084C159.654 34.3881 159.662 34.6446 159.661 35.7227L159.66 37.0622L159.338 37.2466C157.981 38.0252 156.424 38.5252 154.778 38.7124C154.286 38.7683 152.482 38.7932 151.894 38.7521ZM157.817 27.4543C157.817 26.0184 157.164 24.4234 156.241 23.6021C155.582 23.016 154.786 22.6577 153.838 22.5217C153.39 22.4573 152.445 22.4821 151.973 22.5706C150.974 22.7577 150.147 23.1649 149.427 23.8249C148.669 24.5197 148.1 25.3634 147.742 26.3248C147.614 26.6705 147.464 27.2381 147.417 27.5539L147.394 27.7043H152.606H157.817V27.4543ZM65.4912 38.3052C65.4992 38.2834 67.8105 32.6544 70.6273 25.7963L75.749 13.3271H77.3946L79.0402 13.327L79.1767 13.6515C79.594 14.6435 89.4299 38.3177 89.4299 38.3301C89.4299 38.3382 88.6422 38.3447 87.6792 38.3445L85.9285 38.3442L84.5109 34.8452L83.0933 31.3461H77.3853L71.6773 31.346L71.6277 31.4648C71.6004 31.5301 70.9948 33.1045 70.2817 34.9636L68.9854 38.3436L67.2311 38.3442C65.8424 38.3446 65.4797 38.3365 65.4912 38.3052ZM82.0515 28.6759C82.0515 28.6704 81.0974 26.2727 79.9314 23.3477C77.7501 17.8756 77.628 17.5465 77.4556 16.6679C77.3748 16.2559 77.334 16.2445 77.286 16.6205C77.2517 16.8891 77.103 17.4904 76.9884 17.8238C76.9315 17.9893 75.9491 20.4887 74.8054 23.3782C73.6617 26.2677 72.7259 28.644 72.7259 28.6589C72.7259 28.6738 74.8241 28.6859 77.3886 28.6859C79.9532 28.6859 82.0515 28.6814 82.0515 28.6759ZM90.4889 37.889V37.4333L96.1758 30.1858L101.863 22.9382L96.7138 22.9223L91.5649 22.9065L91.5559 21.6952L91.547 20.4839H98.9943H106.441V20.8931V21.3022L100.754 28.5893C97.6256 32.5972 95.0663 35.8831 95.0663 35.8913C95.0663 35.8996 97.5949 35.9063 100.686 35.9063H106.305V37.1256V38.3448H98.3968H90.4889V37.889ZM132.221 38.3236C132.208 38.312 132.198 34.2934 132.198 29.3933V20.4839H133.752H135.306V22.3207C135.306 23.3309 135.319 24.1574 135.335 24.1574C135.352 24.1574 135.427 23.9921 135.504 23.79C135.853 22.8639 136.459 21.9985 137.24 21.3107C137.943 20.6911 138.747 20.3206 139.696 20.1788C139.962 20.1389 140.188 20.1313 140.721 20.1442C141.39 20.1603 141.74 20.2057 142.147 20.3291L142.275 20.3679V21.8636V23.3592L141.908 23.1887C141.259 22.8877 140.619 22.7686 139.85 22.8057C139.349 22.8299 139.02 22.8894 138.62 23.0288C137.796 23.3154 137.128 23.8211 136.661 24.5116C135.985 25.5113 135.503 26.7961 135.361 27.977C135.335 28.189 135.321 29.9149 135.315 33.3175L135.306 38.3448H133.774C132.933 38.3448 132.233 38.3353 132.221 38.3236ZM0 38.2611C0 38.2498 3.42254 32.7419 7.60564 26.0212L15.2113 13.8019L24.0747 6.9062C28.9497 3.11354 32.9514 0.00582352 32.9674 0.000155788C32.9835 -0.00551082 32.9193 0.144121 32.825 0.332672C32.7305 0.521222 28.3995 9.13328 23.2004 19.4705L13.7476 38.2656L6.87379 38.2735C3.09321 38.278 0 38.2724 0 38.2611Z" fill="white"/>
</g>
</g>
<defs>
<clipPath id="clip0_194_392">
<rect width="161" height="43" fill="white"/>
</clipPath>
</defs>
</svg>
