<svg width="315" height="315" viewBox="0 0 315 315" fill="none" xmlns="http://www.w3.org/2000/svg">
<g clip-path="url(#clip0_263_322)">
<path d="M197.546 157.505C208.892 157.505 218.089 148.307 218.089 136.962C218.089 125.616 208.892 116.418 197.546 116.418C186.2 116.418 177.003 125.616 177.003 136.962C177.003 148.307 186.2 157.505 197.546 157.505Z" fill="url(#paint0_linear_263_322)"/>
<path d="M153.978 180.536C154.632 181.167 155.154 181.923 155.513 182.758C155.872 183.594 156.06 184.492 156.068 185.402C156.076 186.311 155.903 187.213 155.559 188.054C155.214 188.896 154.706 189.66 154.063 190.303C153.42 190.946 152.655 191.455 151.814 191.799C150.972 192.143 150.071 192.317 149.161 192.309C148.252 192.301 147.354 192.112 146.518 191.753C145.683 191.394 144.927 190.872 144.295 190.218C130.17 176.092 122.234 156.934 122.234 136.957C122.234 116.98 130.17 97.8211 144.295 83.695C144.927 83.041 145.683 82.5193 146.518 82.1604C147.354 81.8016 148.252 81.6127 149.161 81.6048C150.071 81.5968 150.972 81.7701 151.814 82.1144C152.655 82.4587 153.42 82.9672 154.063 83.6101C154.706 84.2531 155.214 85.0177 155.559 85.8592C155.903 86.7008 156.076 87.6025 156.068 88.5117C156.06 89.421 155.872 90.3195 155.513 91.155C155.154 91.9904 154.632 92.746 153.978 93.3777C148.255 99.1006 143.715 105.895 140.618 113.372C137.521 120.849 135.927 128.863 135.927 136.957C135.927 145.05 137.521 153.064 140.618 160.541C143.715 168.019 148.255 174.813 153.978 180.536ZM250.819 190.218C249.527 191.466 247.797 192.156 246.002 192.14C244.207 192.125 242.489 191.405 241.219 190.135C239.95 188.865 239.23 187.148 239.214 185.352C239.198 183.557 239.889 181.827 241.136 180.536C246.859 174.813 251.399 168.019 254.496 160.541C257.593 153.064 259.187 145.05 259.187 136.957C259.187 128.863 257.593 120.849 254.496 113.372C251.399 105.895 246.859 99.1006 241.136 93.3777C240.482 92.746 239.96 91.9904 239.601 91.155C239.243 90.3195 239.054 89.421 239.046 88.5117C239.038 87.6025 239.211 86.7008 239.555 85.8592C239.9 85.0177 240.408 84.2531 241.051 83.6101C241.694 82.9672 242.459 82.4587 243.3 82.1144C244.142 81.7701 245.044 81.5968 245.953 81.6048C246.862 81.6127 247.761 81.8016 248.596 82.1604C249.431 82.5193 250.187 83.041 250.819 83.695C264.944 97.8211 272.88 116.98 272.88 136.957C272.88 156.934 264.944 176.092 250.819 190.218Z" fill="url(#paint1_linear_263_322)"/>
<path d="M115.372 315.002H206.098L204.393 170.515C212.706 168.818 220.093 164.095 225.122 157.261C230.151 150.426 232.463 141.969 231.61 133.527C230.757 125.085 226.8 117.26 220.506 111.57C214.212 105.88 206.03 102.729 197.545 102.729C189.06 102.729 180.877 105.88 174.583 111.57C168.289 117.26 164.332 125.085 163.48 133.527C162.627 141.969 164.939 150.426 169.968 157.261C174.996 164.095 182.384 168.818 190.697 170.515V239.677C190.674 259.647 182.73 278.793 168.609 292.914C154.488 307.035 135.342 314.979 115.372 315.002Z" fill="url(#paint2_linear_263_322)"/>
<g filter="url(#filter0_bi_263_322)">
<path d="M238.637 315C242.269 315 245.753 313.557 248.321 310.989C250.889 308.42 252.332 304.937 252.332 301.305V246.338C275.69 228.838 292.841 204.327 301.278 176.387C309.715 148.446 308.997 118.54 299.229 91.0364C289.461 63.533 271.154 39.8736 246.983 23.5144C222.812 7.15517 194.044 -1.04667 164.88 0.106978C90.7668 2.90085 33.2048 66.1534 33.2048 140.321V149.223L9.05966 203.526C7.63042 206.746 7.49684 210.392 8.68668 213.708C9.87652 217.024 12.2983 219.753 15.4486 221.33L33.2048 230.211V280.761C33.2048 289.842 36.812 298.551 43.233 304.972C49.654 311.393 58.3628 315 67.4434 315H238.637Z" fill="url(#paint3_linear_263_322)" fill-opacity="0.2"/>
<path d="M251.859 246.101L252.049 245.959C275.326 228.52 292.417 204.094 300.825 176.25C309.233 148.406 308.518 118.603 298.783 91.1947C289.049 63.7864 270.805 40.2087 246.718 23.9061C222.631 7.60341 193.961 -0.570084 164.899 0.579581L164.898 0.579616C91.0538 3.36334 33.6777 66.3923 33.6777 140.321V149.223V149.324L33.6369 149.415L9.49196 203.718L251.859 246.101ZM251.859 246.101V246.338M251.859 246.101V246.338M251.859 246.338V301.305C251.859 304.811 250.466 308.175 247.986 310.654C245.507 313.134 242.144 314.527 238.637 314.527H67.4434C58.4882 314.527 49.8998 310.97 43.5675 304.637C37.2352 298.305 33.6777 289.717 33.6777 280.761V230.211V229.919M251.859 246.338L33.6777 229.919M33.6777 229.919L33.4164 229.788M33.6777 229.919L33.4164 229.788M33.4164 229.788L15.6602 220.907C12.6187 219.385 10.2806 216.749 9.13186 213.548C7.98315 210.347 8.11207 206.826 9.49184 203.718L33.4164 229.788Z" stroke="url(#paint4_linear_263_322)" stroke-opacity="0.1" stroke-width="0.945946"/>
</g>
<g filter="url(#filter1_i_263_322)">
<path d="M153.981 180.533C154.635 181.165 155.157 181.92 155.516 182.756C155.874 183.591 156.063 184.49 156.071 185.399C156.079 186.308 155.906 187.21 155.562 188.051C155.217 188.893 154.709 189.657 154.066 190.3C153.423 190.943 152.658 191.452 151.817 191.796C150.975 192.14 150.074 192.314 149.164 192.306C148.255 192.298 147.357 192.109 146.521 191.75C145.686 191.391 144.93 190.87 144.298 190.216C130.173 176.089 122.237 156.931 122.237 136.954C122.237 116.977 130.173 97.8183 144.298 83.6922C144.93 83.0382 145.686 82.5165 146.521 82.1576C147.357 81.7987 148.255 81.6098 149.164 81.6019C150.074 81.594 150.975 81.7673 151.817 82.1116C152.658 82.4559 153.423 82.9644 154.066 83.6073C154.709 84.2503 155.217 85.0149 155.562 85.8564C155.906 86.698 156.079 87.5997 156.071 88.5089C156.063 89.4182 155.874 90.3167 155.516 91.1522C155.157 91.9876 154.635 92.7432 153.981 93.3749C148.258 99.0978 143.718 105.892 140.621 113.369C137.524 120.846 135.93 128.861 135.93 136.954C135.93 145.047 137.524 153.061 140.621 160.539C143.718 168.016 148.258 174.81 153.981 180.533ZM250.822 190.216C249.53 191.463 247.8 192.153 246.005 192.138C244.21 192.122 242.492 191.402 241.222 190.132C239.953 188.863 239.233 187.145 239.217 185.35C239.201 183.554 239.892 181.824 241.139 180.533C246.862 174.81 251.402 168.016 254.499 160.539C257.596 153.061 259.19 145.047 259.19 136.954C259.19 128.861 257.596 120.846 254.499 113.369C251.402 105.892 246.862 99.0978 241.139 93.3749C240.485 92.7432 239.963 91.9876 239.604 91.1522C239.246 90.3167 239.057 89.4182 239.049 88.5089C239.041 87.5997 239.214 86.698 239.558 85.8564C239.903 85.0149 240.411 84.2503 241.054 83.6073C241.697 82.9644 242.462 82.4559 243.303 82.1116C244.145 81.7673 245.046 81.594 245.956 81.6019C246.865 81.6098 247.763 81.7987 248.599 82.1576C249.434 82.5165 250.19 83.0382 250.822 83.6922C264.947 97.8183 272.883 116.977 272.883 136.954C272.883 156.931 264.947 176.089 250.822 190.216Z" fill="white" fill-opacity="0.16"/>
</g>
<g filter="url(#filter2_i_263_322)">
<path d="M115.368 315.004H206.094L204.389 170.517C212.702 168.82 220.089 164.096 225.118 157.262C230.147 150.428 232.459 141.97 231.606 133.529C230.753 125.087 226.796 117.262 220.502 111.572C214.208 105.882 206.026 102.731 197.541 102.731C189.056 102.731 180.873 105.882 174.579 111.572C168.285 117.262 164.328 125.087 163.476 133.529C162.623 141.97 164.935 150.428 169.964 157.262C174.993 164.096 182.38 168.82 190.693 170.517V239.679C190.67 259.649 182.726 278.795 168.605 292.916C154.484 307.037 135.338 314.98 115.368 315.004Z" fill="white" fill-opacity="0.16"/>
</g>
</g>
<defs>
<filter id="filter0_bi_263_322" x="-3.46951" y="-11.3514" width="321.94" height="337.703" filterUnits="userSpaceOnUse" color-interpolation-filters="sRGB">
<feFlood flood-opacity="0" result="BackgroundImageFix"/>
<feGaussianBlur in="BackgroundImageFix" stdDeviation="5.67568"/>
<feComposite in2="SourceAlpha" operator="in" result="effect1_backgroundBlur_263_322"/>
<feBlend mode="normal" in="SourceGraphic" in2="effect1_backgroundBlur_263_322" result="shape"/>
<feColorMatrix in="SourceAlpha" type="matrix" values="0 0 0 0 0 0 0 0 0 0 0 0 0 0 0 0 0 0 127 0" result="hardAlpha"/>
<feOffset dy="1.89189"/>
<feGaussianBlur stdDeviation="3.78378"/>
<feComposite in2="hardAlpha" operator="arithmetic" k2="-1" k3="1"/>
<feColorMatrix type="matrix" values="0 0 0 0 1 0 0 0 0 1 0 0 0 0 1 0 0 0 0.4 0"/>
<feBlend mode="normal" in2="shape" result="effect2_innerShadow_263_322"/>
</filter>
<filter id="filter1_i_263_322" x="122.237" y="81.6017" width="150.646" height="112.596" filterUnits="userSpaceOnUse" color-interpolation-filters="sRGB">
<feFlood flood-opacity="0" result="BackgroundImageFix"/>
<feBlend mode="normal" in="SourceGraphic" in2="BackgroundImageFix" result="shape"/>
<feColorMatrix in="SourceAlpha" type="matrix" values="0 0 0 0 0 0 0 0 0 0 0 0 0 0 0 0 0 0 127 0" result="hardAlpha"/>
<feOffset dy="1.89189"/>
<feGaussianBlur stdDeviation="0.945946"/>
<feComposite in2="hardAlpha" operator="arithmetic" k2="-1" k3="1"/>
<feColorMatrix type="matrix" values="0 0 0 0 1 0 0 0 0 1 0 0 0 0 1 0 0 0 0.4 0"/>
<feBlend mode="normal" in2="shape" result="effect1_innerShadow_263_322"/>
</filter>
<filter id="filter2_i_263_322" x="115.368" y="102.731" width="116.412" height="214.165" filterUnits="userSpaceOnUse" color-interpolation-filters="sRGB">
<feFlood flood-opacity="0" result="BackgroundImageFix"/>
<feBlend mode="normal" in="SourceGraphic" in2="BackgroundImageFix" result="shape"/>
<feColorMatrix in="SourceAlpha" type="matrix" values="0 0 0 0 0 0 0 0 0 0 0 0 0 0 0 0 0 0 127 0" result="hardAlpha"/>
<feOffset dy="1.89189"/>
<feGaussianBlur stdDeviation="0.945946"/>
<feComposite in2="hardAlpha" operator="arithmetic" k2="-1" k3="1"/>
<feColorMatrix type="matrix" values="0 0 0 0 1 0 0 0 0 1 0 0 0 0 1 0 0 0 0.4 0"/>
<feBlend mode="normal" in2="shape" result="effect1_innerShadow_263_322"/>
</filter>
<linearGradient id="paint0_linear_263_322" x1="177.003" y1="116.418" x2="225.401" y2="128.708" gradientUnits="userSpaceOnUse">
<stop stop-color="#75A5FF"/>
<stop offset="0.703125" stop-color="#5A807C"/>
</linearGradient>
<linearGradient id="paint1_linear_263_322" x1="122.234" y1="81.6045" x2="290.984" y2="139.913" gradientUnits="userSpaceOnUse">
<stop stop-color="#75A5FF"/>
<stop offset="0.703125" stop-color="#5A807C"/>
</linearGradient>
<linearGradient id="paint2_linear_263_322" x1="115.372" y1="102.729" x2="258.566" y2="122.669" gradientUnits="userSpaceOnUse">
<stop stop-color="#75A5FF"/>
<stop offset="0.703125" stop-color="#5A807C"/>
</linearGradient>
<linearGradient id="paint3_linear_263_322" x1="7.88184" y1="0" x2="362.471" y2="85.5313" gradientUnits="userSpaceOnUse">
<stop stop-color="#83E9FF"/>
<stop offset="0.453125" stop-color="#85A0FF"/>
</linearGradient>
<linearGradient id="paint4_linear_263_322" x1="17.233" y1="14.3182" x2="307.12" y2="14.3182" gradientUnits="userSpaceOnUse">
<stop stop-color="#3CDEB6"/>
<stop offset="0.65625" stop-color="#364AFF"/>
</linearGradient>
<clipPath id="clip0_263_322">
<rect width="315" height="315" fill="white"/>
</clipPath>
</defs>
</svg>
