<svg width="256" height="315" viewBox="0 0 256 315" fill="none" xmlns="http://www.w3.org/2000/svg">
<g clip-path="url(#clip0_109_380)">
<path d="M197.546 157.504C208.892 157.504 218.089 148.307 218.089 136.961C218.089 125.615 208.892 116.418 197.546 116.418C186.2 116.418 177.003 125.615 177.003 136.961C177.003 148.307 186.2 157.504 197.546 157.504Z" fill="url(#paint0_linear_109_380)"/>
<path d="M153.979 180.536C154.633 181.167 155.154 181.923 155.513 182.758C155.872 183.594 156.061 184.492 156.069 185.402C156.077 186.311 155.903 187.213 155.559 188.054C155.215 188.896 154.706 189.66 154.063 190.303C153.42 190.946 152.656 191.455 151.814 191.799C150.973 192.143 150.071 192.317 149.162 192.309C148.253 192.301 147.354 192.112 146.519 191.753C145.683 191.394 144.928 190.872 144.296 190.218C130.17 176.092 122.235 156.934 122.235 136.957C122.235 116.98 130.17 97.8211 144.296 83.695C144.928 83.041 145.683 82.5193 146.519 82.1604C147.354 81.8016 148.253 81.6127 149.162 81.6048C150.071 81.5968 150.973 81.7701 151.814 82.1144C152.656 82.4587 153.42 82.9672 154.063 83.6101C154.706 84.2531 155.215 85.0177 155.559 85.8592C155.903 86.7008 156.077 87.6025 156.069 88.5117C156.061 89.421 155.872 90.3195 155.513 91.155C155.154 91.9904 154.633 92.746 153.979 93.3777C148.256 99.1006 143.716 105.895 140.619 113.372C137.522 120.849 135.927 128.863 135.927 136.957C135.927 145.05 137.522 153.064 140.619 160.541C143.716 168.019 148.256 174.813 153.979 180.536ZM250.819 190.218C249.528 191.466 247.798 192.156 246.003 192.14C244.207 192.125 242.49 191.405 241.22 190.135C239.95 188.865 239.23 187.148 239.215 185.352C239.199 183.557 239.889 181.827 241.137 180.536C246.859 174.813 251.399 168.019 254.496 160.541C257.594 153.064 259.188 145.05 259.188 136.957C259.188 128.863 257.594 120.849 254.496 113.372C251.399 105.895 246.859 99.1006 241.137 93.3777C240.482 92.746 239.961 91.9904 239.602 91.155C239.243 90.3195 239.054 89.421 239.046 88.5117C239.038 87.6025 239.212 86.7008 239.556 85.8592C239.9 85.0177 240.409 84.2531 241.052 83.6101C241.695 82.9672 242.459 82.4587 243.301 82.1144C244.142 81.7701 245.044 81.5968 245.953 81.6048C246.862 81.6127 247.761 81.8016 248.596 82.1604C249.432 82.5193 250.188 83.041 250.819 83.695C264.945 97.8211 272.88 116.98 272.88 136.957C272.88 156.934 264.945 176.092 250.819 190.218Z" fill="url(#paint1_linear_109_380)"/>
<path d="M115.373 315.002H206.099L204.394 170.515C212.707 168.818 220.094 164.094 225.123 157.26C230.152 150.426 232.464 141.969 231.611 133.527C230.758 125.085 226.801 117.26 220.507 111.57C214.213 105.88 206.031 102.729 197.546 102.729C189.061 102.729 180.878 105.88 174.584 111.57C168.29 117.26 164.333 125.085 163.481 133.527C162.628 141.969 164.94 150.426 169.969 157.26C174.997 164.094 182.385 168.818 190.698 170.515V239.677C190.675 259.647 182.731 278.793 168.61 292.914C154.489 307.035 135.343 314.978 115.373 315.002Z" fill="url(#paint2_linear_109_380)"/>
<g filter="url(#filter0_bi_109_380)">
<path d="M238.638 315C242.27 315 245.753 313.557 248.322 310.989C250.89 308.42 252.333 304.937 252.333 301.305V246.338C275.691 228.838 292.841 204.327 301.278 176.387C309.716 148.446 308.998 118.54 299.23 91.0364C289.461 63.533 271.155 39.8736 246.984 23.5144C222.813 7.15517 194.044 -1.04667 164.881 0.106978C90.7675 2.90085 33.2055 66.1534 33.2055 140.321V149.223L9.06039 203.526C7.63116 206.746 7.49758 210.392 8.68741 213.708C9.87725 217.024 12.299 219.753 15.4493 221.33L33.2055 230.211V280.761C33.2055 289.842 36.8128 298.551 43.2338 304.972C49.6548 311.393 58.3635 315 67.4442 315H238.638Z" fill="url(#paint3_linear_109_380)" fill-opacity="0.2"/>
<path d="M251.86 246.101L252.049 245.959C275.327 228.52 292.418 204.094 300.826 176.25C309.234 148.406 308.518 118.603 298.784 91.1947C289.049 63.7864 270.806 40.2087 246.719 23.9061C222.631 7.60341 193.962 -0.570084 164.899 0.579581L164.898 0.579616C91.0545 3.36334 33.6785 66.3923 33.6785 140.321V149.223V149.324L33.6377 149.415L9.49269 203.718L251.86 246.101ZM251.86 246.101V246.338M251.86 246.101V246.338M251.86 246.338V301.305C251.86 304.811 250.467 308.175 247.987 310.654C245.508 313.134 242.144 314.527 238.637 314.527H67.4442C58.4889 314.527 49.9005 310.97 43.5682 304.637C37.2359 298.305 33.6785 289.717 33.6785 280.761V230.211V229.919M251.86 246.338L33.6785 229.919M33.6785 229.919L33.4171 229.788M33.6785 229.919L33.4171 229.788M33.4171 229.788L15.661 220.907C12.6194 219.385 10.2813 216.749 9.13259 213.548C7.98388 210.347 8.11281 206.826 9.49257 203.718L33.4171 229.788Z" stroke="url(#paint4_linear_109_380)" stroke-opacity="0.1" stroke-width="0.945946"/>
</g>
<g filter="url(#filter1_i_109_380)">
<path d="M153.983 180.533C154.637 181.165 155.159 181.92 155.518 182.756C155.877 183.591 156.066 184.49 156.073 185.399C156.081 186.308 155.908 187.21 155.564 188.051C155.219 188.893 154.711 189.658 154.068 190.301C153.425 190.944 152.661 191.452 151.819 191.796C150.977 192.141 150.076 192.314 149.166 192.306C148.257 192.298 147.359 192.109 146.523 191.75C145.688 191.391 144.932 190.87 144.301 190.216C130.175 176.09 122.24 156.931 122.24 136.954C122.24 116.977 130.175 97.8184 144.301 83.6923C144.932 83.0383 145.688 82.5166 146.523 82.1578C147.359 81.7989 148.257 81.61 149.166 81.6021C150.076 81.5942 150.977 81.7674 151.819 82.1117C152.661 82.456 153.425 82.9645 154.068 83.6075C154.711 84.2504 155.219 85.015 155.564 85.8565C155.908 86.6981 156.081 87.5998 156.073 88.509C156.066 89.4183 155.877 90.3168 155.518 91.1523C155.159 91.9877 154.637 92.7433 153.983 93.375C148.26 99.0979 143.721 105.892 140.623 113.369C137.526 120.847 135.932 128.861 135.932 136.954C135.932 145.047 137.526 153.062 140.623 160.539C143.721 168.016 148.26 174.81 153.983 180.533ZM250.824 190.216C249.532 191.463 247.803 192.153 246.007 192.138C244.212 192.122 242.494 191.402 241.225 190.132C239.955 188.863 239.235 187.145 239.219 185.35C239.204 183.554 239.894 181.824 241.141 180.533C246.864 174.81 251.404 168.016 254.501 160.539C257.598 153.062 259.192 145.047 259.192 136.954C259.192 128.861 257.598 120.847 254.501 113.369C251.404 105.892 246.864 99.0979 241.141 93.375C240.487 92.7433 239.965 91.9877 239.607 91.1523C239.248 90.3168 239.059 89.4183 239.051 88.509C239.043 87.5998 239.216 86.6981 239.561 85.8565C239.905 85.015 240.413 84.2504 241.056 83.6075C241.699 82.9645 242.464 82.456 243.305 82.1117C244.147 81.7674 245.049 81.5942 245.958 81.6021C246.867 81.61 247.766 81.7989 248.601 82.1578C249.437 82.5166 250.192 83.0383 250.824 83.6923C264.949 97.8184 272.885 116.977 272.885 136.954C272.885 156.931 264.949 176.09 250.824 190.216Z" fill="white" fill-opacity="0.16"/>
</g>
<g filter="url(#filter2_i_109_380)">
<path d="M115.369 315.004H206.095L204.39 170.517C212.703 168.82 220.091 164.096 225.119 157.262C230.148 150.428 232.46 141.97 231.607 133.529C230.755 125.087 226.798 117.262 220.504 111.572C214.21 105.882 206.027 102.731 197.542 102.731C189.057 102.731 180.875 105.882 174.581 111.572C168.287 117.262 164.33 125.087 163.477 133.529C162.624 141.97 164.936 150.428 169.965 157.262C174.994 164.096 182.381 168.82 190.694 170.517V239.679C190.671 259.649 182.727 278.795 168.606 292.916C154.485 307.037 135.34 314.98 115.369 315.004Z" fill="white" fill-opacity="0.16"/>
</g>
</g>
<defs>
<filter id="filter0_bi_109_380" x="-3.46878" y="-11.3514" width="321.941" height="337.703" filterUnits="userSpaceOnUse" color-interpolation-filters="sRGB">
<feFlood flood-opacity="0" result="BackgroundImageFix"/>
<feGaussianBlur in="BackgroundImageFix" stdDeviation="5.67568"/>
<feComposite in2="SourceAlpha" operator="in" result="effect1_backgroundBlur_109_380"/>
<feBlend mode="normal" in="SourceGraphic" in2="effect1_backgroundBlur_109_380" result="shape"/>
<feColorMatrix in="SourceAlpha" type="matrix" values="0 0 0 0 0 0 0 0 0 0 0 0 0 0 0 0 0 0 127 0" result="hardAlpha"/>
<feOffset dy="1.89189"/>
<feGaussianBlur stdDeviation="3.78378"/>
<feComposite in2="hardAlpha" operator="arithmetic" k2="-1" k3="1"/>
<feColorMatrix type="matrix" values="0 0 0 0 1 0 0 0 0 1 0 0 0 0 1 0 0 0 0.4 0"/>
<feBlend mode="normal" in2="shape" result="effect2_innerShadow_109_380"/>
</filter>
<filter id="filter1_i_109_380" x="122.24" y="81.6018" width="150.645" height="112.596" filterUnits="userSpaceOnUse" color-interpolation-filters="sRGB">
<feFlood flood-opacity="0" result="BackgroundImageFix"/>
<feBlend mode="normal" in="SourceGraphic" in2="BackgroundImageFix" result="shape"/>
<feColorMatrix in="SourceAlpha" type="matrix" values="0 0 0 0 0 0 0 0 0 0 0 0 0 0 0 0 0 0 127 0" result="hardAlpha"/>
<feOffset dy="1.89189"/>
<feGaussianBlur stdDeviation="0.945946"/>
<feComposite in2="hardAlpha" operator="arithmetic" k2="-1" k3="1"/>
<feColorMatrix type="matrix" values="0 0 0 0 1 0 0 0 0 1 0 0 0 0 1 0 0 0 0.4 0"/>
<feBlend mode="normal" in2="shape" result="effect1_innerShadow_109_380"/>
</filter>
<filter id="filter2_i_109_380" x="115.369" y="102.731" width="116.412" height="214.165" filterUnits="userSpaceOnUse" color-interpolation-filters="sRGB">
<feFlood flood-opacity="0" result="BackgroundImageFix"/>
<feBlend mode="normal" in="SourceGraphic" in2="BackgroundImageFix" result="shape"/>
<feColorMatrix in="SourceAlpha" type="matrix" values="0 0 0 0 0 0 0 0 0 0 0 0 0 0 0 0 0 0 127 0" result="hardAlpha"/>
<feOffset dy="1.89189"/>
<feGaussianBlur stdDeviation="0.945946"/>
<feComposite in2="hardAlpha" operator="arithmetic" k2="-1" k3="1"/>
<feColorMatrix type="matrix" values="0 0 0 0 1 0 0 0 0 1 0 0 0 0 1 0 0 0 0.4 0"/>
<feBlend mode="normal" in2="shape" result="effect1_innerShadow_109_380"/>
</filter>
<linearGradient id="paint0_linear_109_380" x1="177.003" y1="116.418" x2="225.401" y2="128.707" gradientUnits="userSpaceOnUse">
<stop stop-color="#75A5FF"/>
<stop offset="0.703125" stop-color="#5A807C"/>
</linearGradient>
<linearGradient id="paint1_linear_109_380" x1="122.235" y1="81.6045" x2="290.985" y2="139.913" gradientUnits="userSpaceOnUse">
<stop stop-color="#75A5FF"/>
<stop offset="0.703125" stop-color="#5A807C"/>
</linearGradient>
<linearGradient id="paint2_linear_109_380" x1="115.373" y1="102.729" x2="258.567" y2="122.669" gradientUnits="userSpaceOnUse">
<stop stop-color="#75A5FF"/>
<stop offset="0.703125" stop-color="#5A807C"/>
</linearGradient>
<linearGradient id="paint3_linear_109_380" x1="7.88257" y1="0" x2="362.471" y2="85.5313" gradientUnits="userSpaceOnUse">
<stop stop-color="#83E9FF"/>
<stop offset="0.453125" stop-color="#85A0FF"/>
</linearGradient>
<linearGradient id="paint4_linear_109_380" x1="17.2338" y1="14.3182" x2="307.12" y2="14.3182" gradientUnits="userSpaceOnUse">
<stop stop-color="#3CDEB6"/>
<stop offset="0.65625" stop-color="#364AFF"/>
</linearGradient>
<clipPath id="clip0_109_380">
<rect width="315" height="315" fill="white"/>
</clipPath>
</defs>
</svg>
