<svg width="363" height="315" viewBox="0 0 363 315" fill="none" xmlns="http://www.w3.org/2000/svg">
<path d="M354.276 8.27209H8.69287V228.189H354.276V8.27209Z" fill="url(#paint0_linear_263_577)"/>
<path d="M228.614 234.785H134.364V314.584H228.614V234.785Z" fill="url(#paint1_linear_263_577)"/>
<g filter="url(#filter0_bi_263_577)">
<path d="M275.745 291.021H87.2448C82.9069 291.021 79.3906 294.537 79.3906 298.875V306.729C79.3906 311.067 82.9069 314.583 87.2448 314.583H275.745C280.083 314.583 283.599 311.067 283.599 306.729V298.875C283.599 294.537 280.083 291.021 275.745 291.021Z" fill="url(#paint2_linear_263_577)" fill-opacity="0.2"/>
<path d="M87.2448 293.042H275.745C278.967 293.042 281.578 295.653 281.578 298.875V306.729C281.578 309.951 278.967 312.563 275.745 312.563H87.2448C84.023 312.563 81.4115 309.951 81.4115 306.729V298.875C81.4115 295.653 84.023 293.042 87.2448 293.042Z" stroke="url(#paint3_linear_263_577)" stroke-opacity="0.1" stroke-width="4.04167"/>
</g>
<g filter="url(#filter1_bi_263_577)">
<path d="M346.117 14.5458H16.8555V221.914H346.117V14.5458Z" fill="url(#paint4_linear_263_577)" fill-opacity="0.2"/>
</g>
<g filter="url(#filter2_bi_263_577)">
<path d="M346.43 267.459H16.555C7.87616 267.459 0.84668 260.43 0.84668 251.751V16.1259C0.84668 7.44708 7.87616 0.417603 16.555 0.417603H346.43C355.109 0.417603 362.138 7.44708 362.138 16.1259V251.751C362.138 260.43 355.109 267.459 346.43 267.459ZM16.555 23.9801V212.48C16.555 216.816 20.0737 220.334 24.4092 220.334H338.576C342.911 220.334 346.43 216.816 346.43 212.48V23.9801C346.43 19.6446 342.911 16.1259 338.576 16.1259H24.4092C20.0737 16.1259 16.555 19.6446 16.555 23.9801Z" fill="url(#paint5_linear_263_577)" fill-opacity="0.2"/>
<path d="M346.43 265.438H16.555C8.99223 265.438 2.86751 259.314 2.86751 251.751V16.1259C2.86751 8.56316 8.99223 2.43844 16.555 2.43844H346.43C353.993 2.43844 360.117 8.56316 360.117 16.1259V251.751C360.117 259.314 353.993 265.438 346.43 265.438ZM14.5342 23.9801V212.48C14.5342 217.932 18.9576 222.355 24.4092 222.355H338.576C344.027 222.355 348.451 217.932 348.451 212.48V23.9801C348.451 18.5285 344.027 14.1051 338.576 14.1051H24.4092C18.9576 14.1051 14.5342 18.5285 14.5342 23.9801Z" stroke="url(#paint6_linear_263_577)" stroke-opacity="0.1" stroke-width="4.04167"/>
</g>
<g filter="url(#filter3_i_263_577)">
<path d="M153.326 130.687L115.681 93.0418L147.773 60.9497C150.829 57.8708 150.805 52.8913 147.718 49.8439C146.415 48.5558 144.702 47.7547 142.872 47.5976L48.6224 39.7435C44.3026 39.3665 40.4933 42.571 40.1242 46.8908C40.0849 47.3228 40.0849 47.7625 40.1242 48.1945L47.9783 142.445C48.3553 146.764 52.1568 149.969 56.4844 149.592C58.3144 149.435 60.0266 148.641 61.3304 147.346L93.4226 115.253L131.068 152.898C137.312 158.923 147.255 158.75 153.279 152.514C159.162 146.427 159.162 136.774 153.279 130.687H153.334H153.326Z" fill="white" fill-opacity="0.16"/>
</g>
<defs>
<filter id="filter0_bi_263_577" x="30.8906" y="242.521" width="301.209" height="120.563" filterUnits="userSpaceOnUse" color-interpolation-filters="sRGB">
<feFlood flood-opacity="0" result="BackgroundImageFix"/>
<feGaussianBlur in="BackgroundImageFix" stdDeviation="24.25"/>
<feComposite in2="SourceAlpha" operator="in" result="effect1_backgroundBlur_263_577"/>
<feBlend mode="normal" in="SourceGraphic" in2="effect1_backgroundBlur_263_577" result="shape"/>
<feColorMatrix in="SourceAlpha" type="matrix" values="0 0 0 0 0 0 0 0 0 0 0 0 0 0 0 0 0 0 127 0" result="hardAlpha"/>
<feOffset dy="8.08333"/>
<feGaussianBlur stdDeviation="16.1667"/>
<feComposite in2="hardAlpha" operator="arithmetic" k2="-1" k3="1"/>
<feColorMatrix type="matrix" values="0 0 0 0 1 0 0 0 0 1 0 0 0 0 1 0 0 0 0.4 0"/>
<feBlend mode="normal" in2="shape" result="effect2_innerShadow_263_577"/>
</filter>
<filter id="filter1_bi_263_577" x="-31.6445" y="-33.9542" width="426.261" height="304.368" filterUnits="userSpaceOnUse" color-interpolation-filters="sRGB">
<feFlood flood-opacity="0" result="BackgroundImageFix"/>
<feGaussianBlur in="BackgroundImageFix" stdDeviation="24.25"/>
<feComposite in2="SourceAlpha" operator="in" result="effect1_backgroundBlur_263_577"/>
<feBlend mode="normal" in="SourceGraphic" in2="effect1_backgroundBlur_263_577" result="shape"/>
<feColorMatrix in="SourceAlpha" type="matrix" values="0 0 0 0 0 0 0 0 0 0 0 0 0 0 0 0 0 0 127 0" result="hardAlpha"/>
<feOffset dy="8.08333"/>
<feGaussianBlur stdDeviation="16.1667"/>
<feComposite in2="hardAlpha" operator="arithmetic" k2="-1" k3="1"/>
<feColorMatrix type="matrix" values="0 0 0 0 1 0 0 0 0 1 0 0 0 0 1 0 0 0 0.4 0"/>
<feBlend mode="normal" in2="shape" result="effect2_innerShadow_263_577"/>
</filter>
<filter id="filter2_bi_263_577" x="-47.6533" y="-48.0824" width="458.292" height="364.042" filterUnits="userSpaceOnUse" color-interpolation-filters="sRGB">
<feFlood flood-opacity="0" result="BackgroundImageFix"/>
<feGaussianBlur in="BackgroundImageFix" stdDeviation="24.25"/>
<feComposite in2="SourceAlpha" operator="in" result="effect1_backgroundBlur_263_577"/>
<feBlend mode="normal" in="SourceGraphic" in2="effect1_backgroundBlur_263_577" result="shape"/>
<feColorMatrix in="SourceAlpha" type="matrix" values="0 0 0 0 0 0 0 0 0 0 0 0 0 0 0 0 0 0 127 0" result="hardAlpha"/>
<feOffset dy="8.08333"/>
<feGaussianBlur stdDeviation="16.1667"/>
<feComposite in2="hardAlpha" operator="arithmetic" k2="-1" k3="1"/>
<feColorMatrix type="matrix" values="0 0 0 0 1 0 0 0 0 1 0 0 0 0 1 0 0 0 0.4 0"/>
<feBlend mode="normal" in2="shape" result="effect2_innerShadow_263_577"/>
</filter>
<filter id="filter3_i_263_577" x="40.0947" y="39.7134" width="117.597" height="125.676" filterUnits="userSpaceOnUse" color-interpolation-filters="sRGB">
<feFlood flood-opacity="0" result="BackgroundImageFix"/>
<feBlend mode="normal" in="SourceGraphic" in2="BackgroundImageFix" result="shape"/>
<feColorMatrix in="SourceAlpha" type="matrix" values="0 0 0 0 0 0 0 0 0 0 0 0 0 0 0 0 0 0 127 0" result="hardAlpha"/>
<feOffset dy="8.08333"/>
<feGaussianBlur stdDeviation="4.04167"/>
<feComposite in2="hardAlpha" operator="arithmetic" k2="-1" k3="1"/>
<feColorMatrix type="matrix" values="0 0 0 0 1 0 0 0 0 1 0 0 0 0 1 0 0 0 0.4 0"/>
<feBlend mode="normal" in2="shape" result="effect1_innerShadow_263_577"/>
</filter>
<linearGradient id="paint0_linear_263_577" x1="8.69287" y1="8.27209" x2="382.51" y2="157.431" gradientUnits="userSpaceOnUse">
<stop stop-color="#75A5FF"/>
<stop offset="0.703125" stop-color="#5A807C"/>
</linearGradient>
<linearGradient id="paint1_linear_263_577" x1="134.364" y1="234.785" x2="242.793" y2="267.303" gradientUnits="userSpaceOnUse">
<stop stop-color="#75A5FF"/>
<stop offset="0.703125" stop-color="#5A807C"/>
</linearGradient>
<linearGradient id="paint2_linear_263_577" x1="79.3906" y1="291.021" x2="123.216" y2="387.464" gradientUnits="userSpaceOnUse">
<stop stop-color="#83E9FF"/>
<stop offset="0.453125" stop-color="#85A0FF"/>
</linearGradient>
<linearGradient id="paint3_linear_263_577" x1="85.7721" y1="292.092" x2="283.599" y2="292.092" gradientUnits="userSpaceOnUse">
<stop stop-color="#3CDEB6"/>
<stop offset="0.65625" stop-color="#364AFF"/>
</linearGradient>
<linearGradient id="paint4_linear_263_577" x1="16.8555" y1="14.5458" x2="371.995" y2="157.729" gradientUnits="userSpaceOnUse">
<stop stop-color="#83E9FF"/>
<stop offset="0.453125" stop-color="#85A0FF"/>
</linearGradient>
<linearGradient id="paint5_linear_263_577" x1="0.84668" y1="0.417603" x2="406.055" y2="139.622" gradientUnits="userSpaceOnUse">
<stop stop-color="#83E9FF"/>
<stop offset="0.453125" stop-color="#85A0FF"/>
</linearGradient>
<linearGradient id="paint6_linear_263_577" x1="12.137" y1="12.5559" x2="362.138" y2="12.5559" gradientUnits="userSpaceOnUse">
<stop stop-color="#3CDEB6"/>
<stop offset="0.65625" stop-color="#364AFF"/>
</linearGradient>
</defs>
</svg>
