<svg width="320" height="320" viewBox="0 0 320 320" fill="none" xmlns="http://www.w3.org/2000/svg">
<g clip-path="url(#clip0_263_314)">
<path d="M237.138 203.814C235.702 203.811 234.299 203.383 233.106 202.583C231.913 201.784 230.983 200.649 230.434 199.323C229.885 197.996 229.741 196.536 230.02 195.127C230.3 193.719 230.99 192.424 232.003 191.407C241.459 181.953 248.959 170.729 254.076 158.376C259.193 146.023 261.827 132.783 261.827 119.412C261.827 106.041 259.193 92.8006 254.076 80.4475C248.959 68.0944 241.459 56.8703 232.003 47.416C231.309 46.7452 230.755 45.9427 230.374 45.0555C229.992 44.1682 229.792 43.2139 229.783 42.2483C229.775 41.2827 229.959 40.3251 230.325 39.4314C230.69 38.5376 231.23 37.7257 231.913 37.0428C232.596 36.36 233.408 35.82 234.302 35.4544C235.195 35.0887 236.153 34.9047 237.119 34.9131C238.084 34.9215 239.039 35.1221 239.926 35.5033C240.813 35.8844 241.616 36.4384 242.286 37.133C264.104 58.9537 276.361 88.5473 276.361 119.404C276.361 150.262 264.104 179.855 242.286 201.676C241.613 202.356 240.811 202.895 239.927 203.262C239.043 203.629 238.095 203.817 237.138 203.814Z" fill="url(#paint0_linear_263_314)"/>
<path d="M82.863 203.817C81.9076 203.819 80.9612 203.632 80.0787 203.266C79.1961 202.901 78.3949 202.363 77.7214 201.686C55.9035 179.865 43.6465 150.272 43.6465 119.414C43.6465 88.5571 55.9035 58.9635 77.7214 37.1428C78.3854 36.4215 79.1883 35.8418 80.0819 35.4387C80.9756 35.0356 81.9415 34.8173 82.9217 34.797C83.9018 34.7767 84.876 34.9547 85.7856 35.3205C86.6951 35.6863 87.5214 36.2322 88.2146 36.9254C88.9078 37.6186 89.4537 38.4449 89.8195 39.3545C90.1853 40.264 90.3634 41.2382 90.343 42.2183C90.3227 43.1985 90.1045 44.1644 89.7013 45.0581C89.2982 45.9517 88.7185 46.7547 87.9972 47.4186C78.542 56.8728 71.0416 68.097 65.9244 80.4501C60.8072 92.8032 58.1734 106.043 58.1734 119.414C58.1734 132.785 60.8072 146.025 65.9244 158.379C71.0416 170.732 78.542 181.956 87.9972 191.41C89.0139 192.427 89.7063 193.723 89.9868 195.133C90.2673 196.544 90.1232 198.006 89.5729 199.334C89.0226 200.663 88.0908 201.799 86.8951 202.598C85.6995 203.397 84.2938 203.824 82.8557 203.824L82.863 203.817Z" fill="url(#paint1_linear_263_314)"/>
<g filter="url(#filter0_bi_263_314)">
<path d="M267.993 234.681C266.555 234.68 265.15 234.254 263.954 233.455C262.758 232.656 261.826 231.52 261.276 230.191C260.726 228.863 260.582 227.401 260.862 225.99C261.143 224.58 261.835 223.284 262.852 222.267C276.36 208.761 287.075 192.726 294.385 175.079C301.696 157.431 305.458 138.517 305.458 119.415C305.458 100.313 301.696 81.3984 294.385 63.751C287.075 46.1035 276.36 30.0689 262.852 16.5627C261.527 15.1912 260.794 13.3542 260.811 11.4474C260.827 9.54061 261.592 7.71663 262.94 6.36829C264.289 5.01995 266.113 4.25513 268.02 4.23856C269.926 4.22199 271.763 4.95499 273.135 6.2797C287.993 21.1364 299.779 38.7742 307.82 58.186C315.861 77.5978 320 98.4035 320 119.415C320 140.426 315.861 161.232 307.82 180.644C299.779 200.055 287.993 217.693 273.135 232.55C271.771 233.914 269.922 234.68 267.993 234.681Z" fill="url(#paint2_linear_263_314)" fill-opacity="0.2"/>
<path d="M271.765 231.18L271.765 231.18C286.443 216.503 298.086 199.079 306.03 179.902C313.974 160.725 318.062 140.172 318.062 119.415C318.062 98.6579 313.974 78.1042 306.03 58.9275C298.089 39.7563 286.45 22.3366 271.778 7.66255C270.773 6.69757 269.43 6.16387 268.036 6.17598C266.638 6.18814 265.3 6.74919 264.311 7.73831C263.321 8.72742 262.76 10.0655 262.748 11.4642C262.736 12.8578 263.27 14.2006 264.235 15.2055C277.916 28.8889 288.77 45.1325 296.175 63.0095C303.583 80.892 307.396 100.059 307.396 119.415C307.396 138.771 303.583 157.938 296.175 175.82C288.767 193.703 277.91 209.951 264.222 223.637C263.476 224.383 262.968 225.333 262.763 226.368C262.557 227.403 262.663 228.475 263.066 229.45C263.47 230.424 264.153 231.258 265.031 231.844C265.907 232.43 266.938 232.743 267.993 232.743L271.765 231.18ZM271.765 231.18C270.765 232.18 269.408 232.743 267.994 232.743L271.765 231.18Z" stroke="url(#paint3_linear_263_314)" stroke-opacity="0.1" stroke-width="3.875"/>
</g>
<g filter="url(#filter1_bi_263_314)">
<path d="M52.0064 234.681C50.0778 234.68 48.2284 233.914 46.8649 232.55C32.007 217.693 20.2209 200.055 12.1798 180.644C4.13872 161.232 0 140.426 0 119.415C0 98.4035 4.13872 77.5978 12.1798 58.186C20.2209 38.7742 32.007 21.1364 46.8649 6.2797C48.2364 4.95499 50.0734 4.22199 51.9802 4.23856C53.887 4.25513 55.711 5.01995 57.0593 6.36829C58.4077 7.71663 59.1725 9.54061 59.1891 11.4474C59.2056 13.3542 58.4726 15.1912 57.1479 16.5627C43.6401 30.0689 32.9251 46.1035 25.6146 63.751C18.3041 81.3984 14.5415 100.313 14.5415 119.415C14.5415 138.517 18.3041 157.431 25.6146 175.079C32.9251 192.726 43.6401 208.761 57.1479 222.267C58.1646 223.284 58.857 224.58 59.1375 225.99C59.418 227.401 59.2739 228.863 58.7237 230.191C58.1734 231.52 57.2415 232.656 56.0458 233.455C54.8502 234.254 53.4445 234.68 52.0064 234.681Z" fill="url(#paint4_linear_263_314)" fill-opacity="0.2"/>
<path d="M48.2348 231.18L48.2351 231.18C49.2351 232.18 50.5915 232.743 52.006 232.743L48.2348 231.18ZM48.2348 231.18C33.5569 216.503 21.9136 199.079 13.9698 179.902M48.2348 231.18L13.9698 179.902M13.9698 179.902C6.0261 160.725 1.9375 140.172 1.9375 119.415M13.9698 179.902L1.9375 119.415M1.9375 119.415C1.9375 98.6579 6.0261 78.1042 13.9698 58.9275M1.9375 119.415L13.9698 58.9275M13.9698 58.9275C21.9113 39.7563 33.5501 22.3367 48.222 7.66258M13.9698 58.9275L48.222 7.66258M48.222 7.66258C49.227 6.69758 50.5698 6.16387 51.9634 6.17598C53.3621 6.18814 54.7002 6.74919 55.6893 7.73831C56.6784 8.72743 57.2395 10.0655 57.2516 11.4642C57.2637 12.8578 56.73 14.2006 55.7651 15.2055C42.0834 28.8889 31.2301 45.1325 23.8246 63.0095C16.4168 80.892 12.604 100.059 12.604 119.415C12.604 138.771 16.4168 157.938 23.8246 175.82C31.2324 193.703 42.0902 209.951 55.7778 223.637M48.222 7.66258L55.7778 223.637M55.7778 223.637C55.7778 223.637 55.7777 223.637 55.7777 223.637C55.7776 223.637 55.7779 223.637 55.7778 223.637Z" stroke="url(#paint5_linear_263_314)" stroke-opacity="0.1" stroke-width="3.875"/>
</g>
<g filter="url(#filter2_bi_263_314)">
<path d="M237.13 203.818C235.694 203.815 234.291 203.386 233.098 202.587C231.905 201.788 230.975 200.653 230.426 199.326C229.877 197.999 229.733 196.54 230.012 195.131C230.292 193.723 230.982 192.428 231.996 191.411C241.451 181.957 248.951 170.733 254.068 158.38C259.186 146.027 261.819 132.786 261.819 119.415C261.819 106.044 259.186 92.8043 254.068 80.4512C248.951 68.0981 241.451 56.8739 231.996 47.4197C231.301 46.7488 230.747 45.9464 230.366 45.0591C229.985 44.1719 229.784 43.2176 229.776 42.252C229.767 41.2864 229.951 40.3288 230.317 39.435C230.683 38.5413 231.223 37.7293 231.905 37.0465C232.588 36.3637 233.4 35.8237 234.294 35.458C235.188 35.0924 236.145 34.9084 237.111 34.9168C238.076 34.9252 239.031 35.1258 239.918 35.5069C240.805 35.8881 241.608 36.4421 242.279 37.1366C264.097 58.9574 276.354 88.5509 276.354 119.408C276.354 150.265 264.097 179.859 242.279 201.68C241.605 202.359 240.803 202.899 239.919 203.266C239.035 203.633 238.087 203.82 237.13 203.818Z" fill="url(#paint6_linear_263_314)" fill-opacity="0.2"/>
<path d="M237.135 201.88H237.134C236.081 201.878 235.052 201.564 234.176 200.977C233.301 200.391 232.619 199.559 232.216 198.585C231.814 197.612 231.708 196.541 231.913 195.508C232.118 194.475 232.623 193.527 233.366 192.781C243.001 183.147 250.644 171.709 255.858 159.121C261.073 146.533 263.757 133.041 263.757 119.415C263.757 105.79 261.073 92.2979 255.858 79.7097C250.644 67.1215 243.001 55.6838 233.365 46.0496L233.354 46.0377L233.342 46.0261C232.832 45.5339 232.426 44.9453 232.146 44.2944C231.866 43.6435 231.719 42.9435 231.713 42.2352C231.707 41.5268 231.842 40.8243 232.11 40.1687C232.378 39.5131 232.775 38.9174 233.275 38.4165C233.776 37.9156 234.372 37.5195 235.028 37.2513C235.683 36.983 236.386 36.848 237.094 36.8542C237.802 36.8604 238.502 37.0075 239.153 37.2871C239.804 37.5667 240.393 37.9731 240.885 38.4827L240.897 38.4947L240.908 38.5066C262.363 59.9639 274.416 89.0648 274.416 119.408C274.416 149.752 262.363 178.852 240.908 200.31L240.902 200.316C240.409 200.813 239.823 201.208 239.176 201.476C238.529 201.745 237.835 201.882 237.135 201.88Z" stroke="url(#paint7_linear_263_314)" stroke-opacity="0.1" stroke-width="3.875"/>
</g>
<g filter="url(#filter3_bi_263_314)">
<path d="M82.8708 203.817C81.9154 203.819 80.969 203.632 80.0865 203.266C79.2039 202.901 78.4027 202.363 77.7292 201.686C55.9113 179.865 43.6543 150.272 43.6543 119.414C43.6543 88.5571 55.9113 58.9635 77.7292 37.1428C78.3932 36.4215 79.1961 35.8418 80.0897 35.4387C80.9834 35.0356 81.9493 34.8173 82.9295 34.797C83.9096 34.7767 84.8838 34.9547 85.7934 35.3205C86.7029 35.6863 87.5292 36.2322 88.2224 36.9254C88.9156 37.6186 89.4615 38.4449 89.8273 39.3545C90.1931 40.264 90.3712 41.2382 90.3508 42.2183C90.3305 43.1985 90.1123 44.1644 89.7091 45.0581C89.306 45.9517 88.7263 46.7547 88.005 47.4186C78.5498 56.8728 71.0494 68.097 65.9322 80.4501C60.815 92.8032 58.1812 106.043 58.1812 119.414C58.1812 132.785 60.815 146.025 65.9322 158.379C71.0494 170.732 78.5498 181.956 88.005 191.41C89.0217 192.427 89.7141 193.723 89.9946 195.133C90.2751 196.544 90.131 198.006 89.5807 199.334C89.0305 200.663 88.0986 201.799 86.9029 202.598C85.7073 203.397 84.3016 203.824 82.8635 203.824L82.8708 203.817Z" fill="url(#paint8_linear_263_314)" fill-opacity="0.2"/>
<path d="M85.8263 200.987C85.0303 201.519 84.1073 201.826 83.1549 201.878L82.8655 201.879C82.1665 201.881 81.474 201.744 80.8283 201.477C80.1825 201.209 79.5962 200.816 79.1035 200.32L79.0994 200.316C57.6447 178.859 45.5918 149.758 45.5918 119.414C45.5918 89.0709 57.6447 59.9701 79.0994 38.5127L79.1277 38.4844L79.1548 38.4549C79.6419 37.9258 80.2309 37.5005 80.8864 37.2048C81.542 36.9091 82.2506 36.749 82.9696 36.7341C83.6886 36.7192 84.4032 36.8498 85.0705 37.1181C85.7377 37.3864 86.3438 37.7869 86.8524 38.2954C87.3609 38.804 87.7614 39.4101 88.0297 40.0773C88.298 40.7446 88.4287 41.4592 88.4138 42.1782C88.3989 42.8972 88.2387 43.6058 87.943 44.2614C87.6473 44.917 87.2221 45.506 86.6929 45.993L86.6634 46.0201L86.6351 46.0485C76.9999 55.6827 69.3568 67.1204 64.1422 79.7086C58.9277 92.2968 56.2437 105.789 56.2437 119.414C56.2437 133.04 58.9277 146.532 64.1422 159.12C69.3567 171.708 76.9997 183.146 86.6348 192.78C87.3806 193.526 87.8885 194.476 88.0943 195.511C88.3 196.546 88.1944 197.618 87.7907 198.593C87.387 199.568 86.7034 200.401 85.8263 200.987Z" stroke="url(#paint9_linear_263_314)" stroke-opacity="0.1" stroke-width="3.875"/>
</g>
<path d="M218.188 301.217H167.282V147.466C174.137 145.696 180.112 141.486 184.085 135.626C188.059 129.766 189.759 122.658 188.867 115.635C187.975 108.611 184.552 102.154 179.239 97.4735C173.927 92.7931 167.09 90.2109 160.01 90.2109C152.93 90.2109 146.093 92.7931 140.78 97.4735C135.468 102.154 132.045 108.611 131.152 115.635C130.26 122.658 131.96 129.766 135.934 135.626C139.908 141.486 145.882 145.696 152.737 147.466V301.217H101.831C99.9026 301.217 98.0529 301.983 96.6891 303.347C95.3253 304.71 94.5591 306.56 94.5591 308.489C94.5591 310.418 95.3253 312.267 96.6891 313.631C98.0529 314.995 99.9026 315.761 101.831 315.761H218.188C220.117 315.761 221.967 314.995 223.33 313.631C224.694 312.267 225.46 310.418 225.46 308.489C225.46 306.56 224.694 304.71 223.33 303.347C221.967 301.983 220.117 301.217 218.188 301.217Z" fill="url(#paint10_linear_263_314)"/>
<path d="M113.727 172.965C112.772 172.967 111.826 172.78 110.943 172.415C110.06 172.049 109.259 171.512 108.586 170.834C94.9478 157.196 87.2861 138.699 87.2861 119.412C87.2861 100.125 94.9478 81.6273 108.586 67.9892C109.257 67.2946 110.059 66.7406 110.946 66.3595C111.834 65.9783 112.788 65.7777 113.753 65.7693C114.719 65.7609 115.677 65.9449 116.57 66.3106C117.464 66.6762 118.276 67.2162 118.959 67.899C119.642 68.5819 120.182 69.3938 120.547 70.2876C120.913 71.1813 121.097 72.1389 121.089 73.1045C121.08 74.0701 120.88 75.0244 120.498 75.9117C120.117 76.7989 119.563 77.6014 118.869 78.2722C113.466 83.6746 109.18 90.0883 106.256 97.147C103.333 104.206 101.828 111.771 101.828 119.412C101.828 127.052 103.333 134.617 106.256 141.676C109.18 148.735 113.466 155.149 118.869 160.551C119.885 161.568 120.578 162.864 120.858 164.274C121.139 165.685 120.995 167.147 120.444 168.475C119.894 169.804 118.962 170.94 117.767 171.739C116.571 172.538 115.165 172.964 113.727 172.965Z" fill="url(#paint11_linear_263_314)"/>
<path d="M206.288 172.965C204.85 172.964 203.445 172.538 202.249 171.739C201.053 170.94 200.121 169.804 199.571 168.475C199.021 167.147 198.877 165.685 199.157 164.274C199.438 162.864 200.13 161.568 201.147 160.551C206.55 155.149 210.835 148.735 213.759 141.676C216.683 134.617 218.188 127.052 218.188 119.412C218.188 111.771 216.683 104.206 213.759 97.147C210.835 90.0883 206.55 83.6746 201.147 78.2722C200.452 77.6014 199.898 76.7989 199.517 75.9117C199.136 75.0244 198.935 74.0701 198.927 73.1045C198.919 72.1389 199.103 71.1813 199.468 70.2876C199.834 69.3938 200.374 68.5819 201.057 67.899C201.74 67.2162 202.552 66.6762 203.445 66.3106C204.339 65.9449 205.297 65.7609 206.262 65.7693C207.228 65.7777 208.182 65.9783 209.069 66.3595C209.957 66.7406 210.759 67.2946 211.43 67.9892C225.068 81.6273 232.729 100.125 232.729 119.412C232.729 138.699 225.068 157.196 211.43 170.834C210.756 171.512 209.955 172.049 209.073 172.415C208.19 172.78 207.244 172.967 206.288 172.965Z" fill="url(#paint12_linear_263_314)"/>
</g>
<defs>
<filter id="filter0_bi_263_314" x="214.223" y="-42.2617" width="152.277" height="323.442" filterUnits="userSpaceOnUse" color-interpolation-filters="sRGB">
<feFlood flood-opacity="0" result="BackgroundImageFix"/>
<feGaussianBlur in="BackgroundImageFix" stdDeviation="23.25"/>
<feComposite in2="SourceAlpha" operator="in" result="effect1_backgroundBlur_263_314"/>
<feBlend mode="normal" in="SourceGraphic" in2="effect1_backgroundBlur_263_314" result="shape"/>
<feColorMatrix in="SourceAlpha" type="matrix" values="0 0 0 0 0 0 0 0 0 0 0 0 0 0 0 0 0 0 127 0" result="hardAlpha"/>
<feOffset dy="7.75"/>
<feGaussianBlur stdDeviation="15.5"/>
<feComposite in2="hardAlpha" operator="arithmetic" k2="-1" k3="1"/>
<feColorMatrix type="matrix" values="0 0 0 0 1 0 0 0 0 1 0 0 0 0 1 0 0 0 0.4 0"/>
<feBlend mode="normal" in2="shape" result="effect2_innerShadow_263_314"/>
</filter>
<filter id="filter1_bi_263_314" x="-46.5" y="-42.2617" width="152.277" height="323.442" filterUnits="userSpaceOnUse" color-interpolation-filters="sRGB">
<feFlood flood-opacity="0" result="BackgroundImageFix"/>
<feGaussianBlur in="BackgroundImageFix" stdDeviation="23.25"/>
<feComposite in2="SourceAlpha" operator="in" result="effect1_backgroundBlur_263_314"/>
<feBlend mode="normal" in="SourceGraphic" in2="effect1_backgroundBlur_263_314" result="shape"/>
<feColorMatrix in="SourceAlpha" type="matrix" values="0 0 0 0 0 0 0 0 0 0 0 0 0 0 0 0 0 0 127 0" result="hardAlpha"/>
<feOffset dy="7.75"/>
<feGaussianBlur stdDeviation="15.5"/>
<feComposite in2="hardAlpha" operator="arithmetic" k2="-1" k3="1"/>
<feColorMatrix type="matrix" values="0 0 0 0 1 0 0 0 0 1 0 0 0 0 1 0 0 0 0.4 0"/>
<feBlend mode="normal" in2="shape" result="effect2_innerShadow_263_314"/>
</filter>
<filter id="filter2_bi_263_314" x="183.275" y="-11.5835" width="139.578" height="261.901" filterUnits="userSpaceOnUse" color-interpolation-filters="sRGB">
<feFlood flood-opacity="0" result="BackgroundImageFix"/>
<feGaussianBlur in="BackgroundImageFix" stdDeviation="23.25"/>
<feComposite in2="SourceAlpha" operator="in" result="effect1_backgroundBlur_263_314"/>
<feBlend mode="normal" in="SourceGraphic" in2="effect1_backgroundBlur_263_314" result="shape"/>
<feColorMatrix in="SourceAlpha" type="matrix" values="0 0 0 0 0 0 0 0 0 0 0 0 0 0 0 0 0 0 127 0" result="hardAlpha"/>
<feOffset dy="7.75"/>
<feGaussianBlur stdDeviation="15.5"/>
<feComposite in2="hardAlpha" operator="arithmetic" k2="-1" k3="1"/>
<feColorMatrix type="matrix" values="0 0 0 0 1 0 0 0 0 1 0 0 0 0 1 0 0 0 0.4 0"/>
<feBlend mode="normal" in2="shape" result="effect2_innerShadow_263_314"/>
</filter>
<filter id="filter3_bi_263_314" x="-2.8457" y="-11.7046" width="139.698" height="262.029" filterUnits="userSpaceOnUse" color-interpolation-filters="sRGB">
<feFlood flood-opacity="0" result="BackgroundImageFix"/>
<feGaussianBlur in="BackgroundImageFix" stdDeviation="23.25"/>
<feComposite in2="SourceAlpha" operator="in" result="effect1_backgroundBlur_263_314"/>
<feBlend mode="normal" in="SourceGraphic" in2="effect1_backgroundBlur_263_314" result="shape"/>
<feColorMatrix in="SourceAlpha" type="matrix" values="0 0 0 0 0 0 0 0 0 0 0 0 0 0 0 0 0 0 127 0" result="hardAlpha"/>
<feOffset dy="7.75"/>
<feGaussianBlur stdDeviation="15.5"/>
<feComposite in2="hardAlpha" operator="arithmetic" k2="-1" k3="1"/>
<feColorMatrix type="matrix" values="0 0 0 0 1 0 0 0 0 1 0 0 0 0 1 0 0 0 0.4 0"/>
<feBlend mode="normal" in2="shape" result="effect2_innerShadow_263_314"/>
</filter>
<linearGradient id="paint0_linear_263_314" x1="229.783" y1="34.9128" x2="287.903" y2="38.9826" gradientUnits="userSpaceOnUse">
<stop stop-color="#75A5FF"/>
<stop offset="0.703125" stop-color="#5A807C"/>
</linearGradient>
<linearGradient id="paint1_linear_263_314" x1="43.6465" y1="34.7954" x2="101.915" y2="38.883" gradientUnits="userSpaceOnUse">
<stop stop-color="#75A5FF"/>
<stop offset="0.703125" stop-color="#5A807C"/>
</linearGradient>
<linearGradient id="paint2_linear_263_314" x1="260.723" y1="4.23828" x2="334.736" y2="9.07251" gradientUnits="userSpaceOnUse">
<stop stop-color="#83E9FF"/>
<stop offset="0.453125" stop-color="#85A0FF"/>
</linearGradient>
<linearGradient id="paint3_linear_263_314" x1="262.575" y1="14.7129" x2="320" y2="14.7129" gradientUnits="userSpaceOnUse">
<stop stop-color="#3CDEB6"/>
<stop offset="0.65625" stop-color="#364AFF"/>
</linearGradient>
<linearGradient id="paint4_linear_263_314" x1="0" y1="4.23828" x2="74.0129" y2="9.07251" gradientUnits="userSpaceOnUse">
<stop stop-color="#83E9FF"/>
<stop offset="0.453125" stop-color="#85A0FF"/>
</linearGradient>
<linearGradient id="paint5_linear_263_314" x1="1.85241" y1="14.7129" x2="59.2771" y2="14.7129" gradientUnits="userSpaceOnUse">
<stop stop-color="#3CDEB6"/>
<stop offset="0.65625" stop-color="#364AFF"/>
</linearGradient>
<linearGradient id="paint6_linear_263_314" x1="229.775" y1="34.9165" x2="287.896" y2="38.9863" gradientUnits="userSpaceOnUse">
<stop stop-color="#83E9FF"/>
<stop offset="0.453125" stop-color="#85A0FF"/>
</linearGradient>
<linearGradient id="paint7_linear_263_314" x1="231.231" y1="42.5938" x2="276.354" y2="42.5938" gradientUnits="userSpaceOnUse">
<stop stop-color="#3CDEB6"/>
<stop offset="0.65625" stop-color="#364AFF"/>
</linearGradient>
<linearGradient id="paint8_linear_263_314" x1="43.6543" y1="34.7954" x2="101.923" y2="38.883" gradientUnits="userSpaceOnUse">
<stop stop-color="#83E9FF"/>
<stop offset="0.453125" stop-color="#85A0FF"/>
</linearGradient>
<linearGradient id="paint9_linear_263_314" x1="45.1136" y1="42.4785" x2="90.3524" y2="42.4785" gradientUnits="userSpaceOnUse">
<stop stop-color="#3CDEB6"/>
<stop offset="0.65625" stop-color="#364AFF"/>
</linearGradient>
<linearGradient id="paint10_linear_263_314" x1="94.5591" y1="90.2109" x2="255.21" y2="113.885" gradientUnits="userSpaceOnUse">
<stop stop-color="#75A5FF"/>
<stop offset="0.703125" stop-color="#5A807C"/>
</linearGradient>
<linearGradient id="paint11_linear_263_314" x1="87.2861" y1="65.769" x2="129.402" y2="69.1413" gradientUnits="userSpaceOnUse">
<stop stop-color="#75A5FF"/>
<stop offset="0.703125" stop-color="#5A807C"/>
</linearGradient>
<linearGradient id="paint12_linear_263_314" x1="198.927" y1="65.769" x2="241.043" y2="69.1412" gradientUnits="userSpaceOnUse">
<stop stop-color="#75A5FF"/>
<stop offset="0.703125" stop-color="#5A807C"/>
</linearGradient>
<clipPath id="clip0_263_314">
<rect width="320" height="320" fill="white"/>
</clipPath>
</defs>
</svg>
