<svg width="202" height="316" viewBox="0 0 202 316" fill="none" xmlns="http://www.w3.org/2000/svg">
<g clip-path="url(#clip0_109_372)">
<path d="M82.8625 203.817C81.9071 203.819 80.9607 203.632 80.0782 203.267C79.1956 202.901 78.3944 202.364 77.721 201.686C55.903 179.865 43.646 150.272 43.646 119.415C43.646 88.5574 55.903 58.9638 77.721 37.1431C78.3849 36.4217 79.1878 35.8421 80.0814 35.4389C80.9751 35.0358 81.941 34.8175 82.9212 34.7972C83.9013 34.7769 84.8755 34.955 85.7851 35.3208C86.6946 35.6865 87.5209 36.2324 88.2141 36.9257C88.9073 37.6189 89.4532 38.4451 89.819 39.3547C90.1848 40.2643 90.3629 41.2384 90.3426 42.2186C90.3222 43.1988 90.104 44.1647 89.7008 45.0583C89.2977 45.952 88.7181 46.7549 87.9967 47.4188C78.5415 56.8731 71.0411 68.0972 65.9239 80.4503C60.8067 92.8034 58.1729 106.044 58.1729 119.415C58.1729 132.786 60.8067 146.026 65.9239 158.379C71.0411 170.732 78.5415 181.956 87.9967 191.41C89.0134 192.427 89.7058 193.723 89.9863 195.133C90.2668 196.544 90.1227 198.006 89.5725 199.335C89.0222 200.663 88.0903 201.799 86.8947 202.598C85.699 203.397 84.2933 203.824 82.8552 203.824L82.8625 203.817Z" fill="url(#paint0_linear_109_372)"/>
<g filter="url(#filter0_bi_109_372)">
<path d="M52.0064 234.681C50.0778 234.68 48.2284 233.914 46.8649 232.55C32.007 217.693 20.2209 200.056 12.1798 180.644C4.13872 161.232 0 140.426 0 119.415C0 98.4036 4.13872 77.598 12.1798 58.1861C20.2209 38.7743 32.007 21.1365 46.8649 6.27982C48.2364 4.95512 50.0734 4.22211 51.9802 4.23868C53.887 4.25525 55.711 5.02007 57.0593 6.36841C58.4077 7.71675 59.1725 9.54074 59.1891 11.4475C59.2056 13.3543 58.4726 15.1913 57.1479 16.5629C43.6401 30.069 32.9251 46.1036 25.6146 63.7511C18.3041 81.3986 14.5415 100.313 14.5415 119.415C14.5415 138.517 18.3041 157.431 25.6146 175.079C32.9251 192.726 43.6401 208.761 57.1479 222.267C58.1646 223.284 58.857 224.58 59.1375 225.99C59.418 227.401 59.2739 228.863 58.7237 230.191C58.1734 231.52 57.2415 232.656 56.0458 233.455C54.8502 234.254 53.4445 234.681 52.0064 234.681Z" fill="url(#paint1_linear_109_372)" fill-opacity="0.2"/>
<path d="M48.2348 231.18L48.2351 231.18C49.2351 232.181 50.5915 232.743 52.006 232.743L48.2348 231.18ZM48.2348 231.18C33.5569 216.503 21.9136 199.079 13.9698 179.902M48.2348 231.18L13.9698 179.902M13.9698 179.902C6.0261 160.726 1.9375 140.172 1.9375 119.415M13.9698 179.902L1.9375 119.415M1.9375 119.415C1.9375 98.658 6.0261 78.1044 13.9698 58.9276M1.9375 119.415L13.9698 58.9276M13.9698 58.9276C21.9113 39.7565 33.5501 22.3368 48.222 7.6627M13.9698 58.9276L48.222 7.6627M48.222 7.6627C49.227 6.6977 50.5698 6.164 51.9634 6.17611C53.3621 6.18826 54.7002 6.74931 55.6893 7.73843C56.6784 8.72755 57.2395 10.0656 57.2516 11.4643C57.2637 12.858 56.73 14.2008 55.765 15.2058C42.0834 28.8891 31.2301 45.1327 23.8246 63.0096C16.4168 80.8922 12.604 100.059 12.604 119.415C12.604 138.771 16.4168 157.938 23.8246 175.82C31.2324 193.703 42.0901 209.951 55.7777 223.637C56.5235 224.383 57.0314 225.333 57.2372 226.368C57.4429 227.403 57.3373 228.475 56.9336 229.45C56.5299 230.425 55.8463 231.258 54.9692 231.844C54.0924 232.43 53.0615 232.743 52.0068 232.743L48.222 7.6627Z" stroke="url(#paint2_linear_109_372)" stroke-opacity="0.1" stroke-width="3.875"/>
</g>
<g filter="url(#filter1_bi_109_372)">
<path d="M82.8647 203.817C81.9093 203.819 80.9629 203.632 80.0804 203.267C79.1978 202.901 78.3966 202.364 77.7231 201.686C55.9052 179.865 43.6482 150.272 43.6482 119.415C43.6482 88.5573 55.9052 58.9638 77.7231 37.1431C78.3871 36.4217 79.19 35.8421 80.0836 35.4389C80.9773 35.0358 81.9432 34.8175 82.9234 34.7972C83.9035 34.7769 84.8777 34.955 85.7873 35.3208C86.6968 35.6865 87.5231 36.2324 88.2163 36.9257C88.9095 37.6189 89.4554 38.4451 89.8212 39.3547C90.187 40.2643 90.3651 41.2384 90.3447 42.2186C90.3244 43.1988 90.1062 44.1647 89.703 45.0583C89.2999 45.952 88.7202 46.7549 87.9989 47.4188C78.5437 56.8731 71.0433 68.0972 65.9261 80.4503C60.8089 92.8034 58.1751 106.044 58.1751 119.415C58.1751 132.786 60.8089 146.026 65.9261 158.379C71.0433 170.732 78.5437 181.956 87.9989 191.41C89.0156 192.427 89.708 193.723 89.9885 195.133C90.269 196.544 90.1249 198.006 89.5746 199.335C89.0243 200.663 88.0925 201.799 86.8968 202.598C85.7012 203.397 84.2955 203.824 82.8574 203.824L82.8647 203.817Z" fill="url(#paint3_linear_109_372)" fill-opacity="0.2"/>
<path d="M85.8202 200.987C85.0242 201.519 84.1012 201.826 83.1487 201.879L82.8594 201.879C82.1604 201.881 81.4679 201.744 80.8221 201.477C80.1764 201.209 79.5901 200.816 79.0974 200.32L79.0933 200.316C57.6386 178.859 45.5857 149.758 45.5857 119.415C45.5857 89.0712 57.6386 59.9704 79.0933 38.513L79.1216 38.4846L79.1487 38.4552C79.6358 37.926 80.2248 37.5008 80.8803 37.205C81.5359 36.9093 82.2445 36.7492 82.9635 36.7343C83.6825 36.7194 84.3971 36.85 85.0644 37.1184C85.7316 37.3867 86.3377 37.7871 86.8463 38.2957C87.3548 38.8042 87.7553 39.4103 88.0236 40.0776C88.2919 40.7448 88.4226 41.4594 88.4077 42.1785C88.3928 42.8975 88.2326 43.6061 87.9369 44.2616C87.6412 44.9172 87.216 45.5062 86.6868 45.9932L86.6573 46.0204L86.629 46.0487C76.9938 55.6829 69.3507 67.1207 64.1361 79.7088C58.9215 92.297 56.2376 105.789 56.2376 119.415C56.2376 133.04 58.9215 146.532 64.1361 159.12C69.3506 171.708 76.9936 183.146 86.6287 192.78C87.3745 193.526 87.8824 194.477 88.0882 195.511C88.2939 196.546 88.1883 197.619 87.7846 198.593C87.3809 199.568 86.6973 200.401 85.8202 200.987Z" stroke="url(#paint4_linear_109_372)" stroke-opacity="0.1" stroke-width="3.875"/>
</g>
<path d="M218.183 301.217H167.277V147.466C174.132 145.696 180.107 141.486 184.081 135.626C188.054 129.767 189.754 122.659 188.862 115.635C187.97 108.611 184.547 102.154 179.235 97.4737C173.922 92.7934 167.085 90.2112 160.005 90.2112C152.925 90.2112 146.088 92.7934 140.775 97.4737C135.463 102.154 132.04 108.611 131.148 115.635C130.255 122.659 131.956 129.767 135.929 135.626C139.903 141.486 145.877 145.696 152.733 147.466V301.217H101.826C99.8978 301.217 98.048 301.983 96.6842 303.347C95.3204 304.711 94.5542 306.56 94.5542 308.489C94.5542 310.418 95.3204 312.268 96.6842 313.631C98.048 314.995 99.8978 315.761 101.826 315.761H218.183C220.112 315.761 221.962 314.995 223.326 313.631C224.689 312.268 225.456 310.418 225.456 308.489C225.456 306.56 224.689 304.711 223.326 303.347C221.962 301.983 220.112 301.217 218.183 301.217Z" fill="url(#paint5_linear_109_372)"/>
<path d="M113.723 172.965C112.768 172.967 111.821 172.781 110.939 172.415C110.056 172.049 109.255 171.512 108.582 170.834C94.9437 157.196 87.282 138.699 87.282 119.412C87.282 100.125 94.9437 81.6275 108.582 67.9893C109.252 67.2947 110.055 66.7407 110.942 66.3596C111.829 65.9784 112.784 65.7778 113.749 65.7694C114.715 65.761 115.672 65.945 116.566 66.3107C117.46 66.6764 118.272 67.2164 118.955 67.8992C119.638 68.582 120.178 69.3939 120.543 70.2877C120.909 71.1814 121.093 72.139 121.084 73.1047C121.076 74.0703 120.875 75.0245 120.494 75.9118C120.113 76.799 119.559 77.6015 118.865 78.2723C113.462 83.6747 109.176 90.0884 106.252 97.1471C103.328 104.206 101.823 111.771 101.823 119.412C101.823 127.052 103.328 134.618 106.252 141.676C109.176 148.735 113.462 155.149 118.865 160.551C119.881 161.568 120.574 162.864 120.854 164.274C121.135 165.685 120.991 167.147 120.44 168.475C119.89 169.804 118.958 170.94 117.763 171.739C116.567 172.538 115.161 172.965 113.723 172.965Z" fill="url(#paint6_linear_109_372)"/>
<path d="M206.285 172.965C204.846 172.965 203.441 172.538 202.245 171.739C201.049 170.94 200.118 169.804 199.567 168.475C199.017 167.147 198.873 165.685 199.153 164.274C199.434 162.864 200.126 161.568 201.143 160.551C206.546 155.149 210.831 148.735 213.755 141.676C216.679 134.618 218.184 127.052 218.184 119.412C218.184 111.771 216.679 104.206 213.755 97.1471C210.831 90.0884 206.546 83.6747 201.143 78.2723C200.448 77.6015 199.894 76.799 199.513 75.9118C199.132 75.0245 198.932 74.0703 198.923 73.1047C198.915 72.139 199.099 71.1814 199.464 70.2877C199.83 69.3939 200.37 68.582 201.053 67.8992C201.736 67.2164 202.548 66.6764 203.441 66.3107C204.335 65.945 205.293 65.761 206.258 65.7694C207.224 65.7778 208.178 65.9784 209.065 66.3596C209.953 66.7407 210.755 67.2947 211.426 67.9893C225.064 81.6275 232.726 100.125 232.726 119.412C232.726 138.699 225.064 157.196 211.426 170.834C210.753 171.512 209.951 172.049 209.069 172.415C208.186 172.781 207.24 172.967 206.285 172.965Z" fill="url(#paint7_linear_109_372)"/>
</g>
<defs>
<filter id="filter0_bi_109_372" x="-3" y="1.2384" width="65.2771" height="236.443" filterUnits="userSpaceOnUse" color-interpolation-filters="sRGB">
<feFlood flood-opacity="0" result="BackgroundImageFix"/>
<feGaussianBlur in="BackgroundImageFix" stdDeviation="1.5"/>
<feComposite in2="SourceAlpha" operator="in" result="effect1_backgroundBlur_109_372"/>
<feBlend mode="normal" in="SourceGraphic" in2="effect1_backgroundBlur_109_372" result="shape"/>
<feColorMatrix in="SourceAlpha" type="matrix" values="0 0 0 0 0 0 0 0 0 0 0 0 0 0 0 0 0 0 127 0" result="hardAlpha"/>
<feOffset dy="0.5"/>
<feGaussianBlur stdDeviation="1"/>
<feComposite in2="hardAlpha" operator="arithmetic" k2="-1" k3="1"/>
<feColorMatrix type="matrix" values="0 0 0 0 1 0 0 0 0 1 0 0 0 0 1 0 0 0 0.4 0"/>
<feBlend mode="normal" in2="shape" result="effect2_innerShadow_109_372"/>
</filter>
<filter id="filter1_bi_109_372" x="40.6482" y="31.7957" width="52.698" height="175.029" filterUnits="userSpaceOnUse" color-interpolation-filters="sRGB">
<feFlood flood-opacity="0" result="BackgroundImageFix"/>
<feGaussianBlur in="BackgroundImageFix" stdDeviation="1.5"/>
<feComposite in2="SourceAlpha" operator="in" result="effect1_backgroundBlur_109_372"/>
<feBlend mode="normal" in="SourceGraphic" in2="effect1_backgroundBlur_109_372" result="shape"/>
<feColorMatrix in="SourceAlpha" type="matrix" values="0 0 0 0 0 0 0 0 0 0 0 0 0 0 0 0 0 0 127 0" result="hardAlpha"/>
<feOffset dy="0.5"/>
<feGaussianBlur stdDeviation="1"/>
<feComposite in2="hardAlpha" operator="arithmetic" k2="-1" k3="1"/>
<feColorMatrix type="matrix" values="0 0 0 0 1 0 0 0 0 1 0 0 0 0 1 0 0 0 0.4 0"/>
<feBlend mode="normal" in2="shape" result="effect2_innerShadow_109_372"/>
</filter>
<linearGradient id="paint0_linear_109_372" x1="43.646" y1="34.7957" x2="101.915" y2="38.8833" gradientUnits="userSpaceOnUse">
<stop stop-color="#75A5FF"/>
<stop offset="0.703125" stop-color="#5A807C"/>
</linearGradient>
<linearGradient id="paint1_linear_109_372" x1="0" y1="4.2384" x2="74.0129" y2="9.07263" gradientUnits="userSpaceOnUse">
<stop stop-color="#83E9FF"/>
<stop offset="0.453125" stop-color="#85A0FF"/>
</linearGradient>
<linearGradient id="paint2_linear_109_372" x1="1.85241" y1="14.7131" x2="59.2771" y2="14.7131" gradientUnits="userSpaceOnUse">
<stop stop-color="#3CDEB6"/>
<stop offset="0.65625" stop-color="#364AFF"/>
</linearGradient>
<linearGradient id="paint3_linear_109_372" x1="43.6482" y1="34.7957" x2="101.917" y2="38.8833" gradientUnits="userSpaceOnUse">
<stop stop-color="#83E9FF"/>
<stop offset="0.453125" stop-color="#85A0FF"/>
</linearGradient>
<linearGradient id="paint4_linear_109_372" x1="45.1075" y1="42.4788" x2="90.3463" y2="42.4788" gradientUnits="userSpaceOnUse">
<stop stop-color="#3CDEB6"/>
<stop offset="0.65625" stop-color="#364AFF"/>
</linearGradient>
<linearGradient id="paint5_linear_109_372" x1="94.5542" y1="90.2112" x2="255.205" y2="113.886" gradientUnits="userSpaceOnUse">
<stop stop-color="#75A5FF"/>
<stop offset="0.703125" stop-color="#5A807C"/>
</linearGradient>
<linearGradient id="paint6_linear_109_372" x1="87.282" y1="65.7692" x2="129.398" y2="69.1414" gradientUnits="userSpaceOnUse">
<stop stop-color="#75A5FF"/>
<stop offset="0.703125" stop-color="#5A807C"/>
</linearGradient>
<linearGradient id="paint7_linear_109_372" x1="198.923" y1="65.7692" x2="241.039" y2="69.1414" gradientUnits="userSpaceOnUse">
<stop stop-color="#75A5FF"/>
<stop offset="0.703125" stop-color="#5A807C"/>
</linearGradient>
<clipPath id="clip0_109_372">
<rect width="320" height="320" fill="white"/>
</clipPath>
</defs>
</svg>
