<svg width="300" height="318" viewBox="0 0 300 318" fill="none" xmlns="http://www.w3.org/2000/svg">
<g clip-path="url(#clip0_109_365)">
<path d="M280.32 70.2882H37.6851C30.1791 70.2882 24.0942 76.3731 24.0942 83.8791V268.697C24.0942 276.203 30.1791 282.288 37.6851 282.288H280.32C287.826 282.288 293.911 276.203 293.911 268.697V83.8791C293.911 76.3731 287.826 70.2882 280.32 70.2882Z" fill="url(#paint0_linear_109_365)"/>
<g filter="url(#filter0_bi_109_365)">
<path d="M304.174 304.175H13.8261C10.1592 304.175 6.64246 302.718 4.04957 300.125C1.45667 297.532 0 294.016 0 290.349V27.6531C0 23.9862 1.45667 20.4695 4.04957 17.8766C6.64246 15.2837 10.1592 13.827 13.8261 13.827H304.174C307.841 13.827 311.358 15.2837 313.95 17.8766C316.543 20.4695 318 23.9862 318 27.6531V290.349C318 294.016 316.543 297.532 313.95 300.125C311.358 302.718 307.841 304.175 304.174 304.175Z" fill="url(#paint1_linear_109_365)" fill-opacity="0.2"/>
<path d="M304.174 302.347H13.8261C10.644 302.347 7.5923 301.083 5.34225 298.833C3.09219 296.583 1.82812 293.531 1.82812 290.349V27.6531C1.82812 24.4711 3.09219 21.4193 5.34225 19.1693C7.5923 16.9192 10.644 15.6552 13.8261 15.6552H304.174C307.356 15.6552 310.408 16.9192 312.658 19.1693C314.908 21.4193 316.172 24.4711 316.172 27.6531V290.349C316.172 293.531 314.908 296.583 312.658 298.833C310.408 301.083 307.356 302.347 304.174 302.347Z" stroke="url(#paint2_linear_109_365)" stroke-opacity="0.1" stroke-width="3.65625"/>
</g>
<g filter="url(#filter1_bi_109_365)">
<path d="M274.958 154.615C274.31 153.824 273.495 153.187 272.571 152.749C271.646 152.312 270.637 152.085 269.615 152.084H146.106C140.701 141.84 132.021 133.701 121.451 128.965C110.881 124.229 99.0298 123.168 87.7869 125.952C76.5439 128.737 66.557 135.205 59.4189 144.327C52.2807 153.448 48.4023 164.697 48.4023 176.28C48.4023 187.863 52.2807 199.112 59.4189 208.233C66.557 217.355 76.5439 223.823 87.7869 226.608C99.0298 229.392 110.881 228.331 121.451 223.595C132.021 218.859 140.701 210.72 146.106 200.476H171.2L183.568 206.663C184.527 207.142 185.585 207.392 186.658 207.392C187.731 207.392 188.789 207.142 189.748 206.663L202.116 200.476H212.679L225.046 206.663C226.006 207.142 227.064 207.392 228.136 207.392C229.209 207.392 230.267 207.142 231.226 206.663L243.594 200.476H262.701C264.295 200.476 265.84 199.926 267.075 198.918C268.309 197.91 269.158 196.507 269.476 194.945L276.389 160.38C276.594 159.373 276.572 158.333 276.325 157.336C276.077 156.338 275.61 155.409 274.958 154.615ZM86.4189 193.563C83.0007 193.563 79.6593 192.549 76.8172 190.65C73.9751 188.751 71.7599 186.052 70.4518 182.894C69.1438 179.736 68.8015 176.261 69.4684 172.908C70.1352 169.556 71.7812 166.476 74.1982 164.059C76.6153 161.642 79.6947 159.996 83.0472 159.329C86.3997 158.663 89.8747 159.005 93.0327 160.313C96.1906 161.621 98.8898 163.836 100.789 166.678C102.688 169.52 103.701 172.862 103.701 176.28C103.701 180.864 101.881 185.26 98.6395 188.501C95.3984 191.742 91.0025 193.563 86.4189 193.563Z" fill="white" fill-opacity="0.16"/>
</g>
<g filter="url(#filter2_i_109_365)">
<path d="M275.282 165.91H152.091V179.736H272.517L275.282 165.91Z" fill="white" fill-opacity="0.16"/>
</g>
<g filter="url(#filter3_i_109_365)">
<path d="M24.1948 48.3913C29.9217 48.3913 34.5643 43.7487 34.5643 38.0218C34.5643 32.2948 29.9217 27.6522 24.1948 27.6522C18.4678 27.6522 13.8252 32.2948 13.8252 38.0218C13.8252 43.7487 18.4678 48.3913 24.1948 48.3913Z" fill="url(#paint3_linear_109_365)"/>
</g>
<g filter="url(#filter4_i_109_365)">
<path d="M58.7719 48.3913C64.4989 48.3913 69.1415 43.7487 69.1415 38.0218C69.1415 32.2948 64.4989 27.6522 58.7719 27.6522C53.045 27.6522 48.4023 32.2948 48.4023 38.0218C48.4023 43.7487 53.045 48.3913 58.7719 48.3913Z" fill="url(#paint4_linear_109_365)"/>
</g>
<g filter="url(#filter5_i_109_365)">
<path d="M93.3349 48.3913C99.0619 48.3913 103.704 43.7487 103.704 38.0218C103.704 32.2948 99.0619 27.6522 93.3349 27.6522C87.6079 27.6522 82.9653 32.2948 82.9653 38.0218C82.9653 43.7487 87.6079 48.3913 93.3349 48.3913Z" fill="url(#paint5_linear_109_365)"/>
</g>
</g>
<defs>
<filter id="filter0_bi_109_365" x="-3" y="10.827" width="324" height="296.348" filterUnits="userSpaceOnUse" color-interpolation-filters="sRGB">
<feFlood flood-opacity="0" result="BackgroundImageFix"/>
<feGaussianBlur in="BackgroundImageFix" stdDeviation="1.5"/>
<feComposite in2="SourceAlpha" operator="in" result="effect1_backgroundBlur_109_365"/>
<feBlend mode="normal" in="SourceGraphic" in2="effect1_backgroundBlur_109_365" result="shape"/>
<feColorMatrix in="SourceAlpha" type="matrix" values="0 0 0 0 0 0 0 0 0 0 0 0 0 0 0 0 0 0 127 0" result="hardAlpha"/>
<feOffset dy="0.5"/>
<feGaussianBlur stdDeviation="1"/>
<feComposite in2="hardAlpha" operator="arithmetic" k2="-1" k3="1"/>
<feColorMatrix type="matrix" values="0 0 0 0 1 0 0 0 0 1 0 0 0 0 1 0 0 0 0.4 0"/>
<feBlend mode="normal" in2="shape" result="effect2_innerShadow_109_365"/>
</filter>
<filter id="filter1_bi_109_365" x="45.4023" y="121.432" width="234.126" height="109.696" filterUnits="userSpaceOnUse" color-interpolation-filters="sRGB">
<feFlood flood-opacity="0" result="BackgroundImageFix"/>
<feGaussianBlur in="BackgroundImageFix" stdDeviation="1.5"/>
<feComposite in2="SourceAlpha" operator="in" result="effect1_backgroundBlur_109_365"/>
<feBlend mode="normal" in="SourceGraphic" in2="effect1_backgroundBlur_109_365" result="shape"/>
<feColorMatrix in="SourceAlpha" type="matrix" values="0 0 0 0 0 0 0 0 0 0 0 0 0 0 0 0 0 0 127 0" result="hardAlpha"/>
<feOffset dy="0.5"/>
<feGaussianBlur stdDeviation="1"/>
<feComposite in2="hardAlpha" operator="arithmetic" k2="-1" k3="1"/>
<feColorMatrix type="matrix" values="0 0 0 0 1 0 0 0 0 1 0 0 0 0 1 0 0 0 0.4 0"/>
<feBlend mode="normal" in2="shape" result="effect2_innerShadow_109_365"/>
</filter>
<filter id="filter2_i_109_365" x="152.091" y="165.91" width="123.19" height="14.326" filterUnits="userSpaceOnUse" color-interpolation-filters="sRGB">
<feFlood flood-opacity="0" result="BackgroundImageFix"/>
<feBlend mode="normal" in="SourceGraphic" in2="BackgroundImageFix" result="shape"/>
<feColorMatrix in="SourceAlpha" type="matrix" values="0 0 0 0 0 0 0 0 0 0 0 0 0 0 0 0 0 0 127 0" result="hardAlpha"/>
<feOffset dy="0.5"/>
<feGaussianBlur stdDeviation="0.25"/>
<feComposite in2="hardAlpha" operator="arithmetic" k2="-1" k3="1"/>
<feColorMatrix type="matrix" values="0 0 0 0 1 0 0 0 0 1 0 0 0 0 1 0 0 0 0.4 0"/>
<feBlend mode="normal" in2="shape" result="effect1_innerShadow_109_365"/>
</filter>
<filter id="filter3_i_109_365" x="13.8252" y="27.6522" width="20.739" height="21.2391" filterUnits="userSpaceOnUse" color-interpolation-filters="sRGB">
<feFlood flood-opacity="0" result="BackgroundImageFix"/>
<feBlend mode="normal" in="SourceGraphic" in2="BackgroundImageFix" result="shape"/>
<feColorMatrix in="SourceAlpha" type="matrix" values="0 0 0 0 0 0 0 0 0 0 0 0 0 0 0 0 0 0 127 0" result="hardAlpha"/>
<feOffset dy="0.5"/>
<feGaussianBlur stdDeviation="0.25"/>
<feComposite in2="hardAlpha" operator="arithmetic" k2="-1" k3="1"/>
<feColorMatrix type="matrix" values="0 0 0 0 1 0 0 0 0 1 0 0 0 0 1 0 0 0 0.4 0"/>
<feBlend mode="normal" in2="shape" result="effect1_innerShadow_109_365"/>
</filter>
<filter id="filter4_i_109_365" x="48.4023" y="27.6522" width="20.739" height="21.2391" filterUnits="userSpaceOnUse" color-interpolation-filters="sRGB">
<feFlood flood-opacity="0" result="BackgroundImageFix"/>
<feBlend mode="normal" in="SourceGraphic" in2="BackgroundImageFix" result="shape"/>
<feColorMatrix in="SourceAlpha" type="matrix" values="0 0 0 0 0 0 0 0 0 0 0 0 0 0 0 0 0 0 127 0" result="hardAlpha"/>
<feOffset dy="0.5"/>
<feGaussianBlur stdDeviation="0.25"/>
<feComposite in2="hardAlpha" operator="arithmetic" k2="-1" k3="1"/>
<feColorMatrix type="matrix" values="0 0 0 0 1 0 0 0 0 1 0 0 0 0 1 0 0 0 0.4 0"/>
<feBlend mode="normal" in2="shape" result="effect1_innerShadow_109_365"/>
</filter>
<filter id="filter5_i_109_365" x="82.9653" y="27.6522" width="20.739" height="21.2391" filterUnits="userSpaceOnUse" color-interpolation-filters="sRGB">
<feFlood flood-opacity="0" result="BackgroundImageFix"/>
<feBlend mode="normal" in="SourceGraphic" in2="BackgroundImageFix" result="shape"/>
<feColorMatrix in="SourceAlpha" type="matrix" values="0 0 0 0 0 0 0 0 0 0 0 0 0 0 0 0 0 0 127 0" result="hardAlpha"/>
<feOffset dy="0.5"/>
<feGaussianBlur stdDeviation="0.25"/>
<feComposite in2="hardAlpha" operator="arithmetic" k2="-1" k3="1"/>
<feColorMatrix type="matrix" values="0 0 0 0 1 0 0 0 0 1 0 0 0 0 1 0 0 0 0.4 0"/>
<feBlend mode="normal" in2="shape" result="effect1_innerShadow_109_365"/>
</filter>
<linearGradient id="paint0_linear_109_365" x1="24.0942" y1="70.2882" x2="330.43" y2="169.286" gradientUnits="userSpaceOnUse">
<stop stop-color="#75A5FF"/>
<stop offset="0.703125" stop-color="#5A807C"/>
</linearGradient>
<linearGradient id="paint1_linear_109_365" x1="0" y1="13.827" x2="370.121" y2="116.758" gradientUnits="userSpaceOnUse">
<stop stop-color="#83E9FF"/>
<stop offset="0.453125" stop-color="#85A0FF"/>
</linearGradient>
<linearGradient id="paint2_linear_109_365" x1="9.9375" y1="27.0247" x2="318" y2="27.0247" gradientUnits="userSpaceOnUse">
<stop stop-color="#3CDEB6"/>
<stop offset="0.65625" stop-color="#364AFF"/>
</linearGradient>
<linearGradient id="paint3_linear_109_365" x1="13.8252" y1="27.6522" x2="38.2553" y2="33.8555" gradientUnits="userSpaceOnUse">
<stop stop-color="#75A5FF"/>
<stop offset="0.703125" stop-color="#5A807C"/>
</linearGradient>
<linearGradient id="paint4_linear_109_365" x1="48.4023" y1="27.6522" x2="72.8324" y2="33.8555" gradientUnits="userSpaceOnUse">
<stop stop-color="#75A5FF"/>
<stop offset="0.703125" stop-color="#5A807C"/>
</linearGradient>
<linearGradient id="paint5_linear_109_365" x1="82.9653" y1="27.6522" x2="107.395" y2="33.8555" gradientUnits="userSpaceOnUse">
<stop stop-color="#75A5FF"/>
<stop offset="0.703125" stop-color="#5A807C"/>
</linearGradient>
<clipPath id="clip0_109_365">
<rect width="318" height="318" fill="white"/>
</clipPath>
</defs>
</svg>
