<svg width="713" height="171" viewBox="0 0 713 171" fill="none" xmlns="http://www.w3.org/2000/svg">
<g clip-path="url(#clip0_144_710)">
<g clip-path="url(#clip1_144_710)">
<path d="M51.5955 121.802C45.1347 121.885 38.7238 120.651 32.7469 118.173C26.7699 115.695 21.3497 112.024 16.811 107.381C12.1295 102.935 8.41416 97.555 5.90091 91.5819C3.38768 85.6091 2.13131 79.1741 2.21156 72.685C2.13426 66.1966 3.39181 59.7623 5.9046 53.7898C8.41742 47.8173 12.1307 42.4367 16.8096 37.9882C21.3258 33.2967 26.7359 29.5767 32.7138 27.0524C38.6916 24.5281 45.114 23.2516 51.5935 23.3C57.767 23.2168 63.8959 24.3736 69.6229 26.703C75.3503 29.0325 80.5618 32.4882 84.9545 36.8693L75.5738 46.5013C69.149 40.2325 60.5269 36.7886 51.5937 36.9232C46.9597 36.8658 42.3645 37.7824 38.1 39.6148C33.8356 41.4472 29.9954 44.1551 26.8234 47.5669C23.5267 50.8693 20.9261 54.8112 19.178 59.1555C17.4301 63.4997 16.5709 68.1561 16.6522 72.8445C16.6136 77.4792 17.4937 82.0749 19.2407 86.3613C20.9876 90.6473 23.5662 94.5374 26.8244 97.8023C33.3511 104.37 42.1584 108.105 51.3717 108.214C60.5853 108.324 69.477 104.798 76.1545 98.3865C80.2885 93.8154 82.8244 88.002 83.3745 81.8366L51.7526 81.8372L51.7523 68.2138L96.4973 68.2129C96.9369 70.9568 97.1136 73.7368 97.0246 76.5146C97.303 82.2639 96.4236 88.0106 94.4397 93.4072C92.4562 98.8038 89.4092 103.738 85.4831 107.912C81.1181 112.501 75.8442 116.11 70.0052 118.503C64.1661 120.896 57.8935 122.02 51.5955 121.802ZM155.631 112.753C149.626 118.565 141.63 121.81 133.312 121.811C124.993 121.811 116.997 118.566 110.991 112.754C108.003 109.828 105.649 106.307 104.079 102.413C102.509 98.5197 101.758 94.3398 101.873 90.1376C101.761 85.936 102.514 81.7568 104.083 77.8637C105.652 73.971 108.005 70.4492 110.99 67.5209C117.002 61.7208 124.996 58.4839 133.31 58.4837C141.625 58.4835 149.619 61.7201 155.63 67.5199C158.617 70.4482 160.969 73.9698 162.538 77.8625C164.108 81.7556 164.86 85.9347 164.748 90.1363C164.857 94.3422 164.097 98.5248 162.519 102.419C160.94 106.312 158.577 109.832 155.578 112.753L155.631 112.753ZM120.847 103.867C122.444 105.589 124.374 106.962 126.519 107.9C128.662 108.839 130.975 109.323 133.311 109.323C135.648 109.323 137.96 108.839 140.104 107.9C142.248 106.962 144.178 105.589 145.775 103.866C147.517 102.049 148.881 99.8978 149.786 97.5398C150.691 95.1818 151.119 92.6644 151.045 90.1365C151.123 87.6005 150.697 85.0741 149.791 82.7069C148.886 80.3396 147.52 78.1794 145.775 76.3538C144.157 74.6493 142.213 73.293 140.062 72.3662C137.911 71.4395 135.596 70.962 133.258 70.962C130.919 70.9621 128.605 71.4397 126.453 72.3665C124.303 73.2934 122.359 74.6497 120.741 76.3543C118.995 78.18 117.63 80.3402 116.724 82.7076C115.819 85.0749 115.393 87.6012 115.471 90.1373C115.404 92.6688 115.841 95.1885 116.755 97.5464C117.67 99.9048 119.043 102.054 120.794 103.867L120.847 103.867ZM224.25 112.752C218.246 118.564 210.249 121.809 201.931 121.809C193.613 121.809 185.616 118.565 179.611 112.753C176.622 109.826 174.268 106.305 172.698 102.412C171.129 98.5183 170.378 94.3384 170.493 90.1361C170.381 85.9346 171.133 81.7554 172.702 77.8623C174.272 73.9696 176.624 70.4478 179.61 67.5195C185.615 61.7071 193.611 58.4624 201.93 58.4622C210.248 58.462 218.245 61.7064 224.25 67.5185C227.236 70.4468 229.588 73.9684 231.158 77.8611C232.727 81.7541 233.48 85.9333 233.367 90.1348C233.483 94.3371 232.732 98.517 231.163 102.411C229.593 106.304 227.239 109.825 224.25 112.752ZM189.466 103.865C191.063 105.588 192.994 106.961 195.138 107.899C197.282 108.838 199.594 109.322 201.931 109.322C204.268 109.322 206.579 108.838 208.723 107.899C210.867 106.96 212.798 105.587 214.395 103.865C216.136 102.047 217.5 99.8964 218.405 97.5384C219.31 95.1804 219.739 92.663 219.665 90.1351C219.743 87.5991 219.316 85.0727 218.411 82.7055C217.506 80.3382 216.14 78.178 214.394 76.3524C212.776 74.6478 210.833 73.2916 208.681 72.3648C206.53 71.4381 204.216 70.9606 201.877 70.9606C199.538 70.9607 197.224 71.4383 195.073 72.3651C192.922 73.2919 190.979 74.6483 189.36 76.3529C187.615 78.1786 186.249 80.3388 185.344 82.7061C184.439 85.0735 184.013 87.5998 184.09 90.1359C184.024 92.6674 184.461 95.1871 185.375 97.545C186.289 99.9034 187.662 102.052 189.414 103.865L189.466 103.865ZM269.365 150.215C263.048 150.418 256.854 148.427 251.815 144.574C247.341 141.178 243.818 136.667 241.59 131.483L253.606 126.428C254.914 129.526 256.96 132.249 259.562 134.357C262.347 136.623 265.842 137.812 269.418 137.709C271.685 137.848 273.956 137.493 276.074 136.666C278.194 135.839 280.111 134.561 281.697 132.919C284.872 129.052 286.44 124.093 286.071 119.083L286.071 114.507L285.597 114.507C283.589 116.915 281.052 118.819 278.189 120.065C275.326 121.313 272.214 121.869 269.101 121.691C265.144 121.703 261.228 120.887 257.599 119.293C253.97 117.699 250.709 115.363 248.019 112.432C245.102 109.524 242.799 106.049 241.249 102.216C239.7 98.3839 238.937 94.2737 239.007 90.1347C238.934 85.9719 239.695 81.8367 241.243 77.9778C242.792 74.1186 245.096 70.6155 248.019 67.6778C250.701 64.7342 253.96 62.3862 257.589 60.7829C261.219 59.1795 265.138 58.3562 269.1 58.3647C272.452 58.3587 275.764 59.1036 278.797 60.5463C281.421 61.7029 283.76 63.429 285.649 65.6015L286.123 65.6014L286.123 60.5461L299.193 60.5459L299.194 117.22C299.538 121.704 298.973 126.211 297.532 130.465C296.091 134.721 293.805 138.634 290.815 141.966C287.966 144.717 284.601 146.865 280.917 148.282C277.233 149.699 273.305 150.356 269.365 150.215ZM270.313 109.345C272.563 109.395 274.797 108.944 276.856 108.024C278.914 107.105 280.747 105.739 282.224 104.023C285.475 100.26 287.19 95.3909 287.019 90.4001C287.214 85.325 285.501 80.3632 282.223 76.5108C280.748 74.7928 278.916 73.4246 276.857 72.505C274.798 71.5849 272.563 71.1357 270.312 71.1894C268 71.1418 265.705 71.5914 263.578 72.509C261.452 73.4265 259.543 74.791 257.98 76.5113C254.493 80.2253 252.6 85.1782 252.71 90.2942C252.656 92.8035 253.094 95.2989 253.999 97.6367C254.903 99.9746 256.256 102.109 257.98 103.917C259.537 105.654 261.441 107.036 263.568 107.973C265.694 108.908 267.993 109.376 270.313 109.345ZM322.434 26.8599L322.436 119.881L308.681 119.881L308.679 26.8602L322.434 26.8599ZM360.172 121.795C356.052 121.902 351.955 121.15 348.137 119.584C344.319 118.018 340.862 115.673 337.984 112.696C335.062 109.741 332.766 106.217 331.235 102.338C329.704 98.4595 328.97 94.3072 329.077 90.1329C328.92 85.9488 329.601 81.7756 331.077 77.8624C332.552 73.9491 334.794 70.3764 337.666 67.3564C340.374 64.4746 343.647 62.1955 347.277 60.6652C350.908 59.1348 354.814 58.3868 358.748 58.469C362.364 58.4306 365.951 59.1368 369.288 60.5444C372.294 61.7695 375.034 63.5773 377.351 65.8659C379.344 67.8059 381.11 69.9657 382.622 72.3046C383.844 74.2796 384.887 76.3638 385.733 78.5306L387.156 82.1495L344.993 99.6583C346.268 102.616 348.401 105.115 351.111 106.825C353.82 108.535 356.979 109.376 360.172 109.237C363.278 109.245 366.333 108.441 369.039 106.902C371.745 105.363 374.01 103.142 375.612 100.456L386.154 107.64C383.465 111.526 380.023 114.821 376.037 117.325C371.294 120.35 365.779 121.904 360.172 121.795ZM342.568 89.1749L370.606 77.4138C369.742 75.3401 368.197 73.6299 366.232 72.5713C364.03 71.316 361.539 70.6734 359.011 70.7085C354.722 70.8211 350.65 72.6379 347.68 75.7644C345.903 77.4817 344.523 79.5745 343.64 81.8927C342.756 84.2108 342.39 86.6973 342.568 89.1749Z" fill="white"/>
<path d="M459.202 121.792C453.354 121.894 447.542 120.801 442.122 118.58C436.699 116.358 431.778 113.053 427.654 108.863C423.53 104.673 420.286 99.6853 418.117 94.1983C415.949 88.7109 414.902 82.8379 415.036 76.9318C414.902 71.0257 415.949 65.1527 418.117 59.6656C420.285 54.1781 423.529 49.1898 427.653 45.0001C431.776 40.81 436.697 37.5049 442.121 35.2831C447.541 33.0612 453.352 31.9684 459.2 32.0702C465.123 31.8832 471.009 33.0495 476.421 35.4821C481.834 37.9148 486.628 41.5506 490.454 46.1186L482.866 53.5689C480.057 50.0029 476.455 47.1563 472.354 45.2607C468.249 43.3654 463.764 42.4741 459.253 42.6601C454.917 42.5615 450.599 43.3498 446.569 44.9777C442.538 46.6057 438.876 49.0394 435.803 52.1331C432.604 55.3792 430.108 59.2578 428.465 63.5257C426.822 67.7932 426.074 72.3575 426.264 76.9316C426.074 81.5056 426.823 86.0699 428.466 90.3374C430.109 94.6052 432.604 98.4837 435.804 101.73C438.878 104.823 442.539 107.257 446.57 108.885C450.601 110.512 454.918 111.3 459.254 111.202C464.294 111.259 469.278 110.169 473.838 108.013C478.401 105.857 482.424 102.69 485.609 98.7486L493.197 106.412C489.222 111.21 484.234 115.047 478.598 117.64C472.523 120.473 465.896 121.891 459.202 121.792Z" fill="white"/>
<path d="M513.589 119.877L502.682 119.877L502.681 33.9341L513.588 33.9339L513.589 119.877Z" fill="white"/>
<path d="M531.409 68.15C537.127 62.4177 544.856 59.2002 552.914 59.2001C560.967 59.1999 568.697 62.4171 574.415 68.1491C577.212 71.1295 579.395 74.6385 580.841 78.4742C582.29 82.3099 582.972 86.3967 582.849 90.4995C582.972 94.6023 582.29 98.6895 580.841 102.525C579.396 106.361 577.213 109.87 574.416 112.85C568.698 118.583 560.968 121.8 552.915 121.8C544.857 121.8 537.128 118.583 531.41 112.851C528.616 109.871 526.429 106.362 524.984 102.526C523.535 98.6907 522.853 94.6035 522.976 90.5007C522.853 86.3979 523.534 82.3111 524.983 78.4754C526.428 74.6396 528.615 71.1305 531.409 68.15ZM539.527 105.933C541.244 107.767 543.315 109.228 545.613 110.227C547.912 111.225 550.385 111.74 552.889 111.74C555.388 111.74 557.861 111.225 560.16 110.227C562.458 109.228 564.529 107.767 566.247 105.932C568.154 103.867 569.633 101.438 570.601 98.7884C571.57 96.1388 572.005 93.3215 571.886 90.4997C572.005 87.6783 571.569 84.8607 570.601 82.2114C569.632 79.5618 568.153 77.1334 566.246 75.0675C564.529 73.2333 562.457 71.7724 560.159 70.7738C557.861 69.7755 555.387 69.2604 552.888 69.2604C550.384 69.2605 547.911 69.7757 545.613 70.7741C543.314 71.7728 541.243 73.2338 539.526 75.0681C537.619 77.1341 536.14 79.5625 535.171 82.2122C534.203 84.8615 533.767 87.6791 533.886 90.5005C533.778 93.317 534.229 96.1265 535.205 98.7668C536.181 101.407 537.668 103.825 539.579 105.88L539.527 105.933Z" fill="white"/>
<path d="M643.299 119.873L632.76 119.873L632.76 111.731L632.444 111.731C630.566 114.823 627.91 117.358 624.748 119.075C621.466 120.996 617.737 122.006 613.945 122.002C610.864 122.215 607.776 121.722 604.908 120.561C602.043 119.401 599.477 117.601 597.394 115.297C593.401 110.198 591.397 103.8 591.754 97.3103L591.753 61.124L602.664 61.1238L602.665 95.2881C602.665 106.25 607.459 111.732 617.052 111.731C619.182 111.798 621.302 111.35 623.224 110.425C625.15 109.499 626.83 108.122 628.119 106.41C630.95 102.791 632.455 98.2995 632.387 93.6909L632.387 61.1232L643.297 61.123L643.299 119.873Z" fill="white"/>
<path d="M680.348 121.79C676.649 121.802 672.991 121.005 669.623 119.452C666.256 117.9 663.264 115.63 660.85 112.797C655.386 106.703 652.457 98.7167 652.681 90.4996C652.457 82.2828 655.385 74.2961 660.849 68.2022C663.263 65.3695 666.254 63.099 669.622 61.5464C672.989 59.9937 676.647 59.1961 680.346 59.2083C684.492 59.1423 688.59 60.1304 692.259 62.0819C695.481 63.7198 698.212 66.2006 700.164 69.2656L700.637 69.2656L700.164 61.1237L700.163 33.9307L711.074 33.9304L711.076 119.874L700.534 119.874L700.534 111.732L700.061 111.732C698.109 114.797 695.378 117.278 692.156 118.916C688.517 120.85 684.46 121.838 680.348 121.79ZM682.139 111.732C684.605 111.768 687.053 111.274 689.314 110.283C691.578 109.293 693.605 107.827 695.263 105.985C698.969 101.724 700.865 96.1596 700.533 90.4986C700.865 84.8379 698.968 79.2738 695.262 75.0131C693.593 73.1603 691.559 71.6804 689.29 70.6676C687.022 69.6548 684.567 69.1314 682.086 69.1315C679.605 69.1315 677.154 69.655 674.886 70.6679C672.617 71.6808 670.579 73.1608 668.911 75.0137C667.07 77.1094 665.659 79.5513 664.754 82.1995C663.848 84.848 663.472 87.6504 663.64 90.4464C663.472 93.2421 663.849 96.0449 664.754 98.693C665.659 101.341 667.071 103.783 668.911 105.879C670.573 107.754 672.614 109.248 674.898 110.257C677.177 111.268 679.651 111.77 682.139 111.732Z" fill="white"/>
</g>
</g>
<defs>
<clipPath id="clip0_144_710">
<rect width="712.338" height="170.976" fill="white" transform="matrix(1 0 4.13271e-05 1 0 0)"/>
</clipPath>
<clipPath id="clip1_144_710">
<rect width="711.492" height="149.003" fill="white" transform="translate(0 2.01465)"/>
</clipPath>
</defs>
</svg>
