<svg width="200" height="43" viewBox="0 0 200 43" fill="none" xmlns="http://www.w3.org/2000/svg">
<g clip-path="url(#clip0_194_405)">
<path d="M14.5028 34.5691C12.6867 34.5931 10.8846 34.2369 9.20447 33.5217C7.52435 32.8066 6.00076 31.7473 4.72496 30.4073C3.409 29.1242 2.36467 27.5716 1.65823 25.8478C0.951792 24.1242 0.598665 22.2671 0.621259 20.3945C0.599568 18.522 0.953102 16.6652 1.65948 14.9416C2.36587 13.2181 3.40971 11.6653 4.72496 10.3816C5.99451 9.02774 7.51529 7.95424 9.1957 7.2258C10.8761 6.49736 12.6814 6.12904 14.5028 6.14305C16.2382 6.11907 17.961 6.45293 19.5708 7.12521C21.1808 7.79749 22.6457 8.79479 23.8805 10.0591L21.2435 12.8387C19.4375 11.0296 17.0139 10.0357 14.5028 10.0745C13.2002 10.0579 11.9084 10.3224 10.7097 10.8511C9.51096 11.3799 8.43146 12.1614 7.53978 13.1459C6.61306 14.0989 5.88201 15.2365 5.39061 16.4902C4.89923 17.7438 4.65768 19.0876 4.68052 20.4406C4.66965 21.7781 4.91702 23.1043 5.40806 24.3413C5.89911 25.5782 6.6239 26.7008 7.53978 27.6431C9.37438 29.5383 11.8501 30.6164 14.44 30.6479C17.0299 30.6795 19.5294 29.662 21.4064 27.812C22.5685 26.4928 23.2814 24.8152 23.4361 23.0359H14.5472V19.1045H27.125C27.2485 19.8963 27.2982 20.6986 27.2731 21.5002C27.3514 23.1594 27.1041 24.8178 26.5464 26.3751C25.9889 27.9325 25.1323 29.3564 24.0286 30.5609C22.8016 31.8852 21.3191 32.9267 19.6778 33.6173C18.0364 34.3079 16.2731 34.6322 14.5028 34.5691ZM43.7472 31.9584C42.0592 33.6357 39.8114 34.5721 37.4731 34.5721C35.1348 34.5721 32.8871 33.6357 31.199 31.9584C30.3589 31.1139 29.6972 30.0977 29.256 28.9741C28.8148 27.8505 28.6037 26.6443 28.6361 25.4316C28.6046 24.2191 28.8161 23.013 29.2572 21.8896C29.6984 20.7662 30.3596 19.7499 31.199 18.9048C32.8888 17.2311 35.136 16.297 37.4731 16.297C39.8103 16.297 42.0574 17.2311 43.7472 18.9048C44.5867 19.7499 45.2478 20.7662 45.689 21.8896C46.1301 23.013 46.3416 24.2191 46.3101 25.4316C46.3407 26.6454 46.1272 27.8524 45.6834 28.9761C45.2396 30.0997 44.5752 31.1153 43.7324 31.9584H43.7472ZM33.9694 29.3937C34.4184 29.8908 34.961 30.287 35.5637 30.5578C36.1663 30.8287 36.8163 30.9685 37.4731 30.9685C38.13 30.9685 38.7799 30.8287 39.3826 30.5578C39.9852 30.287 40.5278 29.8908 40.9768 29.3937C41.4663 28.8692 41.8497 28.2485 42.1041 27.568C42.3586 26.8876 42.479 26.1611 42.4583 25.4316C42.4802 24.6997 42.3603 23.9707 42.1058 23.2875C41.8514 22.6043 41.4675 21.9809 40.9768 21.4541C40.5219 20.9622 39.9757 20.5708 39.371 20.3033C38.7663 20.0358 38.1157 19.898 37.4583 19.898C36.8009 19.898 36.1503 20.0358 35.5456 20.3033C34.941 20.5708 34.3947 20.9622 33.9397 21.4541C33.4491 21.9809 33.0652 22.6043 32.8107 23.2875C32.5563 23.9707 32.4365 24.6997 32.4583 25.4316C32.4395 26.1622 32.5624 26.8893 32.8193 27.5698C33.0764 28.2503 33.4624 28.8705 33.9546 29.3937H33.9694ZM63.0361 31.9584C61.3481 33.6357 59.1003 34.5721 56.7621 34.5721C54.4237 34.5721 52.1759 33.6357 50.4879 31.9584C49.6478 31.1139 48.9861 30.0977 48.5449 28.9741C48.1037 27.8505 47.8926 26.6443 47.925 25.4316C47.8935 24.2191 48.105 23.013 48.5461 21.8896C48.9873 20.7662 49.6485 19.7499 50.4879 18.9048C52.1759 17.2275 54.4237 16.2912 56.7621 16.2912C59.1003 16.2912 61.3481 17.2275 63.0361 18.9048C63.8756 19.7499 64.5367 20.7662 64.9779 21.8896C65.419 23.013 65.6305 24.2191 65.599 25.4316C65.6315 26.6443 65.4203 27.8505 64.9791 28.9741C64.5379 30.0977 63.8763 31.1139 63.0361 31.9584ZM53.2583 29.3937C53.7073 29.8908 54.2499 30.287 54.8525 30.5578C55.4552 30.8287 56.1051 30.9685 56.7621 30.9685C57.4189 30.9685 58.0688 30.8287 58.6715 30.5578C59.2741 30.287 59.8167 29.8908 60.2657 29.3937C60.7552 28.8692 61.1386 28.2485 61.3929 27.568C61.6474 26.8876 61.7679 26.1611 61.7472 25.4316C61.7691 24.6997 61.6492 23.9707 61.3947 23.2875C61.1403 22.6043 60.7564 21.9809 60.2657 21.4541C59.8107 20.9622 59.2646 20.5708 58.6599 20.3033C58.0552 20.0358 57.4046 19.898 56.7472 19.898C56.0898 19.898 55.4392 20.0358 54.8345 20.3033C54.2298 20.5708 53.6836 20.9622 53.2286 21.4541C52.738 21.9809 52.3541 22.6043 52.0996 23.2875C51.8452 23.9707 51.7254 24.6997 51.7472 25.4316C51.7284 26.1622 51.8513 26.8893 52.1082 27.5698C52.3652 28.2503 52.7513 28.8705 53.2435 29.3937H53.2583ZM75.7176 42.7698C73.9418 42.8284 72.2006 42.2538 70.7843 41.142C69.5267 40.162 68.5363 38.8602 67.9101 37.3641L71.2879 35.9052C71.6556 36.7993 72.2306 37.5853 72.9621 38.1934C73.7449 38.8476 74.7273 39.1906 75.7324 39.1609C76.3698 39.2012 77.008 39.0985 77.6036 38.8599C78.1993 38.6214 78.7384 38.2527 79.1843 37.7788C80.0768 36.6628 80.5174 35.2316 80.4139 33.7859V32.4652H80.2805C79.716 33.1603 79.003 33.7095 78.1982 34.0693C77.3933 34.4292 76.5186 34.5898 75.6435 34.5384C74.5312 34.5419 73.4303 34.3062 72.4103 33.8463C71.3903 33.3864 70.4735 32.7121 69.7176 31.8663C68.8973 31.0271 68.25 30.0242 67.8145 28.9181C67.3791 27.8122 67.1647 26.626 67.1843 25.4316C67.1637 24.2303 67.3777 23.0369 67.8129 21.9233C68.2482 20.8096 68.8961 19.7987 69.7176 18.9509C70.4716 18.1015 71.3877 17.4239 72.4079 16.9612C73.4281 16.4985 74.5299 16.261 75.6435 16.2634C76.5858 16.2617 77.5169 16.4767 78.3694 16.8931C79.1069 17.2269 79.7645 17.725 80.2954 18.352H80.4287V16.8931H84.1028V33.2484C84.1994 34.5422 84.0405 35.8429 83.6355 37.0707C83.2303 38.2987 82.5878 39.428 81.7472 40.3895C80.9465 41.1836 80.0004 41.8033 78.9648 42.2121C77.9292 42.621 76.825 42.8106 75.7176 42.7698ZM75.9843 30.9756C76.6168 30.99 77.2448 30.8598 77.8234 30.5945C78.4021 30.3291 78.9172 29.9349 79.3324 29.4398C80.2465 28.354 80.7283 26.9487 80.6805 25.5084C80.7354 24.0439 80.2538 22.612 79.3324 21.5002C78.9179 21.0044 78.4028 20.6096 77.824 20.3441C77.2452 20.0786 76.617 19.949 75.9843 19.9645C75.3343 19.9507 74.6891 20.0804 74.0913 20.3452C73.4936 20.61 72.9571 21.0038 72.5176 21.5002C71.5376 22.572 71.0052 24.0013 71.0361 25.4777C71.021 26.2018 71.1441 26.922 71.3984 27.5966C71.6526 28.2713 72.0329 28.8873 72.5176 29.4091C72.955 29.9104 73.4904 30.3093 74.0881 30.5794C74.6858 30.8495 75.3322 30.9845 75.9843 30.9756ZM90.6361 7.17198V34.0163H86.7694V7.17198H90.6361ZM101.244 34.5691C100.086 34.5999 98.9338 34.3827 97.8606 33.9307C96.7874 33.4789 95.8157 32.8022 95.0065 31.9431C94.1853 31.0902 93.5399 30.0732 93.1095 28.9539C92.6791 27.8345 92.4727 26.6362 92.5028 25.4316C92.4589 24.2241 92.6502 23.0198 93.0651 21.8905C93.48 20.7612 94.11 19.7302 94.9176 18.8587C95.6786 18.0271 96.5988 17.3694 97.6192 16.9278C98.6398 16.4862 99.7379 16.2703 100.844 16.2941C101.86 16.283 102.868 16.4868 103.806 16.8931C104.651 17.2466 105.422 17.7683 106.073 18.4288C106.633 18.9887 107.129 19.612 107.555 20.287C107.898 20.8569 108.191 21.4584 108.429 22.0837L108.829 23.1281L96.9768 28.1806C97.3352 29.0342 97.9348 29.7553 98.6965 30.2488C99.4582 30.7423 100.346 30.9849 101.244 30.9448C102.117 30.9473 102.975 30.7152 103.736 30.2711C104.497 29.8269 105.134 29.1861 105.584 28.4109L108.547 30.4841C107.791 31.6055 106.824 32.5564 105.703 33.2791C104.37 34.152 102.82 34.6005 101.244 34.5691ZM96.2954 25.1552L104.177 21.7613C103.934 21.1629 103.5 20.6693 102.947 20.3638C102.328 20.0015 101.628 19.8161 100.918 19.8262C99.7119 19.8587 98.5673 20.383 97.7324 21.2852C97.2327 21.7808 96.8449 22.3847 96.5965 23.0537C96.348 23.7227 96.2452 24.4402 96.2954 25.1552Z" fill="white"/>
<path d="M129.081 34.5684C127.437 34.5978 125.803 34.2825 124.28 33.6414C122.755 33.0001 121.372 32.0464 120.213 30.8372C119.054 29.6282 118.142 28.1886 117.532 26.6052C116.923 25.0216 116.628 23.3267 116.666 21.6223C116.628 19.9179 116.923 18.2231 117.532 16.6396C118.142 15.056 119.054 13.6165 120.213 12.4074C121.372 11.1983 122.755 10.2445 124.28 9.60332C125.803 8.96216 127.437 8.64682 129.081 8.67625C130.746 8.62231 132.4 8.95893 133.922 9.66097C135.443 10.363 136.791 11.4123 137.866 12.7306L135.733 14.8806C134.944 13.8515 133.931 13.0299 132.778 12.4829C131.624 11.9359 130.364 11.6787 129.095 11.7323C127.877 11.7038 126.663 11.9313 125.53 12.4011C124.397 12.8708 123.368 13.5731 122.504 14.4659C121.604 15.4027 120.903 16.522 120.441 17.7536C119.979 18.9851 119.769 20.3023 119.822 21.6223C119.769 22.9423 119.979 24.2595 120.441 25.491C120.903 26.7227 121.604 27.8419 122.504 28.7787C123.368 29.6715 124.397 30.3738 125.53 30.8436C126.663 31.3133 127.877 31.5408 129.095 31.5123C130.512 31.5288 131.913 31.2142 133.195 30.5921C134.478 29.9699 135.609 29.0562 136.504 27.9187L138.637 30.1302C137.52 31.5148 136.117 32.622 134.533 33.3706C132.825 34.1879 130.963 34.5972 129.081 34.5684Z" fill="white"/>
<path d="M144.369 34.0161H141.303V9.21436H144.369V34.0161Z" fill="white"/>
<path d="M149.378 19.0888C150.986 17.4346 153.159 16.5061 155.423 16.5061C157.687 16.5061 159.86 17.4346 161.467 19.0888C162.254 19.9489 162.867 20.9615 163.274 22.0685C163.681 23.1754 163.873 24.3548 163.838 25.5388C163.873 26.7228 163.681 27.9023 163.274 29.0092C162.867 30.1161 162.254 31.1288 161.467 31.9888C159.86 33.6431 157.687 34.5715 155.423 34.5715C153.159 34.5715 150.986 33.6431 149.378 31.9888C148.593 31.1288 147.978 30.1161 147.572 29.0092C147.165 27.9023 146.973 26.7228 147.008 25.5388C146.973 24.3548 147.165 23.1754 147.572 22.0685C147.978 20.9615 148.593 19.9489 149.378 19.0888ZM151.66 29.9924C152.143 30.5217 152.725 30.9434 153.371 31.2316C154.017 31.5197 154.712 31.6683 155.416 31.6683C156.119 31.6683 156.814 31.5197 157.46 31.2316C158.106 30.9434 158.688 30.5217 159.171 29.9924C159.707 29.3962 160.123 28.6953 160.395 27.9308C160.667 27.1661 160.79 26.3531 160.756 25.5388C160.79 24.7246 160.667 23.9115 160.395 23.1469C160.123 22.3823 159.707 21.6815 159.171 21.0853C158.688 20.556 158.106 20.1343 157.46 19.8461C156.814 19.558 156.119 19.4094 155.416 19.4094C154.712 19.4094 154.017 19.558 153.371 19.8461C152.725 20.1343 152.143 20.556 151.66 21.0853C151.124 21.6815 150.708 22.3823 150.436 23.1469C150.164 23.9115 150.041 24.7246 150.075 25.5388C150.044 26.3516 150.171 27.1624 150.445 27.9243C150.72 28.6862 151.138 29.384 151.675 29.977L151.66 29.9924Z" fill="white"/>
<path d="M180.83 34.0158H177.868V31.6661H177.779C177.251 32.5585 176.505 33.2898 175.616 33.7854C174.693 34.3398 173.645 34.6312 172.579 34.63C171.713 34.6914 170.845 34.5493 170.039 34.2142C169.233 33.8793 168.512 33.3599 167.927 32.695C166.804 31.2236 166.241 29.3772 166.341 27.5043V17.0615H169.408V26.9208C169.408 30.0843 170.756 31.6661 173.452 31.6661C174.051 31.6855 174.647 31.5562 175.187 31.2891C175.729 31.022 176.201 30.6247 176.563 30.1304C177.359 29.0862 177.782 27.79 177.763 26.46V17.0615H180.83V34.0158Z" fill="white"/>
<path d="M191.245 34.5692C190.205 34.5728 189.177 34.3427 188.23 33.8946C187.284 33.4466 186.443 32.7914 185.764 31.9739C184.228 30.2153 183.405 27.9105 183.468 25.5392C183.405 23.168 184.228 20.8632 185.764 19.1046C186.443 18.2871 187.284 17.6319 188.23 17.1839C189.177 16.7358 190.205 16.5056 191.245 16.5092C192.41 16.4902 193.562 16.7754 194.593 17.3386C195.499 17.8112 196.267 18.5272 196.815 19.4117H196.948L196.815 17.0621V9.2146H199.882V34.0164H196.919V31.6667H196.786C196.237 32.5513 195.47 33.2673 194.564 33.7399C193.541 34.2982 192.401 34.5832 191.245 34.5692ZM191.748 31.6667C192.442 31.6772 193.13 31.5347 193.765 31.2487C194.402 30.9628 194.971 30.54 195.437 30.0082C196.479 28.7786 197.012 27.1729 196.919 25.5392C197.012 23.9056 196.479 22.2999 195.437 21.0703C194.968 20.5356 194.397 20.1085 193.759 19.8162C193.121 19.5239 192.431 19.3729 191.734 19.3729C191.036 19.3729 190.347 19.5239 189.71 19.8162C189.072 20.1085 188.499 20.5356 188.03 21.0703C187.513 21.6751 187.116 22.3798 186.862 23.144C186.607 23.9083 186.501 24.717 186.548 25.5239C186.501 26.3307 186.607 27.1395 186.862 27.9038C187.116 28.668 187.513 29.3726 188.03 29.9774C188.497 30.5187 189.071 30.9497 189.713 31.2411C190.354 31.5326 191.049 31.6778 191.748 31.6667Z" fill="white"/>
</g>
<defs>
<clipPath id="clip0_194_405">
<rect width="200" height="43" fill="white"/>
</clipPath>
</defs>
</svg>
