<svg width="320" height="320" viewBox="0 0 320 320" fill="none" xmlns="http://www.w3.org/2000/svg">
<g clip-path="url(#clip0_180_119)">
<path d="M237.133 203.814C235.697 203.811 234.294 203.383 233.101 202.583C231.908 201.784 230.979 200.649 230.429 199.323C229.88 197.996 229.736 196.536 230.016 195.127C230.295 193.719 230.985 192.424 231.999 191.407C241.454 181.953 248.954 170.729 254.072 158.376C259.189 146.023 261.823 132.783 261.823 119.412C261.823 106.041 259.189 92.8006 254.072 80.4475C248.954 68.0944 241.454 56.8703 231.999 47.416C231.304 46.7452 230.75 45.9427 230.369 45.0555C229.988 44.1682 229.787 43.2139 229.779 42.2483C229.771 41.2827 229.955 40.3251 230.32 39.4314C230.686 38.5376 231.226 37.7257 231.909 37.0428C232.591 36.36 233.403 35.82 234.297 35.4544C235.191 35.0887 236.149 34.9047 237.114 34.9131C238.08 34.9215 239.034 35.1221 239.921 35.5033C240.808 35.8844 241.611 36.4384 242.282 37.133C264.1 58.9537 276.357 88.5473 276.357 119.404C276.357 150.262 264.1 179.855 242.282 201.676C241.608 202.356 240.806 202.895 239.922 203.262C239.038 203.629 238.09 203.817 237.133 203.814Z" fill="url(#paint0_linear_180_119)"/>
<path d="M82.8623 203.817C81.907 203.819 80.9606 203.632 80.078 203.266C79.1955 202.901 78.3943 202.363 77.7208 201.686C55.9028 179.865 43.6458 150.272 43.6458 119.414C43.6458 88.5571 55.9028 58.9635 77.7208 37.1428C78.3847 36.4215 79.1876 35.8418 80.0813 35.4387C80.9749 35.0356 81.9409 34.8173 82.921 34.797C83.9012 34.7767 84.8753 34.9547 85.7849 35.3205C86.6945 35.6863 87.5207 36.2322 88.214 36.9254C88.9072 37.6186 89.4531 38.4449 89.8189 39.3545C90.1846 40.264 90.3627 41.2382 90.3424 42.2183C90.3221 43.1985 90.1038 44.1644 89.7007 45.0581C89.2975 45.9517 88.7179 46.7547 87.9966 47.4186C78.5413 56.8728 71.041 68.097 65.9238 80.4501C60.8066 92.8032 58.1728 106.043 58.1728 119.414C58.1728 132.785 60.8066 146.025 65.9238 158.379C71.041 170.732 78.5413 181.956 87.9966 191.41C89.0133 192.427 89.7057 193.723 89.9861 195.133C90.2666 196.544 90.1226 198.006 89.5723 199.334C89.022 200.663 88.0901 201.799 86.8945 202.598C85.6989 203.397 84.2931 203.824 82.855 203.824L82.8623 203.817Z" fill="url(#paint1_linear_180_119)"/>
<g filter="url(#filter0_bi_180_119)">
<path d="M267.994 234.681C266.556 234.68 265.15 234.254 263.955 233.455C262.759 232.656 261.827 231.52 261.277 230.191C260.726 228.863 260.582 227.401 260.863 225.99C261.143 224.58 261.836 223.284 262.852 222.267C276.36 208.761 287.075 192.726 294.386 175.079C301.696 157.431 305.459 138.517 305.459 119.415C305.459 100.313 301.696 81.3984 294.386 63.751C287.075 46.1035 276.36 30.0689 262.852 16.5627C261.528 15.1912 260.795 13.3542 260.811 11.4474C260.828 9.54061 261.593 7.71663 262.941 6.36829C264.289 5.01995 266.113 4.25513 268.02 4.23856C269.927 4.22199 271.764 4.95499 273.135 6.2797C287.993 21.1364 299.779 38.7742 307.821 58.186C315.862 77.5978 320 98.4035 320 119.415C320 140.426 315.862 161.232 307.821 180.644C299.779 200.055 287.993 217.693 273.135 232.55C271.772 233.914 269.923 234.68 267.994 234.681Z" fill="url(#paint2_linear_180_119)" fill-opacity="0.2"/>
<path d="M271.765 231.18L271.766 231.18C286.444 216.503 298.087 199.079 306.031 179.902C313.974 160.725 318.063 140.172 318.063 119.415C318.063 98.6579 313.974 78.1042 306.031 58.9275C298.089 39.7563 286.45 22.3366 271.778 7.66255C270.773 6.69757 269.431 6.16387 268.037 6.17598C266.638 6.18814 265.3 6.74919 264.311 7.73831C263.322 8.72742 262.761 10.0655 262.749 11.4642C262.737 12.8578 263.27 14.2006 264.235 15.2055C277.917 28.8889 288.77 45.1325 296.176 63.0095C303.584 80.892 307.396 100.059 307.396 119.415C307.396 138.771 303.584 157.938 296.176 175.82C288.768 193.703 277.91 209.951 264.223 223.637C263.477 224.383 262.969 225.333 262.763 226.368C262.557 227.403 262.663 228.475 263.067 229.45C263.47 230.424 264.154 231.258 265.031 231.844C265.908 232.43 266.939 232.743 267.994 232.743L271.765 231.18ZM271.765 231.18C270.765 232.18 269.409 232.743 267.994 232.743L271.765 231.18Z" stroke="url(#paint3_linear_180_119)" stroke-opacity="0.1" stroke-width="3.875"/>
</g>
<g filter="url(#filter1_bi_180_119)">
<path d="M52.0064 234.681C50.0778 234.68 48.2284 233.914 46.8649 232.55C32.007 217.693 20.2209 200.055 12.1798 180.644C4.13872 161.232 0 140.426 0 119.415C0 98.4035 4.13872 77.5978 12.1798 58.186C20.2209 38.7742 32.007 21.1364 46.8649 6.2797C48.2364 4.95499 50.0734 4.22199 51.9802 4.23856C53.887 4.25513 55.711 5.01995 57.0593 6.36829C58.4077 7.71663 59.1725 9.54061 59.1891 11.4474C59.2056 13.3542 58.4726 15.1912 57.1479 16.5627C43.6401 30.0689 32.9251 46.1035 25.6146 63.751C18.3041 81.3984 14.5415 100.313 14.5415 119.415C14.5415 138.517 18.3041 157.431 25.6146 175.079C32.9251 192.726 43.6401 208.761 57.1479 222.267C58.1646 223.284 58.857 224.58 59.1375 225.99C59.418 227.401 59.2739 228.863 58.7237 230.191C58.1734 231.52 57.2415 232.656 56.0458 233.455C54.8502 234.254 53.4445 234.68 52.0064 234.681Z" fill="url(#paint4_linear_180_119)" fill-opacity="0.2"/>
<path d="M48.2348 231.18L48.2351 231.18C49.2351 232.18 50.5915 232.743 52.006 232.743L48.2348 231.18ZM48.2348 231.18C33.5569 216.503 21.9136 199.079 13.9698 179.902M48.2348 231.18L13.9698 179.902M13.9698 179.902C6.0261 160.725 1.9375 140.172 1.9375 119.415M13.9698 179.902L1.9375 119.415M1.9375 119.415C1.9375 98.6579 6.0261 78.1042 13.9698 58.9275M1.9375 119.415L13.9698 58.9275M13.9698 58.9275C21.9113 39.7563 33.5501 22.3367 48.222 7.66258M13.9698 58.9275L48.222 7.66258M48.222 7.66258C49.227 6.69758 50.5698 6.16387 51.9634 6.17598C53.3621 6.18814 54.7002 6.74919 55.6893 7.73831C56.6784 8.72743 57.2395 10.0655 57.2516 11.4642C57.2637 12.8578 56.73 14.2006 55.7651 15.2055C42.0834 28.8889 31.2301 45.1325 23.8246 63.0095C16.4168 80.892 12.604 100.059 12.604 119.415C12.604 138.771 16.4168 157.938 23.8246 175.82C31.2324 193.703 42.0902 209.951 55.7778 223.637M48.222 7.66258L55.7778 223.637M55.7778 223.637C55.7778 223.637 55.7777 223.637 55.7777 223.637C55.7776 223.637 55.7779 223.637 55.7778 223.637Z" stroke="url(#paint5_linear_180_119)" stroke-opacity="0.1" stroke-width="3.875"/>
</g>
<g filter="url(#filter2_bi_180_119)">
<path d="M237.128 203.818C235.692 203.815 234.289 203.386 233.096 202.587C231.903 201.788 230.973 200.653 230.424 199.326C229.875 197.999 229.731 196.54 230.01 195.131C230.29 193.723 230.98 192.428 231.994 191.411C241.449 181.957 248.949 170.733 254.066 158.38C259.184 146.027 261.817 132.786 261.817 119.415C261.817 106.044 259.184 92.8043 254.066 80.4512C248.949 68.0981 241.449 56.8739 231.994 47.4197C231.299 46.7488 230.745 45.9464 230.364 45.0591C229.983 44.1719 229.782 43.2176 229.774 42.252C229.765 41.2864 229.949 40.3288 230.315 39.435C230.681 38.5413 231.221 37.7293 231.903 37.0465C232.586 36.3637 233.398 35.8237 234.292 35.458C235.186 35.0924 236.143 34.9084 237.109 34.9168C238.074 34.9252 239.029 35.1258 239.916 35.5069C240.803 35.8881 241.606 36.4421 242.277 37.1366C264.095 58.9574 276.352 88.5509 276.352 119.408C276.352 150.265 264.095 179.859 242.277 201.68C241.603 202.359 240.801 202.899 239.917 203.266C239.033 203.633 238.085 203.82 237.128 203.818Z" fill="url(#paint6_linear_180_119)" fill-opacity="0.2"/>
<path d="M237.133 201.88H237.132C236.079 201.878 235.05 201.564 234.174 200.977C233.299 200.391 232.617 199.559 232.214 198.585C231.812 197.612 231.706 196.541 231.911 195.508C232.116 194.475 232.621 193.527 233.364 192.781C242.999 183.147 250.642 171.709 255.856 159.121C261.071 146.533 263.755 133.041 263.755 119.415C263.755 105.79 261.071 92.2979 255.856 79.7097C250.642 67.1215 242.999 55.6838 233.363 46.0496L233.352 46.0377L233.34 46.0261C232.83 45.5339 232.424 44.9453 232.144 44.2944C231.864 43.6435 231.717 42.9435 231.711 42.2352C231.705 41.5268 231.84 40.8243 232.108 40.1687C232.376 39.5131 232.772 38.9174 233.273 38.4165C233.774 37.9156 234.37 37.5195 235.026 37.2513C235.681 36.983 236.384 36.848 237.092 36.8542C237.8 36.8604 238.5 37.0075 239.151 37.2871C239.802 37.5667 240.391 37.9731 240.883 38.4827L240.895 38.4947L240.906 38.5066C262.361 59.9639 274.414 89.0648 274.414 119.408C274.414 149.752 262.361 178.852 240.906 200.31L240.9 200.316C240.407 200.813 239.821 201.208 239.174 201.476C238.527 201.745 237.833 201.882 237.133 201.88Z" stroke="url(#paint7_linear_180_119)" stroke-opacity="0.1" stroke-width="3.875"/>
</g>
<g filter="url(#filter3_bi_180_119)">
<path d="M82.8644 203.817C81.9091 203.819 80.9627 203.632 80.0802 203.266C79.1976 202.901 78.3964 202.363 77.7229 201.686C55.9049 179.865 43.648 150.272 43.648 119.414C43.648 88.5571 55.9049 58.9635 77.7229 37.1428C78.3868 36.4215 79.1898 35.8418 80.0834 35.4387C80.9771 35.0356 81.943 34.8173 82.9231 34.797C83.9033 34.7767 84.8775 34.9547 85.787 35.3205C86.6966 35.6863 87.5228 36.2322 88.2161 36.9254C88.9093 37.6186 89.4552 38.4449 89.821 39.3545C90.1867 40.264 90.3648 41.2382 90.3445 42.2183C90.3242 43.1985 90.1059 44.1644 89.7028 45.0581C89.2997 45.9517 88.72 46.7547 87.9987 47.4186C78.5434 56.8728 71.0431 68.097 65.9259 80.4501C60.8087 92.8032 58.1749 106.043 58.1749 119.414C58.1749 132.785 60.8087 146.025 65.9259 158.379C71.0431 170.732 78.5434 181.956 87.9987 191.41C89.0154 192.427 89.7078 193.723 89.9883 195.133C90.2687 196.544 90.1247 198.006 89.5744 199.334C89.0241 200.663 88.0923 201.799 86.8966 202.598C85.701 203.397 84.2953 203.824 82.8572 203.824L82.8644 203.817Z" fill="url(#paint8_linear_180_119)" fill-opacity="0.2"/>
<path d="M85.82 200.987C85.024 201.519 84.101 201.826 83.1485 201.878L82.8592 201.879C82.1602 201.881 81.4677 201.744 80.8219 201.477C80.1762 201.209 79.5899 200.816 79.0971 200.32L79.093 200.316C57.6384 178.859 45.5855 149.758 45.5855 119.414C45.5855 89.0709 57.6384 59.9701 79.093 38.5127L79.1214 38.4844L79.1485 38.4549C79.6355 37.9258 80.2245 37.5005 80.8801 37.2048C81.5357 36.9091 82.2443 36.749 82.9633 36.7341C83.6823 36.7192 84.3969 36.8498 85.0642 37.1181C85.7314 37.3864 86.3375 37.7869 86.8461 38.2954C87.3546 38.804 87.7551 39.4101 88.0234 40.0773C88.2917 40.7446 88.4223 41.4592 88.4074 42.1782C88.3925 42.8972 88.2324 43.6058 87.9367 44.2614C87.641 44.917 87.2157 45.506 86.6866 45.993L86.6571 46.0201L86.6287 46.0485C76.9936 55.6827 69.3505 67.1204 64.1359 79.7086C58.9213 92.2968 56.2374 105.789 56.2374 119.414C56.2374 133.04 58.9213 146.532 64.1359 159.12C69.3504 171.708 76.9934 183.146 86.6284 192.78C87.3743 193.526 87.8822 194.476 88.088 195.511C88.2937 196.546 88.1881 197.618 87.7844 198.593C87.3807 199.568 86.6971 200.401 85.82 200.987Z" stroke="url(#paint9_linear_180_119)" stroke-opacity="0.1" stroke-width="3.875"/>
</g>
<path d="M218.183 301.217H167.277V147.466C174.132 145.696 180.107 141.486 184.08 135.626C188.054 129.766 189.754 122.658 188.862 115.635C187.97 108.611 184.547 102.154 179.234 97.4735C173.922 92.7931 167.085 90.2109 160.005 90.2109C152.925 90.2109 146.088 92.7931 140.775 97.4735C135.463 102.154 132.04 108.611 131.147 115.635C130.255 122.658 131.955 129.766 135.929 135.626C139.903 141.486 145.877 145.696 152.732 147.466V301.217H101.826C99.8976 301.217 98.0479 301.983 96.6841 303.347C95.3202 304.71 94.5541 306.56 94.5541 308.489C94.5541 310.418 95.3202 312.267 96.6841 313.631C98.0479 314.995 99.8976 315.761 101.826 315.761H218.183C220.112 315.761 221.962 314.995 223.325 313.631C224.689 312.267 225.455 310.418 225.455 308.489C225.455 306.56 224.689 304.71 223.325 303.347C221.962 301.983 220.112 301.217 218.183 301.217Z" fill="url(#paint10_linear_180_119)"/>
<path d="M113.723 172.965C112.767 172.967 111.821 172.78 110.939 172.415C110.056 172.049 109.255 171.512 108.581 170.834C94.9434 157.196 87.2818 138.699 87.2818 119.412C87.2818 100.125 94.9434 81.6273 108.581 67.9892C109.252 67.2946 110.055 66.7406 110.942 66.3595C111.829 65.9783 112.783 65.7777 113.749 65.7693C114.715 65.7609 115.672 65.9449 116.566 66.3106C117.46 66.6762 118.272 67.2162 118.954 67.899C119.637 68.5819 120.177 69.3938 120.543 70.2876C120.909 71.1813 121.093 72.1389 121.084 73.1045C121.076 74.0701 120.875 75.0244 120.494 75.9117C120.113 76.7989 119.559 77.6014 118.864 78.2722C113.462 83.6746 109.176 90.0883 106.252 97.147C103.328 104.206 101.823 111.771 101.823 119.412C101.823 127.052 103.328 134.617 106.252 141.676C109.176 148.735 113.462 155.149 118.864 160.551C119.881 161.568 120.573 162.864 120.854 164.274C121.134 165.685 120.99 167.147 120.44 168.475C119.89 169.804 118.958 170.94 117.762 171.739C116.567 172.538 115.161 172.964 113.723 172.965Z" fill="url(#paint11_linear_180_119)"/>
<path d="M206.285 172.965C204.846 172.964 203.441 172.538 202.245 171.739C201.049 170.94 200.118 169.804 199.567 168.475C199.017 167.147 198.873 165.685 199.153 164.274C199.434 162.864 200.126 161.568 201.143 160.551C206.546 155.149 210.831 148.735 213.755 141.676C216.679 134.617 218.184 127.052 218.184 119.412C218.184 111.771 216.679 104.206 213.755 97.147C210.831 90.0883 206.546 83.6746 201.143 78.2722C200.448 77.6014 199.894 76.7989 199.513 75.9117C199.132 75.0244 198.932 74.0701 198.923 73.1045C198.915 72.1389 199.099 71.1813 199.464 70.2876C199.83 69.3938 200.37 68.5819 201.053 67.899C201.736 67.2162 202.548 66.6762 203.441 66.3106C204.335 65.9449 205.293 65.7609 206.258 65.7693C207.224 65.7777 208.178 65.9783 209.065 66.3595C209.953 66.7406 210.755 67.2946 211.426 67.9892C225.064 81.6273 232.726 100.125 232.726 119.412C232.726 138.699 225.064 157.196 211.426 170.834C210.753 171.512 209.951 172.049 209.069 172.415C208.186 172.78 207.24 172.967 206.285 172.965Z" fill="url(#paint12_linear_180_119)"/>
</g>
<defs>
<filter id="filter0_bi_180_119" x="214.223" y="-42.2617" width="152.277" height="323.442" filterUnits="userSpaceOnUse" color-interpolation-filters="sRGB">
<feFlood flood-opacity="0" result="BackgroundImageFix"/>
<feGaussianBlur in="BackgroundImageFix" stdDeviation="23.25"/>
<feComposite in2="SourceAlpha" operator="in" result="effect1_backgroundBlur_180_119"/>
<feBlend mode="normal" in="SourceGraphic" in2="effect1_backgroundBlur_180_119" result="shape"/>
<feColorMatrix in="SourceAlpha" type="matrix" values="0 0 0 0 0 0 0 0 0 0 0 0 0 0 0 0 0 0 127 0" result="hardAlpha"/>
<feOffset dy="7.75"/>
<feGaussianBlur stdDeviation="15.5"/>
<feComposite in2="hardAlpha" operator="arithmetic" k2="-1" k3="1"/>
<feColorMatrix type="matrix" values="0 0 0 0 1 0 0 0 0 1 0 0 0 0 1 0 0 0 0.4 0"/>
<feBlend mode="normal" in2="shape" result="effect2_innerShadow_180_119"/>
</filter>
<filter id="filter1_bi_180_119" x="-46.5" y="-42.2617" width="152.277" height="323.442" filterUnits="userSpaceOnUse" color-interpolation-filters="sRGB">
<feFlood flood-opacity="0" result="BackgroundImageFix"/>
<feGaussianBlur in="BackgroundImageFix" stdDeviation="23.25"/>
<feComposite in2="SourceAlpha" operator="in" result="effect1_backgroundBlur_180_119"/>
<feBlend mode="normal" in="SourceGraphic" in2="effect1_backgroundBlur_180_119" result="shape"/>
<feColorMatrix in="SourceAlpha" type="matrix" values="0 0 0 0 0 0 0 0 0 0 0 0 0 0 0 0 0 0 127 0" result="hardAlpha"/>
<feOffset dy="7.75"/>
<feGaussianBlur stdDeviation="15.5"/>
<feComposite in2="hardAlpha" operator="arithmetic" k2="-1" k3="1"/>
<feColorMatrix type="matrix" values="0 0 0 0 1 0 0 0 0 1 0 0 0 0 1 0 0 0 0.4 0"/>
<feBlend mode="normal" in2="shape" result="effect2_innerShadow_180_119"/>
</filter>
<filter id="filter2_bi_180_119" x="183.273" y="-11.5835" width="139.578" height="261.901" filterUnits="userSpaceOnUse" color-interpolation-filters="sRGB">
<feFlood flood-opacity="0" result="BackgroundImageFix"/>
<feGaussianBlur in="BackgroundImageFix" stdDeviation="23.25"/>
<feComposite in2="SourceAlpha" operator="in" result="effect1_backgroundBlur_180_119"/>
<feBlend mode="normal" in="SourceGraphic" in2="effect1_backgroundBlur_180_119" result="shape"/>
<feColorMatrix in="SourceAlpha" type="matrix" values="0 0 0 0 0 0 0 0 0 0 0 0 0 0 0 0 0 0 127 0" result="hardAlpha"/>
<feOffset dy="7.75"/>
<feGaussianBlur stdDeviation="15.5"/>
<feComposite in2="hardAlpha" operator="arithmetic" k2="-1" k3="1"/>
<feColorMatrix type="matrix" values="0 0 0 0 1 0 0 0 0 1 0 0 0 0 1 0 0 0 0.4 0"/>
<feBlend mode="normal" in2="shape" result="effect2_innerShadow_180_119"/>
</filter>
<filter id="filter3_bi_180_119" x="-2.85203" y="-11.7046" width="139.698" height="262.029" filterUnits="userSpaceOnUse" color-interpolation-filters="sRGB">
<feFlood flood-opacity="0" result="BackgroundImageFix"/>
<feGaussianBlur in="BackgroundImageFix" stdDeviation="23.25"/>
<feComposite in2="SourceAlpha" operator="in" result="effect1_backgroundBlur_180_119"/>
<feBlend mode="normal" in="SourceGraphic" in2="effect1_backgroundBlur_180_119" result="shape"/>
<feColorMatrix in="SourceAlpha" type="matrix" values="0 0 0 0 0 0 0 0 0 0 0 0 0 0 0 0 0 0 127 0" result="hardAlpha"/>
<feOffset dy="7.75"/>
<feGaussianBlur stdDeviation="15.5"/>
<feComposite in2="hardAlpha" operator="arithmetic" k2="-1" k3="1"/>
<feColorMatrix type="matrix" values="0 0 0 0 1 0 0 0 0 1 0 0 0 0 1 0 0 0 0.4 0"/>
<feBlend mode="normal" in2="shape" result="effect2_innerShadow_180_119"/>
</filter>
<linearGradient id="paint0_linear_180_119" x1="229.779" y1="34.9128" x2="287.899" y2="38.9826" gradientUnits="userSpaceOnUse">
<stop stop-color="#75A5FF"/>
<stop offset="0.703125" stop-color="#5A807C"/>
</linearGradient>
<linearGradient id="paint1_linear_180_119" x1="43.6458" y1="34.7954" x2="101.915" y2="38.883" gradientUnits="userSpaceOnUse">
<stop stop-color="#75A5FF"/>
<stop offset="0.703125" stop-color="#5A807C"/>
</linearGradient>
<linearGradient id="paint2_linear_180_119" x1="260.723" y1="4.23828" x2="334.736" y2="9.07251" gradientUnits="userSpaceOnUse">
<stop stop-color="#83E9FF"/>
<stop offset="0.453125" stop-color="#85A0FF"/>
</linearGradient>
<linearGradient id="paint3_linear_180_119" x1="262.576" y1="14.7129" x2="320" y2="14.7129" gradientUnits="userSpaceOnUse">
<stop stop-color="#3CDEB6"/>
<stop offset="0.65625" stop-color="#364AFF"/>
</linearGradient>
<linearGradient id="paint4_linear_180_119" x1="0" y1="4.23828" x2="74.0129" y2="9.07251" gradientUnits="userSpaceOnUse">
<stop stop-color="#83E9FF"/>
<stop offset="0.453125" stop-color="#85A0FF"/>
</linearGradient>
<linearGradient id="paint5_linear_180_119" x1="1.85241" y1="14.7129" x2="59.2771" y2="14.7129" gradientUnits="userSpaceOnUse">
<stop stop-color="#3CDEB6"/>
<stop offset="0.65625" stop-color="#364AFF"/>
</linearGradient>
<linearGradient id="paint6_linear_180_119" x1="229.773" y1="34.9165" x2="287.894" y2="38.9863" gradientUnits="userSpaceOnUse">
<stop stop-color="#83E9FF"/>
<stop offset="0.453125" stop-color="#85A0FF"/>
</linearGradient>
<linearGradient id="paint7_linear_180_119" x1="231.229" y1="42.5938" x2="276.352" y2="42.5938" gradientUnits="userSpaceOnUse">
<stop stop-color="#3CDEB6"/>
<stop offset="0.65625" stop-color="#364AFF"/>
</linearGradient>
<linearGradient id="paint8_linear_180_119" x1="43.648" y1="34.7954" x2="101.917" y2="38.883" gradientUnits="userSpaceOnUse">
<stop stop-color="#83E9FF"/>
<stop offset="0.453125" stop-color="#85A0FF"/>
</linearGradient>
<linearGradient id="paint9_linear_180_119" x1="45.1073" y1="42.4785" x2="90.3461" y2="42.4785" gradientUnits="userSpaceOnUse">
<stop stop-color="#3CDEB6"/>
<stop offset="0.65625" stop-color="#364AFF"/>
</linearGradient>
<linearGradient id="paint10_linear_180_119" x1="94.5541" y1="90.2109" x2="255.205" y2="113.885" gradientUnits="userSpaceOnUse">
<stop stop-color="#75A5FF"/>
<stop offset="0.703125" stop-color="#5A807C"/>
</linearGradient>
<linearGradient id="paint11_linear_180_119" x1="87.2818" y1="65.769" x2="129.398" y2="69.1413" gradientUnits="userSpaceOnUse">
<stop stop-color="#75A5FF"/>
<stop offset="0.703125" stop-color="#5A807C"/>
</linearGradient>
<linearGradient id="paint12_linear_180_119" x1="198.923" y1="65.769" x2="241.039" y2="69.1412" gradientUnits="userSpaceOnUse">
<stop stop-color="#75A5FF"/>
<stop offset="0.703125" stop-color="#5A807C"/>
</linearGradient>
<clipPath id="clip0_180_119">
<rect width="320" height="320" fill="white"/>
</clipPath>
</defs>
</svg>
