<svg width="869" height="235" viewBox="0 0 869 235" fill="none" xmlns="http://www.w3.org/2000/svg">
<g clip-path="url(#clip0_148_91)">
<path d="M105.384 129.297V169.505L65.1865 129.297H105.384Z" fill="white"/>
<path d="M105.384 105.679H0.21106L105.384 0.446289V105.679Z" fill="#EF5239"/>
<path d="M129.015 129.32V234.553L234.188 129.32H129.015Z" fill="#EF5239"/>
<path d="M194.012 40.6318H129.025V105.656H194.012V40.6318Z" fill="white"/>
<path d="M305.869 74.8828H358.444V89.3705H308.547C308.073 89.3702 307.604 89.4655 307.168 89.6507C306.732 89.8358 306.338 90.1071 306.009 90.4483C305.68 90.7894 305.423 91.1934 305.254 91.6361C305.085 92.0788 305.006 92.5511 305.024 93.0248V141.975C305.006 142.449 305.085 142.921 305.254 143.364C305.423 143.807 305.68 144.211 306.009 144.552C306.338 144.893 306.732 145.164 307.168 145.349C307.604 145.535 308.073 145.63 308.547 145.63H358.444V160.117H305.869C301.545 160.117 297.398 158.399 294.339 155.341C291.281 152.283 289.561 148.135 289.558 143.808V91.1918C289.561 86.8653 291.281 82.7171 294.339 79.6589C297.398 76.6007 301.545 74.8828 305.869 74.8828Z" fill="white"/>
<path d="M432.423 113V143.809C432.42 148.135 430.7 152.284 427.642 155.342C424.583 158.4 420.436 160.118 416.112 160.118H385.321C380.999 160.115 376.855 158.396 373.799 155.338C370.743 152.28 369.025 148.133 369.021 143.809V113C369.021 108.674 370.738 104.524 373.795 101.464C376.851 98.4037 380.997 96.6828 385.321 96.6797H416.112C420.438 96.6797 424.587 98.3992 427.646 101.46C430.705 104.521 432.423 108.672 432.423 113ZM417.087 113C417.087 112.031 416.702 111.102 416.017 110.416C415.332 109.731 414.403 109.346 413.434 109.346H387.999C387.525 109.346 387.056 109.441 386.62 109.626C386.184 109.811 385.79 110.083 385.461 110.424C385.132 110.765 384.875 111.169 384.706 111.612C384.537 112.054 384.458 112.527 384.476 113V143.809C384.475 144.755 384.842 145.664 385.5 146.344C386.158 147.024 387.054 147.421 387.999 147.451H413.434C414.394 147.431 415.31 147.041 415.99 146.362C416.67 145.684 417.063 144.769 417.087 143.809V113Z" fill="white"/>
<path d="M482.915 96.6792V109.346H461.988L458.466 113V160.118H443V96.6675H458.454V103.847L465.641 96.6675L482.915 96.6792Z" fill="white"/>
<path d="M508.964 134.303V143.809C508.961 144.755 509.327 145.666 509.985 146.347C510.643 147.027 511.541 147.423 512.487 147.451H552.414V160.118H509.81C505.486 160.118 501.339 158.4 498.28 155.341C495.221 152.283 493.501 148.135 493.498 143.809V113C493.498 108.672 495.217 104.52 498.276 101.46C501.335 98.3988 505.484 96.6793 509.81 96.6793H537.923C540.069 96.6731 542.195 97.0907 544.18 97.9081C546.164 98.7255 547.968 99.9267 549.487 101.443C551.007 102.959 552.213 104.76 553.035 106.743C553.858 108.727 554.281 110.853 554.281 113V134.303H508.964ZM508.964 122.553H538.78V113.059C538.798 112.585 538.719 112.113 538.55 111.67C538.381 111.227 538.124 110.823 537.795 110.482C537.466 110.141 537.072 109.87 536.636 109.685C536.2 109.499 535.731 109.404 535.257 109.405H512.487C512.013 109.404 511.544 109.499 511.108 109.685C510.672 109.87 510.278 110.141 509.949 110.482C509.62 110.823 509.364 111.227 509.194 111.67C509.025 112.113 508.947 112.585 508.964 113.059V122.553Z" fill="white"/>
<path d="M585.988 74.8828H662.178V89.3705H631.787V160.117H616.285V89.3705H585.988V74.8828Z" fill="#EF5239"/>
<path d="M688.149 134.303V143.809C688.149 144.755 688.516 145.664 689.174 146.344C689.831 147.024 690.727 147.421 691.672 147.451H731.599V160.118H689.042C684.719 160.118 680.573 158.4 677.516 155.341C674.459 152.283 672.742 148.134 672.742 143.809V113C672.741 110.858 673.161 108.736 673.98 106.756C674.798 104.776 675.998 102.976 677.512 101.461C679.026 99.945 680.823 98.7426 682.802 97.9222C684.78 97.1019 686.9 96.6797 689.042 96.6797H717.155C721.481 96.6797 725.63 98.3992 728.689 101.46C731.748 104.521 733.467 108.672 733.467 113V134.303H688.149ZM688.149 122.553H717.965V113.059C717.983 112.586 717.905 112.113 717.735 111.671C717.566 111.228 717.309 110.824 716.98 110.483C716.652 110.142 716.257 109.87 715.821 109.685C715.385 109.5 714.916 109.405 714.442 109.405H691.672C691.199 109.405 690.73 109.5 690.294 109.685C689.858 109.87 689.463 110.142 689.134 110.483C688.805 110.824 688.549 111.228 688.379 111.671C688.21 112.113 688.132 112.586 688.149 113.059V122.553Z" fill="#EF5239"/>
<path d="M759.508 113V143.809C759.508 144.755 759.875 145.664 760.533 146.344C761.19 147.024 762.086 147.421 763.031 147.451H794.797V160.118H760.365C756.041 160.118 751.894 158.4 748.836 155.342C745.777 152.284 744.057 148.135 744.054 143.809V113C744.054 108.672 745.773 104.521 748.832 101.46C751.891 98.3992 756.039 96.6797 760.365 96.6797H794.808V109.346H763.043C762.568 109.344 762.098 109.438 761.661 109.623C761.223 109.807 760.827 110.078 760.497 110.42C760.167 110.761 759.909 111.166 759.739 111.609C759.569 112.053 759.491 112.526 759.508 113Z" fill="#EF5239"/>
<path d="M868.791 113V160.117H853.454V113C853.454 112.031 853.069 111.101 852.384 110.416C851.699 109.731 850.77 109.346 849.802 109.346H824.378L820.855 113V160.117H805.389V74.8828H820.855V103.858L828.03 96.679H852.491C856.815 96.6822 860.961 98.403 864.017 101.463C867.074 104.524 868.791 108.673 868.791 113Z" fill="#EF5239"/>
</g>
<defs>
<clipPath id="clip0_148_91">
<rect width="869" height="235" fill="white"/>
</clipPath>
</defs>
</svg>
