<svg width="178" height="48" viewBox="0 0 178 48" fill="none" xmlns="http://www.w3.org/2000/svg">
<g clip-path="url(#clip0_213_388)">
<path d="M21.5375 26.4096V34.6224L13.3223 26.4096H21.5375Z" fill="black"/>
<path d="M21.5374 21.5856H0.0429688L21.5374 0.0911865V21.5856Z" fill="#EF5239"/>
<path d="M26.3672 26.4143V47.9087L47.8616 26.4143H26.3672Z" fill="#EF5239"/>
<path d="M39.6507 8.29932H26.3691V21.5809H39.6507V8.29932Z" fill="black"/>
<path d="M62.5113 15.2952H73.2561V18.2544H63.0585C62.9617 18.2543 62.8659 18.2738 62.7768 18.3116C62.6876 18.3494 62.6071 18.4048 62.5399 18.4745C62.4726 18.5442 62.4202 18.6267 62.3856 18.7171C62.351 18.8075 62.335 18.904 62.3385 19.0008V28.9992C62.335 29.0959 62.351 29.1924 62.3856 29.2828C62.4202 29.3732 62.4726 29.4557 62.5399 29.5254C62.6071 29.5951 62.6876 29.6505 62.7768 29.6883C62.8659 29.7262 62.9617 29.7456 63.0585 29.7456H73.2561V32.7048H62.5113C61.6276 32.7048 60.7801 32.3539 60.155 31.7292C59.5299 31.1046 59.1784 30.2573 59.1777 29.3736V18.6264C59.1784 17.7427 59.5299 16.8954 60.155 16.2707C60.7801 15.646 61.6276 15.2952 62.5113 15.2952Z" fill="black"/>
<path d="M88.3756 23.0809V29.3737C88.3749 30.2574 88.0234 31.1047 87.3983 31.7294C86.7732 32.354 85.9257 32.7049 85.042 32.7049H78.7492C77.8659 32.7043 77.0189 32.3531 76.3944 31.7285C75.7698 31.1039 75.4186 30.257 75.418 29.3737V23.0809C75.418 22.1972 75.7689 21.3497 76.3935 20.7245C77.0182 20.0994 77.8655 19.748 78.7492 19.7473H85.042C85.9261 19.7473 86.774 20.0985 87.3992 20.7237C88.0244 21.3489 88.3756 22.1968 88.3756 23.0809ZM85.2412 23.0809C85.2412 22.883 85.1625 22.6931 85.0226 22.5531C84.8826 22.4132 84.6927 22.3345 84.4948 22.3345H79.2964C79.1996 22.3344 79.1037 22.3539 79.0146 22.3917C78.9255 22.4296 78.8449 22.485 78.7777 22.5546C78.7105 22.6243 78.658 22.7068 78.6234 22.7973C78.5888 22.8877 78.5728 22.9842 78.5764 23.0809V29.3737C78.5763 29.567 78.6514 29.7526 78.7857 29.8915C78.9201 30.0304 79.1032 30.1115 79.2964 30.1177H84.4948C84.691 30.1135 84.878 30.0338 85.017 29.8952C85.156 29.7567 85.2363 29.5699 85.2412 29.3737V23.0809Z" fill="black"/>
<path d="M98.6947 19.7473V22.3345H94.4179L93.6979 23.0809V32.7049H90.5371V19.7449H93.6955V21.2113L95.1643 19.7449L98.6947 19.7473Z" fill="black"/>
<path d="M104.018 27.432V29.3736C104.018 29.567 104.092 29.7531 104.227 29.892C104.361 30.031 104.545 30.112 104.738 30.1176H112.898V32.7048H104.191C103.307 32.7048 102.46 32.3539 101.835 31.7293C101.21 31.1046 100.858 30.2573 100.857 29.3736V23.0808C100.857 22.1967 101.209 21.3488 101.834 20.7236C102.459 20.0984 103.307 19.7472 104.191 19.7472H109.937C110.375 19.7459 110.81 19.8312 111.215 19.9982C111.621 20.1652 111.989 20.4105 112.3 20.7202C112.611 21.0299 112.857 21.3978 113.025 21.8029C113.193 22.208 113.28 22.6422 113.28 23.0808V27.432H104.018ZM104.018 25.032H110.112V23.0928C110.115 22.9961 110.099 22.8996 110.065 22.8092C110.03 22.7187 109.978 22.6362 109.911 22.5665C109.843 22.4969 109.763 22.4414 109.674 22.4036C109.584 22.3658 109.489 22.3463 109.392 22.3464H104.738C104.641 22.3463 104.546 22.3658 104.456 22.4036C104.367 22.4414 104.287 22.4969 104.22 22.5665C104.152 22.6362 104.1 22.7187 104.065 22.8092C104.031 22.8996 104.015 22.9961 104.018 23.0928V25.032Z" fill="black"/>
<path d="M119.76 15.2952H135.331V18.2544H129.12V32.7048H125.952V18.2544H119.76V15.2952Z" fill="#EF5239"/>
<path d="M140.639 27.4321V29.3737C140.639 29.567 140.714 29.7526 140.848 29.8915C140.983 30.0304 141.166 30.1115 141.359 30.1177H149.519V32.7049H140.821C139.938 32.7049 139.091 32.354 138.466 31.7292C137.841 31.1045 137.49 30.2572 137.49 29.3737V23.0809C137.49 22.6433 137.576 22.2098 137.743 21.8054C137.91 21.4009 138.156 21.0334 138.465 20.7239C138.774 20.4143 139.142 20.1687 139.546 20.0011C139.95 19.8336 140.384 19.7473 140.821 19.7473H146.567C147.451 19.7473 148.299 20.0985 148.924 20.7237C149.549 21.3489 149.901 22.1968 149.901 23.0809V27.4321H140.639ZM140.639 25.0321H146.733V23.0929C146.736 22.9962 146.72 22.8997 146.686 22.8093C146.651 22.7188 146.599 22.6363 146.531 22.5666C146.464 22.497 146.384 22.4416 146.294 22.4037C146.205 22.3659 146.109 22.3464 146.013 22.3465H141.359C141.262 22.3464 141.166 22.3659 141.077 22.4037C140.988 22.4416 140.908 22.497 140.84 22.5666C140.773 22.6363 140.721 22.7188 140.686 22.8093C140.651 22.8997 140.635 22.9962 140.639 23.0929V25.0321Z" fill="#EF5239"/>
<path d="M155.223 23.0809V29.3737C155.223 29.567 155.298 29.7526 155.432 29.8915C155.567 30.0304 155.75 30.1115 155.943 30.1177H162.435V32.7049H155.398C154.514 32.7049 153.667 32.354 153.042 31.7294C152.417 31.1047 152.065 30.2574 152.064 29.3737V23.0809C152.064 22.1968 152.416 21.3489 153.041 20.7237C153.666 20.0985 154.514 19.7473 155.398 19.7473H162.437V22.3345H155.945C155.848 22.3341 155.752 22.3533 155.663 22.391C155.573 22.4287 155.492 22.4841 155.425 22.5538C155.358 22.6235 155.305 22.7061 155.27 22.7967C155.235 22.8873 155.219 22.984 155.223 23.0809Z" fill="#EF5239"/>
<path d="M177.557 23.0808V32.7048H174.423V23.0808C174.423 22.8828 174.344 22.693 174.204 22.553C174.064 22.413 173.874 22.3344 173.676 22.3344H168.48L167.76 23.0808V32.7048H164.6V15.2952H167.76V21.2136L169.227 19.7472H174.226C175.11 19.7478 175.957 20.0993 176.582 20.7244C177.206 21.3495 177.557 22.1971 177.557 23.0808Z" fill="#EF5239"/>
</g>
<defs>
<clipPath id="clip0_213_388">
<rect width="177.6" height="48" fill="white"/>
</clipPath>
</defs>
</svg>
