<svg width="26" height="19" viewBox="0 0 26 19" fill="none" xmlns="http://www.w3.org/2000/svg">
<path d="M11.2211 13.2003C11.2211 16.2045 9.12281 18.4804 5.92982 18.4804C2.73684 18.4804 0 15.9314 0 11.3796C0 5.73529 4.28772 0.910363 9.85263 0V3.36835C6.65965 4.0056 4.28772 6.28151 4.28772 8.92157C4.83509 8.55742 5.56491 8.28431 6.75088 8.28431C9.12281 8.28431 11.2211 10.014 11.2211 13.2003ZM26 13.2003C26 16.2045 23.8105 18.4804 20.6175 18.4804C17.5158 18.4804 14.6877 15.9314 14.6877 11.3796C14.6877 5.73529 18.9754 0.910363 24.6316 0V3.36835C21.4386 4.0056 19.0667 6.28151 19.0667 8.83053C19.614 8.46639 20.4351 8.28431 21.5298 8.28431C23.9018 8.28431 26 10.014 26 13.2003Z" fill="#5A807C"/>
</svg>
