<svg width="90" height="43" viewBox="0 0 90 43" fill="none" xmlns="http://www.w3.org/2000/svg">
<g clip-path="url(#clip0_194_368)">
<mask id="mask0_194_368" style="mask-type:luminance" maskUnits="userSpaceOnUse" x="0" y="-1" width="91" height="44">
<path d="M89.9996 -0.00185988L0 0L0.000888614 43L90.0005 42.9981L89.9996 -0.00185988Z" fill="white"/>
</mask>
<g mask="url(#mask0_194_368)">
<path fill-rule="evenodd" clip-rule="evenodd" d="M0.000888614 43L45.4865 42.9991L89.9996 -0.00185988L0 0L0.000888614 43Z" fill="white"/>
<path fill-rule="evenodd" clip-rule="evenodd" d="M53.4118 8.5987L44.5232 8.59889L44.5533 28.7898L36.813 8.5914L29.1385 8.59156L22.5318 25.4601C21.8292 21.1678 17.2345 19.6867 13.6193 18.5774C11.232 17.8369 8.69811 16.7476 8.72381 15.5436C8.74358 14.5556 10.0792 13.6392 12.7338 13.7758C14.5146 13.8684 16.0878 14.0069 19.2172 15.467L22.2939 10.2878C19.4406 8.88512 15.4949 7.9994 12.2596 7.9966L12.2399 7.9966C8.4674 7.99668 5.32616 9.17685 3.37911 11.1214C2.02171 12.4783 1.2896 14.2041 1.25996 16.1123C1.21054 18.7382 2.20689 20.5996 4.30044 22.0874C6.06947 23.3391 8.33219 24.1513 10.3258 24.7475C12.7844 25.4832 14.7929 26.1234 14.7681 27.486C14.7483 27.9829 14.5545 28.4473 14.1845 28.8219C13.5711 29.4335 12.6312 29.6628 11.3301 29.6877C8.82007 29.7394 6.96004 29.3581 3.99583 27.6659L1.25833 32.912C4.21957 34.5383 7.36283 35.3542 10.9345 35.3542L11.7378 35.3484C14.8465 35.2939 17.3694 34.5743 19.3738 33.0167C19.4886 32.9278 19.5914 32.838 19.6983 32.7472L19.362 34.4214L26.8614 34.3983L28.207 31.071C29.6218 31.5373 31.2305 31.7953 32.9381 31.7952C34.6022 31.7952 36.1674 31.5505 37.5555 31.1109L38.4936 34.398L51.949 34.4102L51.9816 26.825L54.8448 26.8249C61.7655 26.8248 65.8565 23.4229 65.8564 17.7183C65.854 11.3648 61.8769 8.59757 53.4118 8.59775L53.4118 8.5987ZM32.938 25.8584C31.9041 25.8584 30.9345 25.6845 30.1004 25.3787L32.9061 16.8217L32.9605 16.8217L35.7211 25.4025C34.89 25.6892 33.9432 25.8583 32.937 25.8584L32.938 25.8584ZM53.9324 20.9416L51.9794 20.9416L51.9793 14.0454L53.9333 14.0453C56.5354 14.0453 58.6131 14.8823 58.6131 17.4489C58.6109 20.1054 56.5345 20.9415 53.9324 20.9416Z" fill="#5A807C"/>
</g>
</g>
<defs>
<clipPath id="clip0_194_368">
<rect width="89.9996" height="43" fill="white"/>
</clipPath>
</defs>
</svg>
