<svg width="278" height="139" viewBox="0 0 278 139" fill="none" xmlns="http://www.w3.org/2000/svg">
<g clip-path="url(#clip0_144_726)">
<mask id="mask0_144_726" style="mask-type:luminance" maskUnits="userSpaceOnUse" x="0" y="-1" width="278" height="141">
<path d="M277.997 -0.00379179L0 0.00195312L0.00287246 139.001L278 138.995L277.997 -0.00379179Z" fill="white"/>
</mask>
<g mask="url(#mask0_144_726)">
<path fill-rule="evenodd" clip-rule="evenodd" d="M0.00287246 139.001L140.502 138.998L277.997 -0.00379179L0 0.00195312L0.00287246 139.001Z" fill="white"/>
<path fill-rule="evenodd" clip-rule="evenodd" d="M164.982 27.7978L137.527 27.7984L137.62 93.0658L113.711 27.7741L90.0052 27.7746L69.5979 82.3026C67.4277 68.4275 53.2352 63.64 42.0683 60.0541C34.6942 57.6604 26.8675 54.1393 26.9469 50.2473C27.008 47.0534 31.1334 44.0911 39.3331 44.5327C44.8338 44.8322 49.6932 45.28 59.3595 49.9995L68.8633 33.2577C60.0498 28.7235 47.862 25.8604 37.8686 25.8513L37.8078 25.8513C26.1549 25.8516 16.452 29.6665 10.4378 35.9524C6.24498 40.3387 3.98358 45.9172 3.89203 52.0856C3.7394 60.5738 6.81699 66.5909 13.2837 71.4001C18.748 75.4464 25.7373 78.0718 31.8953 79.9991C39.4896 82.3773 45.6936 84.4467 45.6171 88.8515C45.5559 90.4577 44.9571 91.9589 43.8142 93.1697C41.9195 95.1466 39.0163 95.888 34.9974 95.9684C27.2443 96.1354 21.4989 94.903 12.3428 89.4328L3.88704 106.391C13.0339 111.648 22.7431 114.286 33.7755 114.285L36.2568 114.267C45.8591 114.09 53.652 111.764 59.8435 106.729C60.1981 106.442 60.5156 106.152 60.8458 105.858L59.8068 111.27L82.9717 111.195L87.1279 100.44C91.498 101.947 96.4671 102.781 101.742 102.781C106.882 102.781 111.717 101.99 116.004 100.569L118.902 111.195L160.464 111.234L160.565 86.7147L169.409 86.7145C190.786 86.7141 203.423 75.7175 203.422 57.277C203.415 36.7392 191.13 27.7942 164.982 27.7947L164.982 27.7978ZM101.742 83.59C98.5479 83.59 95.553 83.0279 92.9765 82.0395L101.643 54.3786L101.811 54.3786L110.338 82.1164C107.771 83.0431 104.846 83.5899 101.738 83.59L101.742 83.59ZM166.59 67.6965L160.558 67.6966L160.558 45.4043L166.593 45.4042C174.631 45.404 181.048 48.1097 181.049 56.4064C181.042 64.9934 174.628 67.6963 166.59 67.6965Z" fill="#5A807C"/>
</g>
</g>
<defs>
<clipPath id="clip0_144_726">
<rect width="277.997" height="138.999" fill="white" transform="translate(0 0.00195312)"/>
</clipPath>
</defs>
</svg>
