<svg width="318" height="318" viewBox="0 0 318 318" fill="none" xmlns="http://www.w3.org/2000/svg">
<g clip-path="url(#clip0_179_110)">
<path d="M280.318 70.2827H37.6823C30.1763 70.2827 24.0914 76.3676 24.0914 83.8736V268.692C24.0914 276.198 30.1763 282.283 37.6823 282.283H280.318C287.824 282.283 293.908 276.198 293.908 268.692V83.8736C293.908 76.3676 287.824 70.2827 280.318 70.2827Z" fill="url(#paint0_linear_179_110)"/>
<g filter="url(#filter0_bi_179_110)">
<path d="M304.174 304.173H13.8261C10.1592 304.173 6.64246 302.716 4.04957 300.123C1.45667 297.531 0 294.014 0 290.347V27.6513C0 23.9844 1.45667 20.4677 4.04957 17.8748C6.64246 15.2819 10.1592 13.8252 13.8261 13.8252H304.174C307.841 13.8252 311.358 15.2819 313.95 17.8748C316.543 20.4677 318 23.9844 318 27.6513V290.347C318 294.014 316.543 297.531 313.95 300.123C311.358 302.716 307.841 304.173 304.174 304.173Z" fill="url(#paint1_linear_179_110)" fill-opacity="0.2"/>
<path d="M304.174 302.345H13.8261C10.644 302.345 7.5923 301.081 5.34225 298.831C3.09219 296.581 1.82812 293.529 1.82812 290.347V27.6513C1.82812 24.4692 3.09219 21.4175 5.34225 19.1674C7.5923 16.9174 10.644 15.6533 13.8261 15.6533H304.174C307.356 15.6533 310.408 16.9174 312.658 19.1674C314.908 21.4175 316.172 24.4692 316.172 27.6513V290.347C316.172 293.529 314.908 296.581 312.658 298.831C310.408 301.081 307.356 302.345 304.174 302.345Z" stroke="url(#paint2_linear_179_110)" stroke-opacity="0.1" stroke-width="3.65625"/>
</g>
<g filter="url(#filter1_bi_179_110)">
<path d="M274.949 154.609C274.301 153.818 273.486 153.181 272.562 152.744C271.638 152.306 270.628 152.079 269.606 152.079H146.097C140.692 141.835 132.012 133.696 121.442 128.96C110.873 124.223 99.021 123.163 87.7781 125.947C76.5351 128.731 66.5482 135.2 59.4101 144.322C52.2719 153.443 48.3935 164.692 48.3935 176.275C48.3935 187.857 52.2719 199.106 59.4101 208.228C66.5482 217.349 76.5351 223.818 87.7781 226.602C99.021 229.386 110.873 228.326 121.442 223.59C132.012 218.853 140.692 210.714 146.097 200.47H171.192L183.559 206.657C184.519 207.137 185.577 207.387 186.649 207.387C187.722 207.387 188.78 207.137 189.739 206.657L202.107 200.47H212.67L225.037 206.657C225.997 207.137 227.055 207.387 228.127 207.387C229.2 207.387 230.258 207.137 231.218 206.657L243.585 200.47H262.693C264.286 200.471 265.831 199.92 267.066 198.913C268.3 197.905 269.149 196.501 269.467 194.94L276.381 160.375C276.585 159.368 276.563 158.328 276.316 157.33C276.068 156.333 275.602 155.403 274.949 154.609ZM86.4101 193.557C82.9919 193.557 79.6505 192.544 76.8084 190.645C73.9663 188.746 71.7511 186.046 70.443 182.888C69.135 179.73 68.7927 176.255 69.4596 172.903C70.1264 169.55 71.7724 166.471 74.1894 164.054C76.6065 161.637 79.6859 159.991 83.0384 159.324C86.3909 158.657 89.8659 158.999 93.0239 160.308C96.1818 161.616 98.881 163.831 100.78 166.673C102.679 169.515 103.693 172.856 103.693 176.275C103.693 180.858 101.872 185.254 98.6307 188.495C95.3896 191.736 90.9937 193.557 86.4101 193.557Z" fill="white" fill-opacity="0.16"/>
</g>
<g filter="url(#filter2_i_179_110)">
<path d="M275.277 165.91H152.087V179.736H272.512L275.277 165.91Z" fill="white" fill-opacity="0.16"/>
</g>
<g filter="url(#filter3_i_179_110)">
<path d="M24.1956 48.3895C29.9226 48.3895 34.5652 43.7469 34.5652 38.02C34.5652 32.293 29.9226 27.6504 24.1956 27.6504C18.4687 27.6504 13.8261 32.293 13.8261 38.02C13.8261 43.7469 18.4687 48.3895 24.1956 48.3895Z" fill="url(#paint3_linear_179_110)"/>
</g>
<g filter="url(#filter4_i_179_110)">
<path d="M58.7609 48.3895C64.4878 48.3895 69.1304 43.7469 69.1304 38.02C69.1304 32.293 64.4878 27.6504 58.7609 27.6504C53.0339 27.6504 48.3913 32.293 48.3913 38.02C48.3913 43.7469 53.0339 48.3895 58.7609 48.3895Z" fill="url(#paint4_linear_179_110)"/>
</g>
<g filter="url(#filter5_i_179_110)">
<path d="M93.3261 48.3895C99.053 48.3895 103.696 43.7469 103.696 38.02C103.696 32.293 99.053 27.6504 93.3261 27.6504C87.5991 27.6504 82.9565 32.293 82.9565 38.02C82.9565 43.7469 87.5991 48.3895 93.3261 48.3895Z" fill="url(#paint5_linear_179_110)"/>
</g>
</g>
<defs>
<filter id="filter0_bi_179_110" x="-43.875" y="-30.0498" width="405.75" height="378.098" filterUnits="userSpaceOnUse" color-interpolation-filters="sRGB">
<feFlood flood-opacity="0" result="BackgroundImageFix"/>
<feGaussianBlur in="BackgroundImageFix" stdDeviation="21.9375"/>
<feComposite in2="SourceAlpha" operator="in" result="effect1_backgroundBlur_179_110"/>
<feBlend mode="normal" in="SourceGraphic" in2="effect1_backgroundBlur_179_110" result="shape"/>
<feColorMatrix in="SourceAlpha" type="matrix" values="0 0 0 0 0 0 0 0 0 0 0 0 0 0 0 0 0 0 127 0" result="hardAlpha"/>
<feOffset dy="7.3125"/>
<feGaussianBlur stdDeviation="14.625"/>
<feComposite in2="hardAlpha" operator="arithmetic" k2="-1" k3="1"/>
<feColorMatrix type="matrix" values="0 0 0 0 1 0 0 0 0 1 0 0 0 0 1 0 0 0 0.4 0"/>
<feBlend mode="normal" in2="shape" result="effect2_innerShadow_179_110"/>
</filter>
<filter id="filter1_bi_179_110" x="4.51854" y="80.5518" width="315.876" height="191.446" filterUnits="userSpaceOnUse" color-interpolation-filters="sRGB">
<feFlood flood-opacity="0" result="BackgroundImageFix"/>
<feGaussianBlur in="BackgroundImageFix" stdDeviation="21.9375"/>
<feComposite in2="SourceAlpha" operator="in" result="effect1_backgroundBlur_179_110"/>
<feBlend mode="normal" in="SourceGraphic" in2="effect1_backgroundBlur_179_110" result="shape"/>
<feColorMatrix in="SourceAlpha" type="matrix" values="0 0 0 0 0 0 0 0 0 0 0 0 0 0 0 0 0 0 127 0" result="hardAlpha"/>
<feOffset dy="7.3125"/>
<feGaussianBlur stdDeviation="14.625"/>
<feComposite in2="hardAlpha" operator="arithmetic" k2="-1" k3="1"/>
<feColorMatrix type="matrix" values="0 0 0 0 1 0 0 0 0 1 0 0 0 0 1 0 0 0 0.4 0"/>
<feBlend mode="normal" in2="shape" result="effect2_innerShadow_179_110"/>
</filter>
<filter id="filter2_i_179_110" x="152.087" y="165.91" width="123.19" height="21.1387" filterUnits="userSpaceOnUse" color-interpolation-filters="sRGB">
<feFlood flood-opacity="0" result="BackgroundImageFix"/>
<feBlend mode="normal" in="SourceGraphic" in2="BackgroundImageFix" result="shape"/>
<feColorMatrix in="SourceAlpha" type="matrix" values="0 0 0 0 0 0 0 0 0 0 0 0 0 0 0 0 0 0 127 0" result="hardAlpha"/>
<feOffset dy="7.3125"/>
<feGaussianBlur stdDeviation="3.65625"/>
<feComposite in2="hardAlpha" operator="arithmetic" k2="-1" k3="1"/>
<feColorMatrix type="matrix" values="0 0 0 0 1 0 0 0 0 1 0 0 0 0 1 0 0 0 0.4 0"/>
<feBlend mode="normal" in2="shape" result="effect1_innerShadow_179_110"/>
</filter>
<filter id="filter3_i_179_110" x="13.8261" y="27.6504" width="20.7391" height="28.0518" filterUnits="userSpaceOnUse" color-interpolation-filters="sRGB">
<feFlood flood-opacity="0" result="BackgroundImageFix"/>
<feBlend mode="normal" in="SourceGraphic" in2="BackgroundImageFix" result="shape"/>
<feColorMatrix in="SourceAlpha" type="matrix" values="0 0 0 0 0 0 0 0 0 0 0 0 0 0 0 0 0 0 127 0" result="hardAlpha"/>
<feOffset dy="7.3125"/>
<feGaussianBlur stdDeviation="3.65625"/>
<feComposite in2="hardAlpha" operator="arithmetic" k2="-1" k3="1"/>
<feColorMatrix type="matrix" values="0 0 0 0 1 0 0 0 0 1 0 0 0 0 1 0 0 0 0.4 0"/>
<feBlend mode="normal" in2="shape" result="effect1_innerShadow_179_110"/>
</filter>
<filter id="filter4_i_179_110" x="48.3913" y="27.6504" width="20.7391" height="28.0518" filterUnits="userSpaceOnUse" color-interpolation-filters="sRGB">
<feFlood flood-opacity="0" result="BackgroundImageFix"/>
<feBlend mode="normal" in="SourceGraphic" in2="BackgroundImageFix" result="shape"/>
<feColorMatrix in="SourceAlpha" type="matrix" values="0 0 0 0 0 0 0 0 0 0 0 0 0 0 0 0 0 0 127 0" result="hardAlpha"/>
<feOffset dy="7.3125"/>
<feGaussianBlur stdDeviation="3.65625"/>
<feComposite in2="hardAlpha" operator="arithmetic" k2="-1" k3="1"/>
<feColorMatrix type="matrix" values="0 0 0 0 1 0 0 0 0 1 0 0 0 0 1 0 0 0 0.4 0"/>
<feBlend mode="normal" in2="shape" result="effect1_innerShadow_179_110"/>
</filter>
<filter id="filter5_i_179_110" x="82.9565" y="27.6504" width="20.7391" height="28.0518" filterUnits="userSpaceOnUse" color-interpolation-filters="sRGB">
<feFlood flood-opacity="0" result="BackgroundImageFix"/>
<feBlend mode="normal" in="SourceGraphic" in2="BackgroundImageFix" result="shape"/>
<feColorMatrix in="SourceAlpha" type="matrix" values="0 0 0 0 0 0 0 0 0 0 0 0 0 0 0 0 0 0 127 0" result="hardAlpha"/>
<feOffset dy="7.3125"/>
<feGaussianBlur stdDeviation="3.65625"/>
<feComposite in2="hardAlpha" operator="arithmetic" k2="-1" k3="1"/>
<feColorMatrix type="matrix" values="0 0 0 0 1 0 0 0 0 1 0 0 0 0 1 0 0 0 0.4 0"/>
<feBlend mode="normal" in2="shape" result="effect1_innerShadow_179_110"/>
</filter>
<linearGradient id="paint0_linear_179_110" x1="24.0914" y1="70.2827" x2="330.427" y2="169.28" gradientUnits="userSpaceOnUse">
<stop stop-color="#75A5FF"/>
<stop offset="0.703125" stop-color="#5A807C"/>
</linearGradient>
<linearGradient id="paint1_linear_179_110" x1="0" y1="13.8252" x2="370.121" y2="116.756" gradientUnits="userSpaceOnUse">
<stop stop-color="#83E9FF"/>
<stop offset="0.453125" stop-color="#85A0FF"/>
</linearGradient>
<linearGradient id="paint2_linear_179_110" x1="9.9375" y1="27.0228" x2="318" y2="27.0228" gradientUnits="userSpaceOnUse">
<stop stop-color="#3CDEB6"/>
<stop offset="0.65625" stop-color="#364AFF"/>
</linearGradient>
<linearGradient id="paint3_linear_179_110" x1="13.8261" y1="27.6504" x2="38.2561" y2="33.8536" gradientUnits="userSpaceOnUse">
<stop stop-color="#75A5FF"/>
<stop offset="0.703125" stop-color="#5A807C"/>
</linearGradient>
<linearGradient id="paint4_linear_179_110" x1="48.3913" y1="27.6504" x2="72.8214" y2="33.8536" gradientUnits="userSpaceOnUse">
<stop stop-color="#75A5FF"/>
<stop offset="0.703125" stop-color="#5A807C"/>
</linearGradient>
<linearGradient id="paint5_linear_179_110" x1="82.9565" y1="27.6504" x2="107.387" y2="33.8536" gradientUnits="userSpaceOnUse">
<stop stop-color="#75A5FF"/>
<stop offset="0.703125" stop-color="#5A807C"/>
</linearGradient>
<clipPath id="clip0_179_110">
<rect width="318" height="318" fill="white"/>
</clipPath>
</defs>
</svg>
